<svg width="10" height="14" viewBox="0 0 10 14" fill="none" xmlns="http://www.w3.org/2000/svg">
<path id="Vector" fill-rule="evenodd" clip-rule="evenodd" d="M8.61915 0.714938C8.8698 0.96566 9.0106 1.30567 9.0106 1.66019C9.0106 2.01471 8.8698 2.35471 8.61915 2.60544L4.21646 7.00813L8.61915 11.4108C8.86269 11.663 8.99746 12.0007 8.99441 12.3513C8.99136 12.7018 8.85075 13.0372 8.60287 13.285C8.35498 13.5329 8.01964 13.6735 7.66909 13.6766C7.31854 13.6796 6.98081 13.5449 6.72865 13.3013L1.38071 7.95338C1.13006 7.70266 0.989258 7.36265 0.989258 7.00813C0.989258 6.65361 1.13006 6.3136 1.38071 6.06288L6.72865 0.714938C6.97938 0.464292 7.31938 0.323486 7.6739 0.323486C8.02842 0.323486 8.36843 0.464292 8.61915 0.714938Z" fill="#002036"/>
</svg>
