<svg width="60" height="60" viewBox="0 0 60 60" fill="none" xmlns="http://www.w3.org/2000/svg">
<g clip-path="url(#clip0_535_7716)">
<path fill-rule="evenodd" clip-rule="evenodd" d="M9.27188 28.59C8.20313 29.6419 7.59938 31.0772 7.59281 32.5763C7.58719 34.0754 8.18063 35.5154 9.24094 36.5757C12.0797 39.4144 15.87 43.2047 18.6919 46.0275C20.8734 48.2082 24.4041 48.2297 26.6119 46.0754C32.1525 40.6679 41.8322 31.2197 44.7375 28.3838C45.2794 27.855 45.5859 27.1294 45.5859 26.3719C45.5859 22.4082 45.5859 9.86536 45.5859 9.86536H29.4422C28.7034 9.86536 27.9947 10.155 27.4688 10.6735C24.5953 13.5029 14.8622 23.085 9.27188 28.59ZM41.8359 13.6154V24.8138C41.8359 25.5741 41.5275 26.3016 40.9828 26.8313C38.1056 29.626 28.7081 38.7544 24.5906 42.7538C23.5022 43.8104 21.7669 43.7982 20.6934 42.7247C18.4556 40.4879 14.7909 36.8222 12.5288 34.56C12.0019 34.0332 11.7075 33.3179 11.7113 32.5725C11.7141 31.8272 12.015 31.1147 12.5475 30.5925C16.7241 26.4929 26.1834 17.2069 29.0222 14.4207C29.5481 13.9041 30.2559 13.6154 30.9928 13.6154C33.9947 13.6154 41.8359 13.6154 41.8359 13.6154ZM34.4231 15.9235C32.7816 15.9375 31.1888 16.8769 30.4238 18.3169C29.76 19.5647 29.7206 21.1172 30.3131 22.4007C31.0969 24.0994 32.9859 25.2329 34.89 25.0341C36.8044 24.8354 38.5453 23.3138 38.925 21.3816C39.2025 19.9725 38.7731 18.4416 37.7878 17.3963C36.945 16.5029 35.7441 15.945 34.5113 15.9244C34.4822 15.9235 34.4531 15.9235 34.4231 15.9235ZM34.4306 18.285C35.4666 18.2916 36.4388 19.081 36.6272 20.1235C36.6919 20.4835 36.6675 20.8604 36.5428 21.2054C36.1744 22.2169 35.0241 22.9032 33.9516 22.6454C32.8838 22.3885 32.0794 21.2494 32.2622 20.1422C32.4281 19.14 33.3366 18.3019 34.3903 18.285C34.4034 18.285 34.4175 18.285 34.4306 18.285Z" fill="#037EEE"/>
<path fill-rule="evenodd" clip-rule="evenodd" d="M45.586 12.316V16.067H48.7378V27.2654C48.7378 28.0257 48.4303 28.7532 47.8856 29.2829C45.0085 32.0776 35.611 41.2051 31.4935 45.2045C30.405 46.262 28.6688 46.2489 27.5963 45.1763L27.5644 45.1445L26.6119 46.0754C25.9903 46.681 25.2647 47.1151 24.4941 47.3776L25.5947 48.4782C27.7763 50.6598 31.3069 50.6814 33.5138 48.526C39.0544 43.1185 48.7341 33.6714 51.6403 30.8354C52.1822 30.3057 52.4878 29.5801 52.4878 28.8226C52.4878 24.8598 52.4878 12.316 52.4878 12.316H45.586Z" fill="#037EEE"/>
</g>
<defs>
<clipPath id="clip0_535_7716">
<rect width="60" height="60" fill="white"/>
</clipPath>
</defs>
</svg>
