<svg width="24" height="24" viewBox="0 0 24 24" fill="none" xmlns="http://www.w3.org/2000/svg">
<g clip-path="url(#clip0_121_2238)">
<path fill-rule="evenodd" clip-rule="evenodd" d="M3.70875 11.436C3.28125 11.8568 3.03975 12.4309 3.03713 13.0305C3.03488 13.6301 3.27225 14.2061 3.69638 14.6303C4.83188 15.7658 6.348 17.2819 7.47675 18.411C8.34937 19.2833 9.76163 19.2919 10.6448 18.4301C12.861 16.2671 16.7329 12.4879 17.895 11.3535C18.1118 11.142 18.2344 10.8517 18.2344 10.5487C18.2344 8.96325 18.2344 3.94613 18.2344 3.94613H11.7769C11.4814 3.94613 11.1979 4.062 10.9875 4.26938C9.83813 5.40113 5.94488 9.234 3.70875 11.436ZM16.7344 5.44613V9.9255C16.7344 10.2296 16.611 10.5206 16.3931 10.7325C15.2423 11.8504 11.4833 15.5018 9.83625 17.1015C9.40088 17.5241 8.70675 17.5193 8.27738 17.0899C7.38225 16.1951 5.91638 14.7289 5.0115 13.824C4.80075 13.6133 4.683 13.3271 4.6845 13.029C4.68563 12.7309 4.806 12.4459 5.019 12.237C6.68963 10.5971 10.4734 6.88275 11.6089 5.76825C11.8193 5.56163 12.1024 5.44613 12.3971 5.44613C13.5979 5.44613 16.7344 5.44613 16.7344 5.44613ZM13.7692 6.36938C13.1126 6.375 12.4755 6.75075 12.1695 7.32675C11.904 7.82588 11.8883 8.44688 12.1252 8.96025C12.4388 9.63975 13.1944 10.0931 13.956 10.0136C14.7218 9.93413 15.4181 9.3255 15.57 8.55263C15.681 7.989 15.5093 7.37663 15.1151 6.9585C14.778 6.60113 14.2976 6.378 13.8045 6.36975C13.7929 6.36938 13.7812 6.36938 13.7692 6.36938ZM13.7723 7.314C14.1866 7.31663 14.5755 7.63238 14.6509 8.04938C14.6768 8.19338 14.667 8.34413 14.6171 8.48213C14.4698 8.88675 14.0096 9.16125 13.5806 9.05813C13.1535 8.95538 12.8317 8.49975 12.9049 8.05688C12.9712 7.656 13.3346 7.32075 13.7561 7.314C13.7614 7.314 13.767 7.314 13.7723 7.314Z" fill="#037EEE"/>
<path fill-rule="evenodd" clip-rule="evenodd" d="M18.2344 4.92638V6.42675H19.4951V10.9061C19.4951 11.2103 19.3721 11.5013 19.1542 11.7131C18.0034 12.831 14.2444 16.482 12.5974 18.0818C12.162 18.5048 11.4675 18.4995 11.0385 18.0705L11.0257 18.0578L10.6447 18.4301C10.3961 18.6724 10.1059 18.846 9.79761 18.951L10.2379 19.3913C11.1105 20.2639 12.5227 20.2725 13.4055 19.4104C15.6217 17.2474 19.4936 13.4685 20.6561 12.3341C20.8729 12.1223 20.9951 11.832 20.9951 11.529C20.9951 9.94388 20.9951 4.92638 20.9951 4.92638H18.2344Z" fill="#037EEE"/>
</g>
<defs>
<clipPath id="clip0_121_2238">
<rect width="24" height="24" fill="white"/>
</clipPath>
</defs>
</svg>
