<svg width="65" height="65" viewBox="0 0 65 65" fill="none" xmlns="http://www.w3.org/2000/svg">
<rect width="65" height="65" rx="18" fill="#FF653E" fill-opacity="0.1"/>
<g clip-path="url(#clip0_135_3762)">
<path d="M49.9983 33.5864C49.9717 32.7316 49.6107 31.9213 48.993 31.33L36.2988 18.9636C36.1084 18.7736 35.8823 18.6231 35.6336 18.5207C35.385 18.4183 35.1185 18.366 34.8496 18.3667H32.584L47.4695 32.8999L47.4758 32.9059C47.6833 33.1027 47.805 33.3732 47.8145 33.659C47.8239 33.9448 47.7205 34.2228 47.5265 34.4329L36.835 46.2833L38.3357 47.7432L49.1419 35.9078C49.721 35.2764 50.0285 34.4426 49.9983 33.5864Z" fill="#FF653E"/>
<path d="M44.1826 34.3568C44.287 34.0696 44.3088 33.7589 44.2456 33.46C44.1824 33.1611 44.0367 32.8858 43.825 32.6654C43.8178 32.6579 43.8113 32.6497 43.8041 32.6422L30.3335 18.9455L30.3271 18.9391C30.1244 18.7353 29.8833 18.5738 29.6178 18.4638C29.3523 18.3538 29.0676 18.2976 28.7802 18.2983H19.1148C18.3139 18.2993 17.546 18.6178 16.9796 19.1842C16.4132 19.7506 16.0947 20.5185 16.0938 21.3194V30.9649C16.0942 31.2629 16.1554 31.5577 16.2734 31.8313C16.3915 32.1048 16.564 32.3515 16.7804 32.5563L31.1578 46.2419L31.163 46.2469C31.4661 46.5334 31.8676 46.6926 32.2847 46.6918C32.3051 46.6918 32.3256 46.6914 32.3463 46.6906C32.503 46.6849 32.6582 46.6569 32.8071 46.6074C33.0702 46.5197 33.3065 46.3664 33.4939 46.1619L43.8465 34.9085C43.9939 34.7487 44.1082 34.5611 44.1826 34.3568ZM32.2607 44.2716L18.2865 30.9696L18.2812 30.9647V21.3194C18.2815 21.0984 18.3694 20.8865 18.5257 20.7303C18.6819 20.574 18.8938 20.4861 19.1148 20.4858H28.7802L41.8846 33.8103L32.2607 44.2716Z" fill="#FF653E"/>
<path d="M24.5703 22.6562C23.8673 22.6562 23.18 22.8647 22.5954 23.2553C22.0109 23.6459 21.5553 24.2011 21.2862 24.8506C21.0172 25.5002 20.9468 26.2149 21.0839 26.9044C21.2211 27.594 21.5596 28.2273 22.0568 28.7245C22.5539 29.2216 23.1873 29.5602 23.8768 29.6973C24.5664 29.8345 25.2811 29.7641 25.9306 29.495C26.5802 29.226 27.1353 28.7704 27.5259 28.1858C27.9165 27.6012 28.125 26.914 28.125 26.2109C28.1239 25.2685 27.7491 24.365 27.0827 23.6986C26.4163 23.0322 25.5127 22.6573 24.5703 22.6562ZM24.5703 27.5781C24.2999 27.5781 24.0356 27.4979 23.8107 27.3477C23.5859 27.1975 23.4107 26.984 23.3072 26.7341C23.2037 26.4843 23.1766 26.2094 23.2294 25.9442C23.2821 25.679 23.4124 25.4354 23.6036 25.2442C23.7948 25.053 24.0384 24.9228 24.3036 24.87C24.5688 24.8173 24.8437 24.8443 25.0935 24.9478C25.3433 25.0513 25.5569 25.2265 25.7071 25.4514C25.8573 25.6762 25.9375 25.9405 25.9375 26.2109C25.9371 26.5734 25.7929 26.9209 25.5366 27.1772C25.2803 27.4335 24.9328 27.5777 24.5703 27.5781Z" fill="#FF653E"/>
</g>
<defs>
<clipPath id="clip0_135_3762">
<rect width="35" height="35" fill="white" transform="translate(15 15)"/>
</clipPath>
</defs>
</svg>
