<svg width="24" height="24" viewBox="0 0 24 24" fill="none" xmlns="http://www.w3.org/2000/svg">
<path d="M12 3.28497C16.695 3.28497 20.52 6.65997 20.52 10.785C20.52 14.91 16.695 18.285 12 18.285C11.0371 18.3021 10.0784 18.155 9.16498 17.85L8.03998 17.46L7.19998 18.3C6.2734 19.1653 5.26917 19.9436 4.19998 20.625C4.16564 20.6346 4.12932 20.6346 4.09498 20.625V20.535C4.88722 18.4754 4.96643 16.2098 4.31998 14.1C3.81625 13.0915 3.53491 11.9866 3.49498 10.86C3.49498 6.70497 7.31998 3.35997 12.015 3.35997M12 1.40997C6.25498 1.40997 1.60498 5.62497 1.60498 10.815C1.63886 12.1883 1.96618 13.5386 2.56498 14.775C3.03988 16.4986 2.94517 18.3295 2.29498 19.995C2.16625 20.3882 2.16394 20.8118 2.28837 21.2064C2.4128 21.601 2.65771 21.9467 2.98871 22.195C3.31971 22.4432 3.72016 22.5816 4.13382 22.5905C4.54747 22.5995 4.95354 22.4787 5.29498 22.245C6.45173 21.4917 7.53634 20.633 8.53498 19.68C9.65 20.0592 10.8224 20.242 12 20.22C17.745 20.22 22.395 16.005 22.395 10.815C22.395 5.62497 17.745 1.40997 12 1.40997Z" fill="#FAFAFA"/>
<path d="M7.8001 12.675C8.46284 12.675 9.0001 12.1713 9.0001 11.55C9.0001 10.9287 8.46284 10.425 7.8001 10.425C7.13736 10.425 6.6001 10.9287 6.6001 11.55C6.6001 12.1713 7.13736 12.675 7.8001 12.675Z" fill="#FAFAFA"/>
<path d="M12 12.675C12.6628 12.675 13.2 12.1713 13.2 11.55C13.2 10.9287 12.6628 10.425 12 10.425C11.3373 10.425 10.8 10.9287 10.8 11.55C10.8 12.1713 11.3373 12.675 12 12.675Z" fill="#FAFAFA"/>
<path d="M16.2 12.675C16.8627 12.675 17.4 12.1713 17.4 11.55C17.4 10.9287 16.8627 10.425 16.2 10.425C15.5373 10.425 15 10.9287 15 11.55C15 12.1713 15.5373 12.675 16.2 12.675Z" fill="#FAFAFA"/>
</svg>
