<svg width="90" height="90" viewBox="0 0 90 90" fill="none" xmlns="http://www.w3.org/2000/svg">
<g id="check 1">
<path id="Vector" fill-rule="evenodd" clip-rule="evenodd" d="M45 82.4999C65.7104 82.4999 82.4999 65.7104 82.4999 45C82.4999 24.2893 65.7104 7.5 45 7.5C24.2893 7.5 7.5 24.2893 7.5 45C7.5 65.7104 24.2893 82.4999 45 82.4999ZM58.2581 31.7417C59.7228 30.2773 62.0969 30.2773 63.5617 31.7417C65.0261 33.2062 65.0261 35.5806 63.5617 37.045L42.3622 58.2442L42.3483 58.2581C41.9696 58.6368 41.5301 58.9177 41.061 59.1007C40.3965 59.3594 39.6731 59.4221 38.9805 59.2878C38.2713 59.1506 37.5941 58.8074 37.045 58.2581L37.0308 58.2438L26.4385 47.6516C24.974 46.1872 24.974 43.8127 26.4385 42.3483C27.903 40.884 30.2774 40.884 31.7418 42.3483L39.6967 50.3032L58.2581 31.7417Z" fill="url(#paint0_linear_1_13568)"/>
</g>
<defs>
<linearGradient id="paint0_linear_1_13568" x1="45" y1="7.5" x2="45" y2="82.4999" gradientUnits="userSpaceOnUse">
<stop stop-color="#FF653E"/>
<stop offset="0.525594" stop-color="#FAAB98"/>
<stop offset="1" stop-color="#F5F6F7"/>
<stop offset="1" stop-color="#F5F2F2"/>
</linearGradient>
</defs>
</svg>
