<svg width="23" height="23" viewBox="0 0 23 23" fill="none" xmlns="http://www.w3.org/2000/svg">
<path d="M21.0833 14.375H9.58325C9.58325 14.7114 9.58325 15.9553 9.58325 16.2917C9.58325 17.8796 12.1578 19.1667 15.3333 19.1667C18.5087 19.1667 21.0833 17.8796 21.0833 16.2917C21.0833 15.9553 21.0833 14.7114 21.0833 14.375Z" fill="url(#paint0_linear_138_1910)"/>
<path d="M21.0833 12.4583H9.58325C9.58325 12.7947 9.58325 14.0386 9.58325 14.375C9.58325 15.963 12.1578 17.25 15.3333 17.25C18.5087 17.25 21.0833 15.963 21.0833 14.375C21.0833 14.0386 21.0833 12.7947 21.0833 12.4583Z" fill="url(#paint1_linear_138_1910)"/>
<path d="M21.0833 10.5417H9.58325C9.58325 10.878 9.58325 12.122 9.58325 12.4583C9.58325 14.0463 12.1578 15.3333 15.3333 15.3333C18.5087 15.3333 21.0833 14.0463 21.0833 12.4583C21.0833 12.122 21.0833 10.878 21.0833 10.5417Z" fill="url(#paint2_linear_138_1910)"/>
<path d="M21.0833 8.625H9.58325C9.58325 8.96137 9.58325 10.2053 9.58325 10.5417C9.58325 12.1296 12.1578 13.4167 15.3333 13.4167C18.5087 13.4167 21.0833 12.1296 21.0833 10.5417C21.0833 10.2053 21.0833 8.96137 21.0833 8.625Z" fill="url(#paint3_linear_138_1910)"/>
<path d="M21.0833 6.70831H9.58325C9.58325 7.04468 9.58325 8.2886 9.58325 8.62497C9.58325 10.213 12.1578 11.5 15.3333 11.5C18.5087 11.5 21.0833 10.213 21.0833 8.62497C21.0833 8.2886 21.0833 7.04468 21.0833 6.70831Z" fill="url(#paint4_linear_138_1910)"/>
<path d="M21.0833 4.79169H9.58325C9.58325 5.12807 9.58325 6.37198 9.58325 6.70836C9.58325 8.29632 12.1578 9.58336 15.3333 9.58336C18.5087 9.58336 21.0833 8.29632 21.0833 6.70836C21.0833 6.37198 21.0833 5.12807 21.0833 4.79169Z" fill="url(#paint5_linear_138_1910)"/>
<path d="M15.3333 7.66669C18.5089 7.66669 21.0833 6.37951 21.0833 4.79169C21.0833 3.20387 18.5089 1.91669 15.3333 1.91669C12.1576 1.91669 9.58325 3.20387 9.58325 4.79169C9.58325 6.37951 12.1576 7.66669 15.3333 7.66669Z" fill="url(#paint6_linear_138_1910)"/>
<path d="M15.3333 6.70833C17.715 6.70833 19.6458 5.85021 19.6458 4.79167C19.6458 3.73312 17.715 2.875 15.3333 2.875C12.9515 2.875 11.0208 3.73312 11.0208 4.79167C11.0208 5.85021 12.9515 6.70833 15.3333 6.70833Z" fill="#FFC800"/>
<path opacity="0.05" d="M9.58325 8.77454C9.58325 12.0175 9.58325 16.0875 9.58325 16.2917C9.58325 17.6851 11.5656 18.8461 14.1967 19.1101C14.3093 18.8222 14.3749 18.5217 14.3749 18.2083V12.4583C14.3749 10.6572 12.4137 9.22351 9.58325 8.77454Z" fill="black"/>
<path opacity="0.07" d="M9.58325 9.26135C9.58325 12.4104 9.58325 16.0976 9.58325 16.2917C9.58325 17.5955 11.3202 18.6947 13.6993 19.0474C13.8229 18.7795 13.8958 18.4997 13.8958 18.2083V12.4583C13.8958 10.9394 12.1099 9.68733 9.58325 9.26135Z" fill="black"/>
<path d="M13.4167 16.2917H1.91675C1.91675 16.628 1.91675 17.872 1.91675 18.2083C1.91675 19.7963 4.49131 21.0833 7.66675 21.0833C10.8422 21.0833 13.4167 19.7963 13.4167 18.2083C13.4167 17.872 13.4167 16.628 13.4167 16.2917Z" fill="url(#paint7_linear_138_1910)"/>
<path d="M13.4167 14.375H1.91675C1.91675 14.7114 1.91675 15.9553 1.91675 16.2917C1.91675 17.8796 4.49131 19.1667 7.66675 19.1667C10.8422 19.1667 13.4167 17.8796 13.4167 16.2917C13.4167 15.9553 13.4167 14.7114 13.4167 14.375Z" fill="url(#paint8_linear_138_1910)"/>
<path d="M13.4167 12.4583H1.91675C1.91675 12.7947 1.91675 14.0386 1.91675 14.375C1.91675 15.963 4.49131 17.25 7.66675 17.25C10.8422 17.25 13.4167 15.963 13.4167 14.375C13.4167 14.0386 13.4167 12.7947 13.4167 12.4583Z" fill="url(#paint9_linear_138_1910)"/>
<path d="M7.66675 15.3333C10.8424 15.3333 13.4167 14.0461 13.4167 12.4583C13.4167 10.8705 10.8424 9.58331 7.66675 9.58331C4.49111 9.58331 1.91675 10.8705 1.91675 12.4583C1.91675 14.0461 4.49111 15.3333 7.66675 15.3333Z" fill="url(#paint10_linear_138_1910)"/>
<path d="M7.66675 14.375C10.0485 14.375 11.9792 13.5169 11.9792 12.4583C11.9792 11.3998 10.0485 10.5417 7.66675 10.5417C5.28502 10.5417 3.35425 11.3998 3.35425 12.4583C3.35425 13.5169 5.28502 14.375 7.66675 14.375Z" fill="#FFC800"/>
<defs>
<linearGradient id="paint0_linear_138_1910" x1="15.0573" y1="13.5202" x2="15.9629" y2="19.6497" gradientUnits="userSpaceOnUse">
<stop stop-color="#FEDE00"/>
<stop offset="1" stop-color="#FFD000"/>
</linearGradient>
<linearGradient id="paint1_linear_138_1910" x1="15.0573" y1="11.6035" x2="15.9629" y2="17.733" gradientUnits="userSpaceOnUse">
<stop stop-color="#E5A505"/>
<stop offset="0.116" stop-color="#EAA804"/>
<stop offset="0.595" stop-color="#F8B301"/>
<stop offset="1" stop-color="#FDB700"/>
</linearGradient>
<linearGradient id="paint2_linear_138_1910" x1="15.0573" y1="9.68683" x2="15.9629" y2="15.8163" gradientUnits="userSpaceOnUse">
<stop stop-color="#FEDE00"/>
<stop offset="1" stop-color="#FFD000"/>
</linearGradient>
<linearGradient id="paint3_linear_138_1910" x1="15.0573" y1="7.77017" x2="15.9629" y2="13.8997" gradientUnits="userSpaceOnUse">
<stop stop-color="#E5A505"/>
<stop offset="0.116" stop-color="#EAA804"/>
<stop offset="0.595" stop-color="#F8B301"/>
<stop offset="1" stop-color="#FDB700"/>
</linearGradient>
<linearGradient id="paint4_linear_138_1910" x1="15.0573" y1="5.85347" x2="15.9629" y2="11.983" gradientUnits="userSpaceOnUse">
<stop stop-color="#FEDE00"/>
<stop offset="1" stop-color="#FFD000"/>
</linearGradient>
<linearGradient id="paint5_linear_138_1910" x1="15.0573" y1="3.93686" x2="15.9629" y2="10.0663" gradientUnits="userSpaceOnUse">
<stop stop-color="#E5A505"/>
<stop offset="0.116" stop-color="#EAA804"/>
<stop offset="0.595" stop-color="#F8B301"/>
<stop offset="1" stop-color="#FDB700"/>
</linearGradient>
<linearGradient id="paint6_linear_138_1910" x1="12.199" y1="1.65746" x2="18.536" y2="7.99444" gradientUnits="userSpaceOnUse">
<stop stop-color="#FEDE00"/>
<stop offset="1" stop-color="#FFD000"/>
</linearGradient>
<linearGradient id="paint7_linear_138_1910" x1="7.39075" y1="15.4368" x2="8.29637" y2="21.5663" gradientUnits="userSpaceOnUse">
<stop stop-color="#E5A505"/>
<stop offset="0.116" stop-color="#EAA804"/>
<stop offset="0.595" stop-color="#F8B301"/>
<stop offset="1" stop-color="#FDB700"/>
</linearGradient>
<linearGradient id="paint8_linear_138_1910" x1="7.39075" y1="13.5202" x2="8.29637" y2="19.6497" gradientUnits="userSpaceOnUse">
<stop stop-color="#FEDE00"/>
<stop offset="1" stop-color="#FFD000"/>
</linearGradient>
<linearGradient id="paint9_linear_138_1910" x1="7.39075" y1="11.6035" x2="8.29637" y2="17.733" gradientUnits="userSpaceOnUse">
<stop stop-color="#E5A505"/>
<stop offset="0.116" stop-color="#EAA804"/>
<stop offset="0.595" stop-color="#F8B301"/>
<stop offset="1" stop-color="#FDB700"/>
</linearGradient>
<linearGradient id="paint10_linear_138_1910" x1="4.53252" y1="9.32408" x2="10.8695" y2="15.6611" gradientUnits="userSpaceOnUse">
<stop stop-color="#FEDE00"/>
<stop offset="1" stop-color="#FFD000"/>
</linearGradient>
</defs>
</svg>
