<svg width="65" height="65" viewBox="0 0 65 65" fill="none" xmlns="http://www.w3.org/2000/svg">
<rect width="65" height="65" rx="18" fill="#FF653E" fill-opacity="0.1"/>
<path d="M42.6883 35.3982C43.5659 34.0205 44.0973 32.401 44.1604 30.6618C44.1646 30.5459 44.1667 30.4295 44.1667 30.3125C44.1667 25.0773 39.9227 20.8333 34.6875 20.8333C32.8161 20.8333 31.0714 21.3757 29.6018 22.3117C28.6047 22.3681 27.6391 22.5423 26.7188 22.8206C27.4045 22.0915 28.1892 21.4565 29.0514 20.9371C29.0821 20.9186 29.1129 20.9002 29.1438 20.882C30.7596 19.9302 32.6413 19.3817 34.6508 19.3751L34.6623 19.375L34.6875 19.375C40.7282 19.375 45.625 24.2719 45.625 30.3125C45.625 30.4106 45.6238 30.5086 45.6212 30.6061L45.6202 30.6416C45.5658 32.4818 45.0569 34.208 44.2018 35.7116C44.1742 35.76 44.1463 35.8082 44.1181 35.8562C43.5887 36.7548 42.9345 37.5711 42.1794 38.2813C42.4577 37.3609 42.632 36.3954 42.6883 35.3982Z" fill="#FF653E"/>
<path fill-rule="evenodd" clip-rule="evenodd" d="M33.792 31.5277C33.392 30.3958 32.3126 29.5832 31.0415 29.5832V28.854H29.5832V29.5832C27.9724 29.5832 26.6665 30.889 26.6665 32.4998C26.6665 34.1106 27.9724 35.4165 29.5832 35.4165V38.3332C28.9493 38.3332 28.4082 37.9284 28.2076 37.361C28.0734 36.9813 27.6569 36.7823 27.2772 36.9165C26.8974 37.0507 26.6984 37.4673 26.8327 37.847C27.2327 38.9788 28.3121 39.7915 29.5832 39.7915V40.5207H31.0415V39.7915C32.6523 39.7915 33.9582 38.4856 33.9582 36.8748C33.9582 35.264 32.6523 33.9582 31.0415 33.9582V31.0415C31.6754 31.0415 32.2165 31.4463 32.4171 32.0136C32.5512 32.3934 32.9678 32.5924 33.3475 32.4581C33.7272 32.324 33.9262 31.9074 33.792 31.5277ZM29.5832 31.0415C28.7777 31.0415 28.1248 31.6944 28.1248 32.4998C28.1248 33.3053 28.7777 33.9582 29.5832 33.9582V31.0415ZM31.0415 38.3332C31.8469 38.3332 32.4998 37.6803 32.4998 36.8748C32.4998 36.0694 31.8469 35.4165 31.0415 35.4165V38.3332Z" fill="#FF653E"/>
<path fill-rule="evenodd" clip-rule="evenodd" d="M41.25 34.6875C41.25 40.7281 36.3531 45.625 30.3125 45.625C24.2719 45.625 19.375 40.7281 19.375 34.6875C19.375 28.6469 24.2719 23.75 30.3125 23.75C36.3531 23.75 41.25 28.6469 41.25 34.6875ZM39.7917 34.6875C39.7917 39.9227 35.5477 44.1667 30.3125 44.1667C25.0773 44.1667 20.8333 39.9227 20.8333 34.6875C20.8333 29.4523 25.0773 25.2083 30.3125 25.2083C35.5477 25.2083 39.7917 29.4523 39.7917 34.6875Z" fill="#FF653E"/>
</svg>
