<svg width="65" height="65" viewBox="0 0 65 65" fill="none" xmlns="http://www.w3.org/2000/svg">
<rect width="65" height="65" rx="18" fill="#FF653E" fill-opacity="0.1"/>
<g clip-path="url(#clip0_135_3771)">
<path d="M44.1391 22.7778H36.3613V24.7223H44.1391V45.1389H36.3613V47.0834H46.0836V24.7223C46.0836 24.2066 45.8787 23.712 45.514 23.3473C45.1494 22.9827 44.6548 22.7778 44.1391 22.7778Z" fill="#FF653E"/>
<path d="M33.3276 17.9165H19.9498C19.4031 17.9165 18.8789 18.1337 18.4924 18.5202C18.1058 18.9067 17.8887 19.431 17.8887 19.9776V47.0832H35.3887V19.9776C35.3887 19.431 35.1715 18.9067 34.785 18.5202C34.3985 18.1337 33.8742 17.9165 33.3276 17.9165ZM33.4442 45.1387H30.5276V42.2221H22.7498V45.1387H19.8331V19.9776C19.8331 19.9623 19.8361 19.9471 19.842 19.933C19.8479 19.9188 19.8565 19.906 19.8673 19.8951C19.8781 19.8843 19.891 19.8757 19.9051 19.8698C19.9193 19.864 19.9345 19.8609 19.9498 19.8609H33.3276C33.3429 19.8609 33.3581 19.864 33.3722 19.8698C33.3864 19.8757 33.3992 19.8843 33.4101 19.8951C33.4209 19.906 33.4295 19.9188 33.4353 19.933C33.4412 19.9471 33.4442 19.9623 33.4442 19.9776V45.1387Z" fill="#FF653E"/>
<path d="M23.7223 22.7778H21.7778V24.7223H23.7223V22.7778Z" fill="#FF653E"/>
<path d="M27.6109 22.7778H25.6665V24.7223H27.6109V22.7778Z" fill="#FF653E"/>
<path d="M31.5001 22.7778H29.5557V24.7223H31.5001V22.7778Z" fill="#FF653E"/>
<path d="M23.7223 27.6387H21.7778V29.5831H23.7223V27.6387Z" fill="#FF653E"/>
<path d="M27.6109 27.6387H25.6665V29.5831H27.6109V27.6387Z" fill="#FF653E"/>
<path d="M31.5001 27.6387H29.5557V29.5831H31.5001V27.6387Z" fill="#FF653E"/>
<path d="M23.7223 32.5H21.7778V34.4444H23.7223V32.5Z" fill="#FF653E"/>
<path d="M27.6109 32.5H25.6665V34.4444H27.6109V32.5Z" fill="#FF653E"/>
<path d="M31.5001 32.5H29.5557V34.4444H31.5001V32.5Z" fill="#FF653E"/>
<path d="M23.7223 37.3613H21.7778V39.3058H23.7223V37.3613Z" fill="#FF653E"/>
<path d="M27.6109 37.3613H25.6665V39.3058H27.6109V37.3613Z" fill="#FF653E"/>
<path d="M31.5001 37.3613H29.5557V39.3058H31.5001V37.3613Z" fill="#FF653E"/>
<path d="M38.3058 27.6387H36.3613V29.5831H38.3058V27.6387Z" fill="#FF653E"/>
<path d="M42.1944 27.6387H40.25V29.5831H42.1944V27.6387Z" fill="#FF653E"/>
<path d="M38.3058 32.5H36.3613V34.4444H38.3058V32.5Z" fill="#FF653E"/>
<path d="M42.1944 32.5H40.25V34.4444H42.1944V32.5Z" fill="#FF653E"/>
<path d="M38.3058 37.3613H36.3613V39.3058H38.3058V37.3613Z" fill="#FF653E"/>
<path d="M42.1944 37.3613H40.25V39.3058H42.1944V37.3613Z" fill="#FF653E"/>
</g>
<defs>
<clipPath id="clip0_135_3771">
<rect width="35" height="35" fill="white" transform="translate(14 15)"/>
</clipPath>
</defs>
</svg>
