<svg width="60" height="60" viewBox="0 0 60 60" fill="none" xmlns="http://www.w3.org/2000/svg">
<path d="M57.223 26.8875L54.0823 26.1969C53.4901 26.0672 53.0356 25.6016 52.9099 25.0083C52.4128 22.6593 51.5656 20.4404 50.4217 18.4093C50.142 17.9129 50.1597 17.3033 50.467 16.8234L52.3876 13.8251C52.7786 13.2149 52.692 12.415 52.1795 11.9025L48.9926 8.71535C48.4801 8.20289 47.6804 8.1164 47.0702 8.5071L44.3895 10.2235C43.8797 10.5499 43.2274 10.5456 42.7188 10.2166C40.748 8.94058 38.5733 7.95339 36.2541 7.31378C35.7036 7.16203 35.2827 6.718 35.1605 6.16019L34.4024 2.68945C34.2472 1.98152 33.62 1.46472 32.8955 1.46472H28.3879C27.6632 1.46472 27.0363 1.98152 26.8814 2.68945L26.1943 5.82843C26.0654 6.41753 25.6041 6.8782 25.0151 7.00628C22.673 7.51628 20.4623 8.3782 18.4398 9.53179C17.942 9.81539 17.329 9.80144 16.8463 9.49242L13.8191 7.5539C13.2089 7.16343 12.4088 7.25015 11.8965 7.76238L8.70915 10.9499C8.19669 11.4621 8.1102 12.2624 8.5009 12.8726L10.2741 15.6416C10.5988 16.1486 10.5963 16.7968 10.2722 17.3045C9.03282 19.2458 8.072 21.3818 7.44575 23.6566C7.29399 24.2078 6.8502 24.6294 6.29168 24.7521L2.68629 25.5402C1.97836 25.6956 1.46497 26.3225 1.46497 27.0471V31.5545C1.46497 32.2792 1.97836 32.906 2.68629 33.0614L5.98254 33.7828C6.57012 33.9117 7.02903 34.3711 7.15887 34.9583C7.66313 37.238 8.50172 39.3925 9.61735 41.3686C9.89813 41.8659 9.88313 42.4764 9.57504 42.9573L7.54805 46.1237C7.15711 46.7337 7.24395 47.5336 7.75641 48.0461L10.9438 51.2334C11.4563 51.7457 12.2561 51.8324 12.8663 51.4414L15.742 49.6001C16.2502 49.2746 16.8995 49.2783 17.4079 49.6039C19.3143 50.825 21.4092 51.7772 23.6397 52.4073C24.1867 52.5618 24.604 53.0038 24.7255 53.5585L25.5341 57.2263C25.6893 57.934 26.3162 58.4178 27.0408 58.4178H31.5484C32.2731 58.4178 32.8997 57.934 33.0551 57.2263L33.7804 53.928C33.9099 53.3373 34.3737 52.8844 34.9648 52.7571C37.2516 52.2653 39.4143 51.442 41.3993 50.3359C41.895 50.0594 42.5018 50.0778 42.9799 50.3841L46.1172 52.3936C46.7273 52.7845 47.5273 52.6979 48.0395 52.1857L51.2271 48.9983C51.7391 48.4861 51.8258 47.6861 51.4354 47.0759L49.6504 44.2891C49.3235 43.7783 49.3288 43.1245 49.659 42.6158C50.9167 40.6798 51.8952 38.5457 52.5388 36.2709C52.6937 35.7246 53.1357 35.3082 53.6898 35.1872L57.2227 34.4085C57.9306 34.2533 58.4176 33.6264 58.4176 32.9018V28.3942C58.418 27.6696 57.9309 27.0428 57.223 26.8875ZM29.8133 47.7639C20.1715 47.7639 12.3548 39.9473 12.3548 30.3054C12.3548 20.6634 20.1714 12.8469 29.8133 12.8469C39.4553 12.8469 47.2716 20.6634 47.2716 30.3054C47.2716 39.9473 39.4553 47.7639 29.8133 47.7639Z" fill="#037EEE"/>
<path d="M23.0527 27.8507C24.574 27.8507 25.8071 26.6173 25.8071 25.0963C25.8071 23.575 24.5742 22.3417 23.0527 22.3417C21.5316 22.3417 20.2983 23.5748 20.2983 25.0963C20.2983 26.6173 21.5315 27.8507 23.0527 27.8507Z" fill="#037EEE"/>
<path d="M37.0537 27.8507C38.575 27.8507 39.8081 26.6173 39.8081 25.0963C39.8081 23.575 38.5751 22.3417 37.0537 22.3417C35.5326 22.3417 34.2993 23.5748 34.2993 25.0963C34.2993 26.6173 35.5326 27.8507 37.0537 27.8507Z" fill="#037EEE"/>
<path d="M30.0427 29.6257C31.564 29.6257 32.7973 28.3924 32.7973 26.8711C32.7973 25.3497 31.564 24.1165 30.0427 24.1165C28.5214 24.1165 27.2881 25.3497 27.2881 26.8711C27.2881 28.3924 28.5214 29.6257 30.0427 29.6257Z" fill="#037EEE"/>
<path d="M29.9414 30.7177C26.9966 30.7177 24.668 33.1049 24.668 36.0494V37.1442C24.668 37.3573 24.8571 37.5586 25.0707 37.5586H34.9621C35.1751 37.5586 35.2148 37.3573 35.2148 37.1442V36.0494C35.2148 33.1049 32.8862 30.7177 29.9414 30.7177Z" fill="#037EEE"/>
<path d="M26.5546 30.3085C25.6157 29.4737 24.2934 28.954 22.9391 28.954C19.9938 28.954 17.5195 31.3315 17.5195 34.2739V35.368C17.5195 35.5818 17.8673 35.8007 18.0811 35.8007H23.3735C23.4905 33.3398 24.7305 31.4797 26.5546 30.3085Z" fill="#037EEE"/>
<path d="M37.0304 28.9427C35.67 28.9427 34.4326 29.4786 33.4924 30.3164C35.3091 31.4869 36.5422 33.34 36.6592 35.8009H41.9722C42.1858 35.8009 42.3633 35.582 42.3633 35.3683V34.2742C42.3633 32.8029 41.7654 31.4686 40.8007 30.5064C39.8356 29.5385 38.5042 28.9427 37.0304 28.9427Z" fill="#037EEE"/>
</svg>
