<svg width="18" height="22" viewBox="0 0 18 22" fill="none" xmlns="http://www.w3.org/2000/svg">
<path fill-rule="evenodd" clip-rule="evenodd" d="M5.85034 17.1944C6.26455 17.1944 6.60034 17.5301 6.60034 17.9444C6.60034 18.1176 6.64421 18.2965 6.73919 18.4732C6.83487 18.651 6.98286 18.8268 7.18656 18.9837C7.39036 19.1406 7.64186 19.2722 7.92996 19.3641C8.21786 19.456 8.53096 19.5045 8.84996 19.5045C9.16886 19.5045 9.48196 19.456 9.76986 19.3641C10.058 19.2722 10.3095 19.1406 10.5133 18.9837C10.717 18.8268 10.865 18.651 10.9607 18.4732C11.0557 18.2965 11.0995 18.1176 11.0995 17.9444C11.0995 17.5301 11.4353 17.1944 11.8495 17.1944C12.2637 17.1944 12.5995 17.5301 12.5995 17.9444C12.5995 18.3779 12.4882 18.7997 12.2817 19.1837C12.0759 19.5663 11.782 19.8999 11.4286 20.1721C11.0753 20.4441 10.6655 20.6529 10.2258 20.7932C9.78586 20.9335 9.31876 21.0045 8.84996 21.0045C8.38106 21.0045 7.91396 20.9335 7.47406 20.7932C7.03436 20.6529 6.62454 20.4441 6.27127 20.1721C5.91785 19.8999 5.62395 19.5663 5.41814 19.1837C5.21165 18.7997 5.10034 18.3779 5.10034 17.9444C5.10034 17.5301 5.43613 17.1944 5.85034 17.1944Z" fill="#FAFAFA"/>
<path fill-rule="evenodd" clip-rule="evenodd" d="M5.26623 0.870906C7.52417 -0.252714 10.17 -0.290934 12.4594 0.766986L12.664 0.861535C15.063 1.97007 16.5989 4.3718 16.5989 7.0145V8.32514C16.5989 9.37867 16.8285 10.4195 17.2717 11.3752L17.5364 11.946C18.752 14.5673 17.1689 17.6313 14.3275 18.1565L14.1673 18.1861C10.6522 18.8359 7.04767 18.8359 3.53251 18.1861C0.652866 17.6539 -0.870584 14.468 0.522876 11.8924L0.749286 11.4739C1.30817 10.4409 1.60083 9.28487 1.60083 8.11039V6.7891C1.60083 4.28073 3.02054 1.98844 5.26623 0.870906ZM11.8302 2.12864C9.95376 1.26155 7.78517 1.29288 5.93451 2.21382C4.19839 3.07777 3.10083 4.84991 3.10083 6.7891V8.11039C3.10083 9.53417 2.74606 10.9355 2.06858 12.1877L1.84218 12.6062C0.933316 14.286 1.92696 16.364 3.80514 16.7111C7.14007 17.3275 10.5598 17.3275 13.8947 16.7111L14.0549 16.6815C15.9327 16.3344 16.979 14.3094 16.1756 12.577L15.9109 12.0063C15.376 10.8528 15.0989 9.59657 15.0989 8.32513V7.0145C15.0989 4.95663 13.9029 3.08641 12.0348 2.22319L11.8302 2.12864Z" fill="#FAFAFA"/>
</svg>
