<svg width="32" height="33" viewBox="0 0 32 33" fill="none" xmlns="http://www.w3.org/2000/svg">
<rect x="0.5" y="0.5" width="31" height="31.6957" rx="9.5" fill="#037EEE" stroke="#037EEE"/>
<path fill-rule="evenodd" clip-rule="evenodd" d="M14.3048 10.4349C14.3287 10.4349 14.3527 10.4349 14.3767 10.4349C14.4007 10.4349 14.4247 10.4349 14.4487 10.4349C14.7336 10.4344 15.0138 10.4339 15.2633 10.5016C15.9302 10.6825 16.451 11.2099 16.6297 11.885C16.6965 12.1377 16.6961 12.4213 16.6956 12.7099C16.6956 12.7341 16.6955 12.7584 16.6955 12.7827H22.8791C23.306 12.7827 23.6521 13.1331 23.6521 13.5653C23.6521 13.9975 23.306 14.3479 22.8791 14.3479H16.6955C16.6955 14.3722 16.6956 14.3965 16.6956 14.4207C16.6961 14.7093 16.6965 14.9929 16.6297 15.2456C16.451 15.9207 15.9302 16.4481 15.2633 16.629C15.0138 16.6967 14.7336 16.6962 14.4487 16.6957C14.4247 16.6957 14.4007 16.6957 14.3767 16.6957C14.3527 16.6957 14.3287 16.6957 14.3047 16.6957C14.0197 16.6962 13.7396 16.6967 13.4901 16.629C12.8232 16.4481 12.3024 15.9207 12.1237 15.2456C12.0568 14.9929 12.0573 14.7093 12.0578 14.4207C12.0578 14.3965 12.0579 14.3722 12.0579 14.3479H10.512C10.0851 14.3479 9.73901 13.9975 9.73901 13.5653C9.73901 13.1331 10.0851 12.7827 10.512 12.7827H12.0579C12.0579 12.7584 12.0578 12.7341 12.0578 12.7099C12.0573 12.4213 12.0568 12.1377 12.1237 11.885C12.3024 11.2099 12.8232 10.6825 13.4901 10.5016C13.7396 10.4339 14.0197 10.4344 14.3048 10.4349ZM13.9891 12.0043C13.9067 12.0081 13.8873 12.0142 13.8902 12.0135C13.7568 12.0496 13.6527 12.1551 13.6169 12.2901C13.6163 12.2929 13.6112 12.3169 13.6079 12.3903C13.6039 12.478 13.6037 12.5937 13.6037 12.7827V14.3479C13.6037 14.5369 13.6039 14.6526 13.6079 14.7403C13.6116 14.8237 13.6177 14.8434 13.6169 14.8405C13.6527 14.9755 13.7568 15.081 13.8902 15.1171C13.8873 15.1164 13.9067 15.1225 13.9891 15.1263C14.0757 15.1303 14.19 15.1305 14.3767 15.1305C14.5634 15.1305 14.6777 15.1303 14.7643 15.1263C14.8466 15.1225 14.866 15.1164 14.8632 15.1171C14.9966 15.081 15.1007 14.9755 15.1365 14.8405C15.1357 14.8434 15.1418 14.8237 15.1455 14.7403C15.1495 14.6526 15.1496 14.5369 15.1496 14.3479V12.7827C15.1496 12.5937 15.1495 12.478 15.1455 12.3903C15.1418 12.3069 15.1357 12.2872 15.1365 12.2901M13.9891 12.0043C14.0757 12.0003 14.19 12.0001 14.3767 12.0001L13.9891 12.0043ZM14.3767 12.0001C14.5634 12.0001 14.6777 12.0003 14.7643 12.0043L14.3767 12.0001ZM14.7643 12.0043C14.8368 12.0077 14.8605 12.0128 14.8632 12.0135L14.7643 12.0043ZM18.9424 16.6956C18.9664 16.6957 18.9903 16.6957 19.0144 16.6957C19.0384 16.6957 19.0624 16.6957 19.0863 16.6956C19.3713 16.6951 19.6514 16.6946 19.9009 16.7623C20.5678 16.9433 21.0887 17.4706 21.2674 18.1458C21.3342 18.3984 21.3338 18.682 21.3333 18.9706C21.3333 18.9948 21.3332 19.0191 21.3332 19.0434H22.8791C23.306 19.0434 23.6521 19.3938 23.6521 19.826C23.6521 20.2582 23.306 20.6086 22.8791 20.6086H21.3332C21.3332 20.6329 21.3333 20.6572 21.3333 20.6815C21.3338 20.97 21.3342 21.2536 21.2674 21.5063C21.0887 22.1814 20.5678 22.7088 19.9009 22.8897C19.6514 22.9574 19.3713 22.9569 19.0863 22.9564C19.0624 22.9564 19.0384 22.9564 19.0144 22.9564C18.9903 22.9564 18.9664 22.9564 18.9424 22.9564C18.6574 22.9569 18.3773 22.9574 18.1278 22.8897C17.4609 22.7088 16.9401 22.1814 16.7614 21.5063C16.6945 21.2536 16.695 20.97 16.6955 20.6815C16.6955 20.6572 16.6955 20.6329 16.6955 20.6086H10.512C10.0851 20.6086 9.73901 20.2582 9.73901 19.826C9.73901 19.3938 10.0851 19.0434 10.512 19.0434H16.6955C16.6955 19.0192 16.6955 18.9948 16.6955 18.9706C16.695 18.682 16.6945 18.3984 16.7614 18.1458C16.9401 17.4706 17.4609 16.9433 18.1278 16.7623C18.3773 16.6946 18.6574 16.6951 18.9424 16.6956ZM18.6268 18.2651C18.5444 18.2688 18.525 18.2749 18.5279 18.2741C18.3945 18.3104 18.2904 18.4159 18.2546 18.5509C18.2553 18.548 18.2493 18.5676 18.2456 18.651C18.2416 18.7387 18.2414 18.8544 18.2414 19.0434V20.6086C18.2414 20.7977 18.2416 20.9133 18.2456 21.001C18.2493 21.0845 18.2553 21.1041 18.2546 21.1012C18.2904 21.2362 18.3945 21.3417 18.5279 21.3779C18.525 21.3771 18.5444 21.3832 18.6268 21.387C18.7134 21.391 18.8276 21.3912 19.0144 21.3912C19.2011 21.3912 19.3154 21.391 19.4019 21.387C19.4843 21.3832 19.5037 21.3771 19.5009 21.3779C19.6343 21.3417 19.7384 21.2362 19.7742 21.1012C19.7734 21.1041 19.7794 21.0845 19.7831 21.001C19.7872 20.9133 19.7873 20.7977 19.7873 20.6086V19.0434C19.7873 18.8544 19.7872 18.7387 19.7831 18.651C19.7794 18.5676 19.7734 18.548 19.7742 18.5509C19.7384 18.4159 19.6343 18.3104 19.5009 18.2741C19.5037 18.2749 19.4843 18.2688 19.4019 18.2651C19.3154 18.261 19.2011 18.2608 19.0144 18.2608C18.8276 18.2608 18.7134 18.261 18.6268 18.2651Z" fill="#FAFAFA"/>
</svg>
