<svg width="48" height="48" viewBox="0 0 48 48" fill="none" xmlns="http://www.w3.org/2000/svg">
<rect width="48" height="48" rx="8" fill="#004187"/>
<path fill-rule="evenodd" clip-rule="evenodd" d="M31 32V30.8293C32.1652 30.4175 33 29.3062 33 28C33 26.6938 32.1652 25.5825 31 25.1707V16C31 15.4477 30.5523 15 30 15C29.4477 15 29 15.4477 29 16V25.1707C27.8348 25.5825 27 26.6938 27 28C27 29.3062 27.8348 30.4175 29 30.8293V32C29 32.5523 29.4477 33 30 33C30.5523 33 31 32.5523 31 32ZM29 28C29 28.5523 29.4477 29 30 29C30.5523 29 31 28.5523 31 28C31 27.4477 30.5523 27 30 27C29.4477 27 29 27.4477 29 28Z" fill="#FF653E"/>
<path fill-rule="evenodd" clip-rule="evenodd" d="M24 15C24.5523 15 25 15.4477 25 16V17.1707C26.1652 17.5825 27 18.6938 27 20C27 21.3062 26.1652 22.4175 25 22.8293L25 32C25 32.5523 24.5523 33 24 33C23.4477 33 23 32.5523 23 32L23 22.8293C21.8348 22.4175 21 21.3062 21 20C21 18.6938 21.8348 17.5825 23 17.1707V16C23 15.4477 23.4477 15 24 15ZM23 20C23 20.5523 23.4477 21 24 21C24.5523 21 25 20.5523 25 20C25 19.4477 24.5523 19 24 19C23.4477 19 23 19.4477 23 20Z" fill="#FF653E"/>
<path fill-rule="evenodd" clip-rule="evenodd" d="M19 16C19 15.4477 18.5523 15 18 15C17.4477 15 17 15.4477 17 16V25.1707C15.8348 25.5825 15 26.6938 15 28C15 29.3062 15.8348 30.4175 17 30.8293V32C17 32.5523 17.4477 33 18 33C18.5523 33 19 32.5523 19 32V30.8293C20.1652 30.4175 21 29.3062 21 28C21 26.6938 20.1652 25.5825 19 25.1707V16ZM18 29C17.4477 29 17 28.5523 17 28C17 27.4477 17.4477 27 18 27C18.5523 27 19 27.4477 19 28C19 28.5523 18.5523 29 18 29Z" fill="#FF653E"/>
</svg>
