<svg width="25" height="24" viewBox="0 0 25 24" fill="none" xmlns="http://www.w3.org/2000/svg">
<g id="home_2">
<g id="home-2">
<path id="Vector" d="M20.5402 6.81994L14.7802 2.78994C13.2102 1.68994 10.8002 1.74994 9.29023 2.91994L4.28023 6.82994C3.28023 7.60994 2.49023 9.20994 2.49023 10.4699V17.3699C2.49023 19.9199 4.56023 21.9999 7.11023 21.9999H17.8902C20.4402 21.9999 22.5102 19.9299 22.5102 17.3799V10.5999C22.5102 9.24994 21.6402 7.58994 20.5402 6.81994ZM13.2502 17.9999C13.2502 18.4099 12.9102 18.7499 12.5002 18.7499C12.0902 18.7499 11.7502 18.4099 11.7502 17.9999V14.9999C11.7502 14.5899 12.0902 14.2499 12.5002 14.2499C12.9102 14.2499 13.2502 14.5899 13.2502 14.9999V17.9999Z" fill="#FF653E"/>
</g>
</g>
</svg>
