<svg width="100" height="107" viewBox="0 0 100 107" fill="none" xmlns="http://www.w3.org/2000/svg">
<path d="M55.6887 97.9707C52.2407 96.2405 50.8667 92.1272 50.3807 88.2958C50.2987 87.6597 50.1267 86.9982 50.3227 86.3875C50.5187 85.7769 51.1227 85.2786 51.7027 85.4503C52.1847 85.5924 52.4667 86.1055 52.7887 86.5105C53.217 87.0568 53.783 87.4628 54.4207 87.6809C54.8367 87.823 55.3307 87.8675 55.6727 87.5791C56.1407 87.1826 56.0727 86.4151 55.9767 85.7832C55.7807 84.6114 55.5887 83.4396 55.4007 82.2678C55.2652 81.6425 55.2254 80.9982 55.2827 80.3595C55.3707 79.7234 55.6927 79.0873 56.2327 78.8244C56.7727 78.5615 57.5307 78.7756 57.7487 79.3736C57.813 79.6307 57.8611 79.8921 57.8927 80.156C57.9507 80.4168 58.1127 80.686 58.3587 80.7178C58.6047 80.7496 58.8187 80.527 58.9687 80.3086C59.4807 79.5601 59.7687 78.6633 60.0287 77.7749C60.2887 76.8865 60.5327 75.9811 60.9807 75.1838C61.4287 74.3866 62.1127 73.6996 62.9587 73.4876C63.8047 73.2756 64.8047 73.6784 65.1587 74.5287C65.5127 75.3789 65.1707 76.3733 64.7587 77.1918C64.133 78.4037 63.3456 79.5134 62.4207 80.4867C62.2363 80.6425 62.1032 80.8563 62.0407 81.0974C61.9787 81.5426 62.4227 81.8946 62.8407 81.9624C63.3087 82.0388 63.7847 81.9031 64.2587 81.8776C64.7327 81.8522 65.2707 81.9794 65.5227 82.4141C65.8687 83.0162 65.4667 83.7859 65.0367 84.3223C64.1731 85.3911 63.1428 86.2947 61.9907 86.9939C61.5787 87.242 61.1407 87.4752 60.8387 87.8654C60.5367 88.2555 60.4147 88.8619 60.6987 89.269C60.9827 89.6761 61.5567 89.7206 62.0007 89.5468C62.4447 89.3729 62.8147 89.0358 63.2247 88.7835C63.9927 88.3085 65.0607 88.177 65.7067 88.8343C65.9082 89.0642 66.0566 89.3404 66.1403 89.6414C66.2239 89.9424 66.2405 90.2598 66.1887 90.5687C66.0823 91.1841 65.8599 91.7704 65.5347 92.2925C64.499 94.1801 63.0097 95.7428 61.2187 96.8215C59.4287 97.8605 57.6967 98.3672 55.6907 97.9728" fill="#F5F5F5"/>
<path d="M56.2344 95.4134C56.4996 93.2313 56.8829 91.0672 57.3824 88.9317L57.7664 87.2503C57.8924 86.6969 58.0184 86.1498 58.1664 85.624C58.4654 84.6148 58.8166 83.6239 59.2184 82.6556C59.5964 81.7269 59.9864 80.8576 60.3564 80.0498C60.7264 79.2419 61.0884 78.4956 61.4444 77.8319C62.0001 76.7793 62.6341 75.7753 63.3404 74.8296C63.5904 74.4946 63.7924 74.2423 63.9304 74.0726C63.9964 73.9921 64.0504 73.9284 64.0884 73.8797C64.1264 73.8309 64.1444 73.8161 64.1464 73.8182C64.1319 73.8426 64.1159 73.866 64.0984 73.8882L63.9464 74.0875C63.8144 74.2613 63.6184 74.5115 63.3744 74.8571C62.6835 75.8122 62.0611 76.8207 61.5124 77.8743C61.1624 78.5401 60.8064 79.2864 60.4384 80.0943C60.0704 80.9021 59.6864 81.7714 59.3124 82.7001C58.9141 83.6684 58.5669 84.6594 58.2724 85.6685C58.1184 86.1923 57.9944 86.7287 57.8724 87.2885L57.4884 88.972C56.99 91.1031 56.6048 93.2621 56.3344 95.4389" fill="#E0E0E0"/>
<path d="M58.1998 85.6155C58.1564 85.533 58.1222 85.4455 58.0978 85.3547C58.0378 85.1872 57.9598 84.9307 57.8678 84.6317C57.6838 84.0168 57.4558 83.1581 57.2078 82.2124C56.9598 81.2668 56.7218 80.4123 56.5278 79.8038C56.4318 79.4985 56.3518 79.2504 56.2958 79.0829C56.2622 78.9958 56.2361 78.9057 56.2178 78.8136C56.266 78.8927 56.3056 78.9773 56.3358 79.0659C56.4058 79.2292 56.4958 79.473 56.6018 79.7741C56.8158 80.3805 57.0658 81.2307 57.3158 82.1806C57.5658 83.1305 57.7758 83.9617 57.9438 84.6063C58.0218 84.8989 58.0858 85.1448 58.1438 85.342C58.17 85.4313 58.1887 85.5228 58.1998 85.6155Z" fill="#E0E0E0"/>
<path d="M65.6303 82.7192C65.5337 82.762 65.4331 82.794 65.3303 82.8146C65.1303 82.8677 64.8563 82.944 64.5123 83.05C63.8223 83.262 62.8803 83.5758 61.8543 83.9787C60.8283 84.3816 59.9143 84.7908 59.2543 85.1046C58.9263 85.2594 58.6643 85.3929 58.4823 85.4841C58.3908 85.5369 58.2951 85.5809 58.1963 85.6156C58.279 85.548 58.3682 85.4897 58.4623 85.4417C58.6383 85.3378 58.8963 85.1936 59.2203 85.0176C59.8663 84.6826 60.7783 84.2607 61.8063 83.8557C62.6837 83.5077 63.5776 83.2083 64.4843 82.9588C64.8323 82.8613 65.1163 82.7977 65.3143 82.7574C65.4183 82.7343 65.5241 82.7215 65.6303 82.7192Z" fill="#E0E0E0"/>
<path d="M56.3042 95.2502C56.2786 95.2225 56.2558 95.1919 56.2362 95.1591L56.0582 94.8898C55.9042 94.6523 55.6902 94.3067 55.4322 93.8742C54.9122 93.0091 54.2322 91.7899 53.4982 90.4329C52.7642 89.0759 52.0982 87.8525 51.5922 86.979L50.9922 85.9421L50.8322 85.6601C50.8111 85.6289 50.7943 85.5946 50.7822 85.5583C50.7822 85.5583 50.8082 85.5859 50.8502 85.6474C50.8922 85.7089 50.9582 85.8085 51.0282 85.9188C51.1822 86.1542 51.3962 86.4998 51.6562 86.9344C52.1742 87.7995 52.8562 89.0166 53.5902 90.3736C54.3242 91.7305 54.9902 92.954 55.4942 93.8296L56.0942 94.8644C56.1582 94.9767 56.2122 95.0764 56.2542 95.1463C56.2757 95.1781 56.2925 95.2132 56.3042 95.2502Z" fill="#E0E0E0"/>
<path d="M65.9399 89.9388C65.9117 89.9649 65.8801 89.9864 65.8459 90.0025L65.5679 90.1594L64.5359 90.7297C63.6639 91.2131 62.4679 91.8938 61.1479 92.638C59.8279 93.3822 58.6259 94.0628 57.7479 94.5251C57.3079 94.7562 56.9479 94.9491 56.6999 95.0615L56.3999 95.2014C56.367 95.2199 56.332 95.2342 56.2959 95.2438C56.3245 95.2184 56.3561 95.197 56.3899 95.1802L56.6699 95.0233L57.7019 94.4508C58.5719 93.9695 59.7679 93.2889 61.0879 92.5426C62.4079 91.7962 63.6119 91.1199 64.4879 90.6576C64.9279 90.4265 65.2879 90.2336 65.5359 90.1212L65.8239 89.9813C65.8603 89.9609 65.8994 89.9466 65.9399 89.9388Z" fill="#E0E0E0"/>
<path d="M30.6804 52.4583C30.6804 52.4583 28.3045 52.8082 29.6385 58.3252C30.9725 63.8422 32.1045 66.6876 32.1045 66.6876C32.1045 66.6876 32.2825 67.9365 31.3325 67.8983C30.3825 67.8602 28.4444 67.0502 27.7864 68.1295C27.1064 69.2575 27.7024 70.6144 29.1864 72.0372C30.6704 73.4599 33.8345 76.7018 34.1185 76.9965C34.4025 77.2913 34.6105 77.8977 33.9585 77.9804C33.3065 78.0631 28.6824 77.4885 28.5584 79.8314C28.4344 82.1743 33.2005 85.4141 33.7145 85.7788C34.2285 86.1435 34.3145 86.4276 34.1945 86.7457C34.0745 87.0637 32.5425 86.7139 31.2205 86.6057C29.8985 86.4976 28.3464 86.6227 28.3804 87.9797C28.4144 89.3367 30.9185 92.7716 38.2185 95.3244L41.6765 96.2722L44.2305 93.6049C49.3705 87.5429 49.9325 83.2451 49.3265 82.0492C48.7205 80.8534 47.3265 81.5637 46.2185 82.3524C45.1105 83.1412 43.9505 84.2607 43.7025 84.0487C43.4545 83.8366 43.3905 83.544 43.6665 82.9567C43.9425 82.3694 46.5605 77.0474 45.3525 75.0798C44.1445 73.1122 40.4005 76.0424 39.8005 76.3117C39.2005 76.581 39.0925 75.9406 39.2005 75.542C39.3085 75.1434 40.5285 70.6653 41.1565 68.6404C41.7845 66.6156 41.6645 65.1271 40.5445 64.508C39.4645 63.9122 38.1665 65.6423 37.3585 66.1766C36.5505 66.711 36.1225 65.5406 36.1225 65.5406C36.1225 65.5406 35.7705 62.4767 34.3425 56.9852C32.9145 51.4936 30.6364 52.4774 30.6364 52.4774" fill="#EBEBEB"/>
<path d="M41.6741 97.1839C40.6401 93.1553 38.9141 85.9463 37.4041 79.7571C35.8941 73.568 34.5221 67.9874 33.5061 63.9461C32.9981 61.9275 32.5861 60.2949 32.3061 59.1606C32.1661 58.5987 32.0561 58.1598 31.9801 57.8587L31.8961 57.5194C31.8781 57.4431 31.8721 57.4028 31.8721 57.4028C31.8721 57.4028 31.8861 57.4389 31.9081 57.5152C31.9301 57.5915 31.9601 57.7082 32.0001 57.8523C32.0821 58.1534 32.2001 58.5881 32.3481 59.1478C32.6481 60.2737 33.0721 61.9042 33.5881 63.9228C34.6221 67.9513 36.0081 73.551 37.5181 79.7275C39.0281 85.9039 40.7401 93.1193 41.7561 97.1606" fill="#E0E0E0"/>
<path d="M30.4541 69.389C30.534 69.424 30.6104 69.4673 30.6821 69.5184C30.8241 69.6074 31.0281 69.7431 31.2821 69.9128C31.7801 70.2541 32.4581 70.7439 33.1961 71.2973L35.0801 72.7222L35.6541 73.1462C35.7265 73.1939 35.7936 73.2501 35.8541 73.3137C35.7734 73.2792 35.6963 73.2358 35.6241 73.1844C35.4821 73.0953 35.2781 72.9596 35.0241 72.7879C34.5301 72.4423 33.8581 71.9398 33.1201 71.3885L31.2261 69.9785L30.6501 69.5544C30.5794 69.5069 30.5137 69.4514 30.4541 69.389Z" fill="#E0E0E0"/>
<path d="M36.1441 73.1376C36.1181 73.1206 37.0081 71.5962 38.1301 69.7324C39.2521 67.8687 40.1861 66.3717 40.2121 66.3887C40.2381 66.4057 39.3481 67.9323 38.2241 69.796C37.1001 71.6598 36.1701 73.1503 36.1441 73.1376Z" fill="#E0E0E0"/>
<path d="M38.0605 82.7384C38.1159 82.6651 38.1797 82.5996 38.2505 82.5433L38.7885 82.0429C39.2425 81.6188 39.8685 81.0336 40.5365 80.3594C41.2045 79.6851 41.7925 79.0554 42.2125 78.5953C42.4125 78.3833 42.5765 78.1945 42.7105 78.0504C42.7711 77.9793 42.8381 77.9147 42.9105 77.8574C42.8663 77.9385 42.8125 78.0133 42.7505 78.0801C42.6425 78.2179 42.4805 78.4129 42.2765 78.6504C41.8765 79.1275 41.2925 79.7699 40.6205 80.4442C39.9485 81.1184 39.3165 81.6994 38.8485 82.1065C38.6125 82.3185 38.4205 82.4712 38.2845 82.5793C38.2156 82.6409 38.1405 82.6943 38.0605 82.7384Z" fill="#E0E0E0"/>
<path d="M32.21 80.5481C32.2907 80.5583 32.3699 80.579 32.446 80.6096L33.08 80.8216C33.612 81.0018 34.346 81.2584 35.154 81.5468C35.962 81.8351 36.692 82.1065 37.218 82.3079L37.84 82.5497C37.9174 82.5753 37.9919 82.6102 38.062 82.6536C37.9812 82.6449 37.9018 82.6249 37.826 82.5942L37.192 82.3822C36.66 82.2019 35.926 81.9454 35.118 81.6549C34.31 81.3644 33.58 81.0951 33.054 80.8958L32.432 80.652C32.3539 80.6281 32.2792 80.5931 32.21 80.5481Z" fill="#E0E0E0"/>
<path d="M32.8867 89.252C32.9896 89.2683 33.0908 89.2952 33.1887 89.3325L34.0007 89.5954C34.6847 89.8223 35.6267 90.1425 36.6667 90.5051C37.7067 90.8676 38.6447 91.1984 39.3227 91.4465L40.1227 91.7433C40.2223 91.7771 40.3192 91.8189 40.4127 91.8684C40.3091 91.8523 40.2073 91.8253 40.1087 91.7878L39.2967 91.5249C38.6127 91.298 37.6707 90.9779 36.6307 90.6153C35.5907 90.2527 34.6527 89.9198 33.9767 89.6739L33.1767 89.3749C33.0768 89.3433 32.9797 89.3021 32.8867 89.252Z" fill="#E0E0E0"/>
<path d="M40.248 91.7518C40.3185 91.6601 40.3968 91.5757 40.482 91.4995L41.144 90.8401C41.702 90.2824 42.47 89.5085 43.296 88.6286C44.122 87.7487 44.852 86.9323 45.376 86.3387L45.996 85.6347C46.069 85.5448 46.1486 85.4611 46.234 85.3845C46.1758 85.4842 46.1088 85.5779 46.034 85.6644C45.898 85.8404 45.694 86.0885 45.434 86.3938C44.924 87.0044 44.204 87.8313 43.374 88.7113C42.544 89.5912 41.774 90.3587 41.198 90.9015C40.91 91.1708 40.676 91.3892 40.51 91.5376C40.4285 91.6166 40.3408 91.6882 40.248 91.7518Z" fill="#E0E0E0"/>
<path d="M20.3604 19.5576L18.4084 18.9215C18.4084 18.9215 17.8964 20.6602 16.1844 20.128C15.853 20.0312 15.5581 19.8276 15.3406 19.5454C15.1231 19.2631 14.9937 18.9162 14.9704 18.5526C14.9448 18.2459 14.9886 17.9373 15.0982 17.6522C15.2077 17.3671 15.3799 17.1139 15.6004 16.9136C16.1024 16.4429 16.9824 16.1566 18.2244 16.8373L19.5984 12.1726L17.6684 11.5365L16.8684 14.2696C16.8684 14.2696 13.9404 14.1148 13.0104 17.2762C12.1204 20.3018 14.4724 21.8518 15.5684 22.2143C16.4004 22.49 19.3224 23.2194 20.3604 19.5576Z" fill="#F5F5F5"/>
<path d="M17.9298 10.5656L19.8887 11.2136L20.4594 9.27458L18.5005 8.62658L17.9298 10.5656Z" fill="#F5F5F5"/>
<path d="M25.7458 14.2908L26.5278 14.0787C26.5039 13.9846 26.4981 13.8863 26.5108 13.7897C26.5235 13.6932 26.5543 13.6003 26.6015 13.5166C26.6487 13.433 26.7113 13.3602 26.7856 13.3027C26.8598 13.2452 26.9442 13.2041 27.0338 13.1818C27.1641 13.1401 27.3034 13.1424 27.4324 13.1884C27.5614 13.2344 27.6737 13.3217 27.7538 13.4384C27.8218 13.5353 27.8672 13.6478 27.8863 13.7668C27.9054 13.8859 27.8977 14.008 27.8638 14.1233C27.7898 14.3925 27.5518 14.6851 26.9998 14.7339L27.4658 16.6019L28.2378 16.3899L27.9658 15.2958C28.2585 15.1086 28.4851 14.8245 28.6105 14.4873C28.7359 14.1501 28.7532 13.7786 28.6598 13.4299C28.3598 12.2171 27.2598 12.2235 26.8258 12.3443C26.4898 12.427 25.3678 12.832 25.7458 14.2908Z" fill="#EBEBEB"/>
<path d="M28.5103 16.6623L27.7227 16.8861L27.9197 17.6656L28.7074 17.4418L28.5103 16.6623Z" fill="#EBEBEB"/>
<path d="M90.3086 35.7504L91.0686 36.0408C91.1005 35.9496 91.1493 35.8661 91.2121 35.7951C91.2749 35.7242 91.3504 35.6673 91.4343 35.6277C91.5182 35.5882 91.6086 35.5669 91.7004 35.565C91.7922 35.5631 91.8833 35.5807 91.9686 35.6168C92.0966 35.6604 92.2088 35.745 92.2897 35.8589C92.3706 35.9727 92.4163 36.1104 92.4206 36.2529C92.4253 36.3745 92.4027 36.4955 92.3548 36.6061C92.3068 36.7167 92.2348 36.8136 92.1446 36.889C91.9446 37.0649 91.5866 37.1604 91.1066 36.8678L90.4846 38.6849L91.2366 38.9732L91.6006 37.9131C91.9419 37.9355 92.2808 37.8385 92.5651 37.637C92.8495 37.4356 93.0636 37.1407 93.1746 36.7978C93.5746 35.6189 92.6726 34.9637 92.2466 34.8005C91.9206 34.6648 90.7806 34.3234 90.3086 35.7504Z" fill="#EBEBEB"/>
<path d="M91.1238 39.3415L90.3604 39.0483L90.1022 39.8039L90.8657 40.0971L91.1238 39.3415Z" fill="#EBEBEB"/>
<path d="M9.65222 44.9779L11.2522 44.3206C11.2522 44.3206 10.7322 42.8894 12.1262 42.2894C12.393 42.1697 12.6883 42.1407 12.9712 42.2064C13.2542 42.2721 13.511 42.4293 13.7062 42.6562C13.8723 42.8449 13.994 43.0724 14.0614 43.3204C14.1288 43.5684 14.1401 43.8297 14.0942 44.0831C13.9942 44.6726 13.5542 45.3553 12.3962 45.5907L13.7962 49.4348L15.3962 48.786L14.5762 46.5342C14.5762 46.5342 16.5762 45.0118 15.6382 42.4039C14.7282 39.9104 12.4002 40.1945 11.5062 40.5613C10.8162 40.8433 8.52823 41.9819 9.65222 44.9779Z" fill="#F5F5F5"/>
<path d="M15.6993 49.5684L14.085 50.2278L14.6659 51.8264L16.2803 51.1671L15.6993 49.5684Z" fill="#F5F5F5"/>
<path d="M90.9346 51.447L89.7946 51.9113C89.7946 51.9113 90.1626 52.9269 89.1746 53.351C88.9854 53.4348 88.7765 53.4549 88.5762 53.4087C88.3758 53.3624 88.1938 53.252 88.0546 53.0923C87.937 52.9586 87.8508 52.7972 87.8032 52.6215C87.7556 52.4457 87.7478 52.2605 87.7806 52.0809C87.8526 51.6569 88.1646 51.1819 88.9806 51.0208L88.0006 48.2877L86.8726 48.7478L87.4526 50.3444C87.0421 50.6773 86.7462 51.144 86.6103 51.6727C86.4744 52.2014 86.5061 52.7627 86.7006 53.2704C87.3426 55.0366 88.9866 54.8373 89.6266 54.5765C90.1106 54.3751 91.7306 53.5694 90.9346 51.447Z" fill="#F5F5F5"/>
<path d="M86.6489 48.194L87.793 47.7267L87.3817 46.595L86.2377 47.0622L86.6489 48.194Z" fill="#F5F5F5"/>
<path d="M94.1537 98.3332C94.1537 98.365 74.3837 98.3883 50.0017 98.3883C25.6197 98.3883 5.8457 98.365 5.8457 98.3332C5.8457 98.3014 25.6117 98.2781 50.0017 98.2781C74.3917 98.2781 94.1537 98.3035 94.1537 98.3332Z" fill="#263238"/>
<path d="M18.5283 92.8268C18.7283 92.0465 18.2343 91.2641 17.6943 90.7065C17.1543 90.1488 16.5083 89.6357 16.2263 88.8872C15.7703 87.6744 16.3823 86.1054 15.6063 85.094C15.1483 84.5003 14.3283 84.301 13.9223 83.6649C13.7346 83.3144 13.6105 82.9296 13.5563 82.5306C13.1248 80.5162 12.1901 78.6619 10.8503 77.162C10.76 78.9563 11.1268 80.7433 11.9123 82.3355C12.2263 82.9716 12.6143 83.5907 12.7123 84.301C12.8823 85.4524 12.2743 86.6334 12.5423 87.7699C12.8483 89.0632 14.2183 89.9304 14.2823 91.262C14.3383 92.3879 13.4123 93.3823 13.4823 94.5018C13.5384 94.9812 13.7024 95.4394 13.9603 95.8376C14.7803 97.2858 15.9883 98.2823 17.8163 98.2505L20.0563 98.3332L18.5283 92.8268Z" fill="#037EEE"/>
<g opacity="0.3">
<path d="M18.5283 92.8268C18.7283 92.0465 18.2343 91.2641 17.6943 90.7065C17.1543 90.1488 16.5083 89.6357 16.2263 88.8872C15.7703 87.6744 16.3823 86.1054 15.6063 85.094C15.1483 84.5003 14.3283 84.301 13.9223 83.6649C13.7346 83.3144 13.6105 82.9296 13.5563 82.5306C13.1248 80.5162 12.1901 78.6619 10.8503 77.162C10.76 78.9563 11.1268 80.7433 11.9123 82.3355C12.2263 82.9716 12.6143 83.5907 12.7123 84.301C12.8823 85.4524 12.2743 86.6334 12.5423 87.7699C12.8483 89.0632 14.2183 89.9304 14.2823 91.262C14.3383 92.3879 13.4123 93.3823 13.4823 94.5018C13.5384 94.9812 13.7024 95.4394 13.9603 95.8376C14.7803 97.2858 15.9883 98.2823 17.8163 98.2505L20.0563 98.3332L18.5283 92.8268Z" fill="#037EEE"/>
</g>
<path d="M20.508 98.382C20.7132 98.4155 20.9223 98.4112 21.126 98.3693C21.3734 98.3294 21.6166 98.264 21.852 98.1742C22.1772 98.0543 22.4813 97.8781 22.752 97.6526C22.9149 97.5137 23.0422 97.3336 23.122 97.1289C23.1889 96.8994 23.224 96.6609 23.226 96.4207C23.2305 96.164 23.2486 95.9077 23.28 95.6531C23.3222 95.3821 23.4146 95.1227 23.552 94.8898C23.816 94.3979 24.256 93.9315 24.396 93.2636C24.536 92.5957 24.44 91.896 24.336 91.1835C24.232 90.4711 24.136 89.6993 24.388 88.953C24.64 88.2066 25.12 87.5388 25.366 86.7034C25.612 85.868 25.496 84.9477 25.548 84.0509C25.5634 83.5953 25.6626 83.1473 25.84 82.732C26.02 82.308 26.272 81.9157 26.468 81.4747C26.868 80.5799 26.936 79.5664 27.044 78.572C27.098 78.0716 27.15 77.5648 27.204 77.056C27.2381 76.5415 27.3218 76.0321 27.454 75.5357C27.6058 75.0354 27.7847 74.5448 27.99 74.0663C28.0958 73.8189 28.1827 73.563 28.25 73.3009C28.2877 73.0297 28.3117 72.7565 28.322 72.4825C28.3459 71.9339 28.3258 71.3842 28.262 70.8392C28.202 70.2922 28.108 69.7494 28.052 69.2003C28.052 69.1663 28.052 69.1345 28.052 69.1048L28.04 68.9967L27.95 69.0434C27.4771 69.3006 27.0665 69.6699 26.75 70.1226C26.4396 70.5659 26.1898 71.0534 26.008 71.5707C25.634 72.5906 25.5 73.6592 25.312 74.6791C25.124 75.699 24.884 76.7019 24.392 77.55C24.146 77.9741 23.848 78.36 23.592 78.7713C23.314 79.1727 23.1241 79.6349 23.036 80.1241C22.902 81.1291 23.424 82.0111 23.316 82.9016C23.2673 83.3379 23.1309 83.7579 22.916 84.1335C22.716 84.5131 22.474 84.865 22.246 85.217C22.0149 85.5623 21.8141 85.9292 21.646 86.3132C21.4878 86.6891 21.3944 87.0919 21.37 87.5027C21.316 88.3042 21.422 89.0632 21.37 89.7799C21.3076 90.463 21.1194 91.1264 20.816 91.7327C20.546 92.3158 20.244 92.8437 19.992 93.3569C19.866 93.6113 19.748 93.8615 19.652 94.1138C19.5612 94.356 19.4942 94.6076 19.452 94.8644C19.3851 95.3128 19.3797 95.7692 19.436 96.2193C19.4948 96.8469 19.7163 97.445 20.076 97.9473C20.131 98.0232 20.1919 98.0942 20.258 98.1593C20.3022 98.2085 20.3511 98.2526 20.404 98.2908C20.488 98.3565 20.532 98.3862 20.532 98.3862C20.3722 98.2523 20.2266 98.1001 20.098 97.9325C19.7547 97.4284 19.5472 96.8346 19.498 96.215C19.4471 95.7706 19.4565 95.3208 19.526 94.8792C19.5681 94.6286 19.6352 94.3834 19.726 94.1477C19.8274 93.8927 19.9415 93.6435 20.068 93.4014C20.322 92.8925 20.626 92.3667 20.902 91.7794C21.2144 91.1636 21.4088 90.4884 21.474 89.7926C21.534 89.0611 21.43 88.2978 21.486 87.5175C21.5118 87.12 21.6032 86.7303 21.756 86.3662C21.9251 85.9902 22.126 85.6311 22.356 85.2933C22.584 84.9414 22.826 84.5894 23.034 84.2014C23.2623 83.8115 23.4083 83.3739 23.462 82.9186C23.57 81.9708 23.052 81.0846 23.186 80.1495C23.2737 79.6817 23.4574 79.2402 23.724 78.8561C23.978 78.4511 24.278 78.0652 24.524 77.6306C25.034 76.7591 25.28 75.7371 25.466 74.713C25.652 73.6889 25.79 72.6288 26.158 71.628C26.335 71.125 26.5781 70.6511 26.88 70.2201C27.1845 69.7857 27.5794 69.4316 28.034 69.1854L27.932 69.1239C27.932 69.1557 27.932 69.1875 27.942 69.2215C27.998 69.777 28.092 70.3198 28.142 70.8626C28.2052 71.3991 28.2246 71.9403 28.2 72.4804C28.1899 72.7457 28.1672 73.0104 28.132 73.2734C28.0674 73.5269 27.9831 73.7745 27.88 74.0133C27.6736 74.4968 27.4934 74.9924 27.34 75.4976C27.2067 76.0017 27.1223 76.5189 27.088 77.0411C27.036 77.5521 26.982 78.0589 26.93 78.5593C26.822 79.5579 26.752 80.5545 26.37 81.4174C26.17 81.8415 25.93 82.2465 25.744 82.679C25.561 83.1098 25.4591 83.5744 25.444 84.0466C25.394 84.9626 25.506 85.8595 25.272 86.6694C25.038 87.4794 24.552 88.1536 24.306 88.9191C24.06 89.6845 24.15 90.4944 24.258 91.2048C24.366 91.9151 24.474 92.6148 24.33 93.2445C24.186 93.8742 23.774 94.3449 23.506 94.8496C23.3647 95.0925 23.2702 95.3628 23.228 95.6447C23.1978 95.9021 23.1818 96.1613 23.18 96.4207C23.1804 96.6549 23.148 96.8878 23.084 97.1119C23.0099 97.3061 22.891 97.4775 22.738 97.6102C22.4746 97.8354 22.1779 98.013 21.86 98.136C21.6277 98.231 21.3872 98.302 21.142 98.3481C20.9922 98.3769 20.8403 98.3925 20.688 98.3947C20.562 98.382 20.508 98.382 20.508 98.382Z" fill="#263238"/>
<path d="M27.5843 70.4152C27.5736 70.4379 27.5662 70.4622 27.5623 70.4873L27.5143 70.6993C27.4703 70.888 27.4163 71.17 27.3323 71.522C27.2483 71.8739 27.0423 72.2725 26.8683 72.7623C26.6645 73.3137 26.4869 73.8756 26.3363 74.4459C26.1643 75.0819 26.0143 75.7816 25.8543 76.5365C25.7183 77.3405 25.4773 78.1205 25.1383 78.854C24.9543 79.2399 24.7383 79.63 24.5843 80.0583C24.4228 80.4957 24.3146 80.9531 24.2623 81.4195C24.1485 82.3855 23.9869 83.3445 23.7783 84.2925C23.3303 86.2369 22.9023 88.09 22.5123 89.7778C22.1223 91.4655 21.7543 92.9752 21.4503 94.2516C21.1463 95.528 20.9163 96.5458 20.7483 97.273C20.6703 97.6208 20.6083 97.8943 20.5643 98.0957C20.5463 98.1826 20.5303 98.2526 20.5183 98.3077C20.516 98.3324 20.516 98.3573 20.5183 98.3819C20.5299 98.36 20.5386 98.3364 20.5443 98.312C20.5583 98.2547 20.5783 98.1869 20.6023 98.1C20.6523 97.9028 20.7223 97.6292 20.8123 97.2836C20.9923 96.5627 21.2463 95.5386 21.5603 94.277C21.8743 93.0155 22.2403 91.4888 22.6503 89.8117C23.0603 88.1345 23.4763 86.2687 23.9283 84.3222C24.1356 83.3717 24.2932 82.4097 24.4003 81.4407C24.4514 80.9855 24.5562 80.5389 24.7123 80.1113C24.8703 79.6872 25.0723 79.3077 25.2563 78.9176C25.6563 78.1437 25.8143 77.3125 25.9723 76.564C26.1303 75.8156 26.2703 75.1074 26.4343 74.4755C26.5983 73.8437 26.7703 73.2797 26.9423 72.792C27.1143 72.3043 27.3043 71.9015 27.3863 71.5368C27.4683 71.1721 27.5063 70.9007 27.5423 70.7056C27.5556 70.618 27.5676 70.5473 27.5783 70.4936C27.5843 70.4406 27.5883 70.4152 27.5843 70.4152Z" fill="#263238"/>
<path d="M20.9046 98.3926C22.3666 97.4703 22.7866 94.6715 22.1766 92.988C21.5666 91.3044 20.4986 89.7651 20.3346 87.9692C20.2066 86.5889 20.6346 85.1725 20.3346 83.824C19.9246 82.0027 18.2486 80.5927 18.2686 78.7204C18.2786 77.6709 18.8426 76.6828 18.7966 75.6333C18.7426 74.3484 17.8106 73.3264 17.2346 72.1941C16.3506 70.4576 16.2926 68.4073 15.9906 66.4693C15.6886 64.5314 14.9906 62.4408 13.3626 61.4845C13.1226 63.1362 12.7126 64.2685 12.8406 66.5054C12.8886 67.309 13.7686 68.8377 13.8886 70.6082C13.9606 71.6683 14.0086 72.7157 14.0706 73.7674C14.1326 74.8191 14.1926 75.8368 14.5386 76.7952C14.8046 77.5309 15.2306 78.1988 15.4286 78.9579C15.7986 80.3849 15.3106 81.9263 15.6106 83.3766C15.8646 84.6022 16.6646 85.6559 16.8286 86.8984C17.0566 88.6434 15.9926 90.4584 16.5366 92.1229C16.8086 92.9498 17.4486 93.6071 17.6306 94.4658C17.7726 95.1273 17.6186 95.8292 17.7466 96.4928C17.9466 97.5657 19.8786 98.4011 20.9086 98.3311" fill="#037EEE"/>
<path d="M13.7628 63.115C13.7601 63.146 13.7601 63.1772 13.7628 63.2083C13.7628 63.2782 13.7828 63.3673 13.7948 63.4797C13.8288 63.7193 13.8668 64.0691 13.9428 64.5229C14.0188 64.9766 14.2468 65.4897 14.4228 66.1089C14.5988 66.728 14.7948 67.4362 14.9588 68.2292C15.1228 69.0221 15.2668 69.9063 15.4128 70.8541C15.5588 71.8019 15.7188 72.8344 16.1628 73.8225C16.3628 74.3165 16.5988 74.8127 16.7628 75.3428C16.9308 75.8853 17.0343 76.448 17.0708 77.0178C17.1526 78.2266 17.2961 79.4299 17.5008 80.6223C17.9488 83.0691 18.3748 85.3993 18.7628 87.5217C19.1508 89.6442 19.5408 91.5376 19.8528 93.1405C20.1648 94.7435 20.4208 96.0242 20.5988 96.9274L20.7988 97.9557C20.8228 98.066 20.8408 98.1529 20.8568 98.2208C20.8622 98.2519 20.8702 98.2824 20.8808 98.312C20.8843 98.281 20.8843 98.2496 20.8808 98.2187C20.8688 98.1487 20.8548 98.0618 20.8368 97.9494C20.7928 97.7034 20.7308 97.3557 20.6528 96.9147C20.4848 96.0093 20.2528 94.7159 19.9508 93.1193C19.6488 91.5228 19.2908 89.6081 18.8928 87.4942C18.4948 85.3802 18.0928 83.0416 17.6428 80.5969C17.438 79.4044 17.2938 78.2012 17.2108 76.9923C17.1727 76.4108 17.0659 75.8367 16.8928 75.2834C16.7148 74.7448 16.4808 74.2466 16.2748 73.7546C15.8348 72.7814 15.6748 71.7658 15.5228 70.8223C15.3708 69.8787 15.2248 68.9925 15.0508 68.1952C14.8768 67.398 14.6868 66.6856 14.4908 66.0749C14.2948 65.4643 14.0768 64.9469 13.9888 64.5038C13.9008 64.0606 13.8588 63.7044 13.8168 63.4691C13.7968 63.3588 13.7808 63.2698 13.7688 63.1998C13.7684 63.1714 13.7664 63.1431 13.7628 63.115Z" fill="#263238"/>
<path d="M84.2938 18.8219H83.4938C83.4943 18.9181 83.4767 19.0134 83.4418 19.1022C83.407 19.1911 83.3557 19.2716 83.291 19.339C83.2263 19.4064 83.1494 19.4594 83.0651 19.4948C82.9807 19.5301 82.8905 19.5472 82.7998 19.5449C82.6658 19.55 82.5337 19.5107 82.4218 19.4324C82.31 19.3541 82.224 19.2407 82.1758 19.1081C82.1336 18.9977 82.1167 18.8783 82.1265 18.7596C82.1362 18.641 82.1723 18.5264 82.2318 18.4254C82.3678 18.1879 82.6638 17.9738 83.1998 18.0734V16.1652H82.4138V17.2804C82.0912 17.3811 81.8087 17.5912 81.6097 17.8784C81.4106 18.1657 81.3059 18.5143 81.3118 18.8707C81.3118 20.1047 82.3558 20.3909 82.8038 20.3909C83.1457 20.3994 84.3098 20.3125 84.2938 18.8219Z" fill="#037EEE"/>
<path d="M82.4081 15.7793H83.2061V14.9884H82.4081V15.7793Z" fill="#037EEE"/>
<path d="M88.6557 17.6939C88.6583 17.6579 88.6583 17.6218 88.6557 17.5858C88.6557 17.5094 88.6557 17.4055 88.6557 17.272C88.6557 17.2041 88.6557 17.1257 88.6457 17.0408C88.6357 16.956 88.6237 16.8627 88.6097 16.7652C88.5957 16.6677 88.5817 16.5532 88.5657 16.4408L88.4817 16.0804C88.3331 15.4596 88.0899 14.8687 87.7617 14.3311C87.2851 13.5349 86.6426 12.8651 85.8836 12.3733C85.1247 11.8815 84.2694 11.5807 83.3837 11.4941C83.1177 11.4692 82.8504 11.4636 82.5837 11.4772C82.4497 11.4772 82.3117 11.4772 82.1837 11.5047L81.7717 11.5705C81.2064 11.6819 80.6593 11.8797 80.1477 12.1578C79.6135 12.4575 79.1225 12.8366 78.6897 13.2837C78.2465 13.7599 77.876 14.3064 77.5917 14.9036C77.2857 15.5193 77.0853 16.1876 76.9997 16.8776C76.9747 17.0524 76.9607 17.2288 76.9577 17.4055C76.9443 17.5826 76.941 17.7603 76.9477 17.9377C76.9912 19.0752 77.3266 20.1785 77.9177 21.1288V21.0631C77.6397 21.7988 77.3657 22.5218 77.0977 23.2258L77.0497 23.3551L77.1757 23.3169L79.3557 22.6809L79.3037 22.6681C80.0379 23.2574 80.8932 23.6541 81.7997 23.8258C82.2202 23.9089 82.6488 23.9367 83.0757 23.9085C83.2816 23.9053 83.4869 23.8847 83.6897 23.847L83.9877 23.7982C84.0857 23.7792 84.1877 23.7474 84.2757 23.724C85.6191 23.3631 86.7974 22.507 87.5997 21.309C87.8989 20.8677 88.1392 20.3846 88.3137 19.8736C88.3517 19.7612 88.3877 19.6615 88.4217 19.5513C88.4557 19.441 88.4737 19.3393 88.4957 19.2438C88.5177 19.1484 88.5417 19.0509 88.5617 18.9618C88.5817 18.8728 88.5877 18.7859 88.5997 18.7032C88.6177 18.5399 88.6457 18.3957 88.6517 18.2791C88.6577 18.1625 88.6517 18.0501 88.6517 17.9611C88.6517 17.872 88.6517 17.8169 88.6517 17.7681C88.6517 17.7193 88.6517 17.7024 88.6517 17.7024C88.6486 17.7242 88.6486 17.7463 88.6517 17.7681C88.6517 17.8169 88.6517 17.8805 88.6377 17.9611C88.6237 18.0416 88.6257 18.154 88.6177 18.277C88.6097 18.4 88.5797 18.5441 88.5557 18.701C88.3649 19.8745 87.8568 20.9641 87.0932 21.8373C86.3295 22.7105 85.343 23.3299 84.2537 23.6201C84.1597 23.6435 84.0657 23.6732 83.9697 23.6922L83.6757 23.7389C83.4773 23.774 83.2768 23.7931 83.0757 23.7961C82.6566 23.8195 82.2363 23.7904 81.8237 23.7092C80.9384 23.5365 80.1034 23.1465 79.3857 22.5706L79.3617 22.5494H79.3317L77.1497 23.1855L77.2257 23.2767L78.0477 21.1161L78.0597 21.0821L78.0417 21.0503C77.6478 20.4187 77.3684 19.7147 77.2177 18.9746C77.1486 18.6312 77.1071 18.2822 77.0937 17.9314C77.087 17.7582 77.0903 17.5847 77.1037 17.4119C77.1049 17.2393 77.1183 17.0671 77.1437 16.8967C77.2205 16.2229 77.4094 15.5689 77.7017 14.9651C77.9796 14.3814 78.3405 13.8465 78.7717 13.3791C79.1952 12.9402 79.6762 12.5681 80.1997 12.2744C80.6999 11.9986 81.2356 11.8021 81.7897 11.6913L82.1897 11.6256C82.3237 11.6044 82.4577 11.6065 82.5897 11.5959C82.8504 11.5828 83.1116 11.5877 83.3717 11.6108C84.2429 11.6916 85.0853 11.9819 85.8349 12.4595C86.5844 12.9371 87.2215 13.5895 87.6977 14.3672C88.0277 14.8954 88.2749 15.4768 88.4297 16.0888L88.5197 16.445C88.5377 16.5574 88.5537 16.6571 88.5697 16.7631C88.5857 16.8691 88.5977 16.9539 88.6117 17.0387C88.6257 17.1235 88.6217 17.1999 88.6277 17.2677C88.6277 17.3992 88.6437 17.5031 88.6497 17.5794C88.6459 17.6177 88.6479 17.6563 88.6557 17.6939Z" fill="#263238"/>
<path d="M29.0133 42.6986H40.5633C40.5633 42.6986 40.5633 32.4173 50.6413 32.2349C55.8753 32.1374 58.5893 35.7737 59.6933 38.5577C60.9733 41.7911 60.5853 45.4762 58.8693 48.4764C56.9113 51.9007 52.6913 55.342 44.9073 53.8875L44.8333 81.1694H56.2553V64.9957C56.2553 64.9957 72.2733 60.6067 72.2733 41.8844C72.2733 23.9785 58.6153 20.1111 51.2733 19.8609C47.1893 19.7231 45.7093 19.5365 40.6573 20.2977C34.2193 21.273 28.8773 29.1987 29.0133 42.6986Z" fill="#64B5FF"/>
<path d="M56.3938 86.856H44.8018V98.3331H56.3938V86.856Z" fill="#64B5FF"/>
<path opacity="0.1" d="M56.3938 86.856H44.8018V98.3331H56.3938V86.856Z" fill="black"/>
<path opacity="0.1" d="M29.0133 42.6986H40.5633C40.5633 42.6986 40.5633 32.4173 50.6413 32.2349C55.8753 32.1374 58.5893 35.7737 59.6933 38.5577C60.9733 41.7911 60.5853 45.4762 58.8693 48.4764C56.9113 51.9007 52.6913 55.342 44.9073 53.8875L44.8333 81.1694H56.2553V64.9957C56.2553 64.9957 72.2733 60.6067 72.2733 41.8844C72.2733 23.9785 58.6153 20.1111 51.2733 19.8609C47.1893 19.7231 45.7093 19.5365 40.6573 20.2977C34.2193 21.273 28.8773 29.1987 29.0133 42.6986Z" fill="#037EEE"/>
<path d="M24.2277 42.6986H35.7797C35.7797 42.6986 35.7797 32.4173 45.8577 32.2349C51.0917 32.1374 53.8057 35.7737 54.9077 38.5577C56.1897 41.7911 55.8017 45.4762 54.0857 48.4764C52.1277 51.9007 47.8337 55.0133 40.0497 53.5652V81.1694H51.4717V64.9957C51.4717 64.9957 67.4897 60.6067 67.4897 41.8844C67.4897 23.9785 52.3417 19.8206 45.8597 19.8206C40.9017 19.8269 24.0097 21.097 24.2277 42.6986Z" fill="#64B5FF"/>
<path opacity="0.3" d="M24.2277 42.6986H35.7797C35.7797 42.6986 35.7797 32.4173 45.8577 32.2349C51.0917 32.1374 53.8057 35.7737 54.9077 38.5577C56.1897 41.7911 55.8017 45.4762 54.0857 48.4764C52.1277 51.9007 47.8337 55.0133 40.0497 53.5652V81.1694H51.4717V64.9957C51.4717 64.9957 67.4897 60.6067 67.4897 41.8844C67.4897 23.9785 52.3417 19.8206 45.8597 19.8206C40.9017 19.8269 24.0097 21.097 24.2277 42.6986Z" fill="#037EEE"/>
<path d="M51.6096 86.856H40.0176V98.3331H51.6096V86.856Z" fill="#64B5FF"/>
<path opacity="0.3" d="M51.6096 86.856H40.0176V98.3331H51.6096V86.856Z" fill="#037EEE"/>
<path d="M47.1618 32.2901C47.1046 32.2953 47.047 32.2953 46.9898 32.2901C46.8758 32.2901 46.7118 32.2498 46.4978 32.2476C45.8927 32.2161 45.2862 32.2431 44.6858 32.3282C43.7954 32.4477 42.9193 32.6659 42.0718 32.9791C41.5722 33.1643 41.0856 33.3868 40.6158 33.6449C40.1079 33.914 39.6297 34.2418 39.1898 34.6224C38.7529 35.0064 38.3614 35.4449 38.0238 35.9285C37.7037 36.3755 37.4118 36.8444 37.1498 37.3321C36.7124 38.1627 36.3655 39.0434 36.1158 39.9571C35.9465 40.5737 35.83 41.2053 35.7678 41.8441C35.7438 42.0689 35.7378 42.247 35.7318 42.3657C35.7319 42.4269 35.7266 42.488 35.7158 42.5481C35.7106 42.4874 35.7106 42.4264 35.7158 42.3657C35.7158 42.2449 35.7158 42.0668 35.7338 41.8399C35.7798 41.1942 35.8863 40.5549 36.0518 39.9316C36.2923 39.0074 36.6347 38.1164 37.0718 37.277C37.3343 36.784 37.6276 36.3101 37.9498 35.8585C38.2903 35.3671 38.6866 34.922 39.1298 34.5333C39.575 34.1475 40.0593 33.8154 40.5738 33.5432C41.0466 33.2802 41.5365 33.0535 42.0398 32.8647C42.895 32.5526 43.7794 32.3393 44.6778 32.2286C45.2822 32.1498 45.8926 32.1349 46.4998 32.184C46.6648 32.1952 46.8291 32.2165 46.9918 32.2476C47.0493 32.2575 47.1061 32.2717 47.1618 32.2901Z" fill="#263238"/>
<path d="M64.5656 30.1082C64.5656 30.1082 64.5517 30.0934 64.5277 30.0616C64.5037 30.0298 64.4677 29.9747 64.4277 29.9132L64.0457 29.3407C63.9637 29.2177 63.8756 29.0757 63.7716 28.9294L63.4116 28.465L62.9996 27.9286C62.8496 27.742 62.6736 27.5618 62.4976 27.3646C62.3216 27.1674 62.1417 26.9575 61.9377 26.7561C61.7337 26.5546 61.5156 26.349 61.2916 26.1369C61.1796 26.0309 61.0697 25.9249 60.9497 25.8125L60.5777 25.5008C60.3237 25.2888 60.0717 25.0768 59.7977 24.8647C58.6034 23.9589 57.3365 23.1657 56.0117 22.4942L54.9577 21.9896L53.9117 21.5656C53.5697 21.415 53.2217 21.309 52.8857 21.1903C52.5497 21.0715 52.2217 20.9507 51.8857 20.868L50.9297 20.6029C50.6197 20.516 50.3117 20.463 50.0177 20.3909C49.7237 20.3188 49.4397 20.2552 49.1617 20.2192L48.3617 20.0962C47.8557 20.005 47.3917 19.9859 46.9877 19.9435C46.7877 19.9266 46.5877 19.9032 46.4217 19.8948L45.9457 19.882L45.2857 19.8587H45.1137H45.0557C45.0749 19.8555 45.0944 19.8555 45.1137 19.8587H45.2857H45.9457H46.4237C46.5977 19.8587 46.7877 19.8842 46.9917 19.899C47.3917 19.935 47.8637 19.9499 48.3697 20.0368L49.1697 20.1513C49.4477 20.1852 49.7317 20.2616 50.0277 20.3188C50.3237 20.3761 50.6277 20.4354 50.9457 20.5308L51.9057 20.7938C52.2377 20.8743 52.5657 21.0058 52.9057 21.1139C53.2457 21.2221 53.5917 21.326 53.9337 21.4871L54.9857 21.9112L56.0457 22.4179C57.3775 23.0909 58.6493 23.8899 59.8457 24.8054C60.1217 25.0174 60.3737 25.2443 60.6277 25.4542L60.9997 25.7404C61.1197 25.8464 61.2297 25.9525 61.3417 26.067L61.9856 26.703C62.1856 26.9151 62.3657 27.1271 62.5436 27.3201C62.7217 27.513 62.8916 27.7017 63.0416 27.8904L63.4416 28.4311L63.7976 28.9018C63.8996 29.0502 63.9856 29.1944 64.0656 29.3259C64.2216 29.5739 64.3436 29.769 64.4296 29.9089L64.5236 30.0637C64.5394 30.0766 64.5535 30.0915 64.5656 30.1082Z" fill="#263238"/>
<path d="M63.3617 56.3999C63.3379 56.4458 63.309 56.4885 63.2757 56.5271L62.9997 56.8727C62.8857 57.0275 62.7417 57.212 62.5637 57.4176C62.3857 57.6233 62.1957 57.865 61.9637 58.1152C61.7317 58.3654 61.4837 58.6453 61.2017 58.9273C60.9197 59.2093 60.6137 59.5061 60.2877 59.8157C58.8578 61.1388 57.2904 62.2848 55.6157 63.2315C55.2277 63.4435 54.8617 63.6556 54.5077 63.8188C54.1537 63.9821 53.8237 64.1496 53.5197 64.2853C53.2157 64.421 52.9357 64.5334 52.6917 64.633C52.4477 64.7327 52.2337 64.8132 52.0577 64.8726L51.6577 65.0104C51.6112 65.03 51.563 65.0442 51.5137 65.0528C51.5568 65.0267 51.6024 65.0054 51.6497 64.9892L52.0497 64.8323C52.2237 64.7666 52.4337 64.6818 52.6757 64.5758C52.9177 64.4698 53.1977 64.3637 53.4977 64.2132C53.7977 64.0627 54.1297 63.9206 54.4757 63.7361C54.8217 63.5517 55.1917 63.3566 55.5777 63.1424C56.3397 62.6972 57.1617 62.1756 57.9917 61.5734C58.8217 60.9713 59.5677 60.3373 60.2317 59.7394C60.5577 59.434 60.8697 59.1478 61.1477 58.8595C61.4257 58.5711 61.6857 58.3103 61.9157 58.0601C62.1457 57.8099 62.3477 57.5788 62.5277 57.3752C62.7077 57.1717 62.8557 56.9936 62.9757 56.8452L63.2557 56.508C63.2882 56.469 63.3236 56.4328 63.3617 56.3999Z" fill="#263238"/>
<path d="M51.2698 80.2068C51.2398 80.2068 51.2158 76.8016 51.2158 72.6013C51.2158 68.401 51.2398 64.9937 51.2698 64.9937C51.2998 64.9937 51.3218 68.3989 51.3218 72.6013C51.3218 76.8037 51.2978 80.2068 51.2698 80.2068Z" fill="#263238"/>
<path d="M51.7092 97.5551C51.6792 97.5551 51.6572 95.1655 51.6572 92.2183C51.6572 89.2711 51.6792 86.8794 51.7092 86.8794C51.7392 86.8794 51.7612 89.269 51.7612 92.2183C51.7612 95.1676 51.7372 97.5551 51.7092 97.5551Z" fill="#263238"/>
<path d="M63.0793 41.0723C62.8793 41.4964 63.6253 41.8441 64.0553 41.9819C64.494 42.0961 64.948 42.1291 65.3973 42.0795C65.9973 42.0455 66.6113 41.9862 67.1293 41.6724C67.5829 41.3744 67.9455 40.9436 68.1733 40.432C68.3979 39.922 68.5753 39.3901 68.7033 38.8439C68.7033 38.8439 63.9773 39.1704 63.0793 41.0723Z" fill="#037EEE"/>
<g opacity="0.4">
<path d="M63.0793 41.0723C62.8793 41.4964 63.6253 41.8441 64.0553 41.9819C64.494 42.0961 64.948 42.1291 65.3973 42.0795C65.9973 42.0455 66.6113 41.9862 67.1293 41.6724C67.5829 41.3744 67.9455 40.9436 68.1733 40.432C68.3979 39.922 68.5753 39.3901 68.7033 38.8439C68.7033 38.8439 63.9773 39.1704 63.0793 41.0723Z" fill="black"/>
</g>
<path d="M76.4271 39.7154C77.2063 40.3013 78.14 40.6114 79.0951 40.6017C79.553 40.6287 80.0045 40.478 80.3651 40.1776C80.5191 40.0271 80.6351 39.8362 80.7931 39.6921C80.9011 39.5945 81.0271 39.5203 81.1291 39.4164C81.183 39.3673 81.2245 39.3048 81.25 39.2345C81.2754 39.1642 81.2841 39.0883 81.2751 39.0136C81.2357 38.8294 81.1383 38.6649 80.9991 38.5471C80.4571 38.2206 79.8091 38.2333 79.1851 38.2481C78.5607 38.2768 77.9438 38.4047 77.3551 38.6277C76.8711 38.8015 76.3651 39.0517 76.1191 39.5182" fill="#037EEE"/>
<g opacity="0.4">
<path d="M81.2751 39.0135C81.2044 38.8347 81.08 38.6856 80.9211 38.5895C80.3791 38.2629 79.8091 38.2333 79.1851 38.2481C78.5607 38.2768 77.9438 38.4047 77.3551 38.6276C76.8711 38.8015 76.3651 39.0517 76.1191 39.5182L76.4271 39.7154C77.2063 40.3012 78.14 40.6114 79.0951 40.6016C79.553 40.6287 80.0045 40.4779 80.3651 40.1776C80.5191 40.027 80.6351 39.8362 80.7931 39.692C80.9011 39.5945 81.0271 39.5203 81.1291 39.4164C81.183 39.3672 81.2245 39.3047 81.25 39.2344C81.2754 39.1641 81.2841 39.0882 81.2751 39.0135Z" fill="black"/>
</g>
<path d="M67.1994 47.3251L77.1695 47.465C77.1898 47.465 77.2098 47.4599 77.2279 47.4502C77.246 47.4405 77.2617 47.4264 77.2737 47.4091C77.2858 47.3918 77.2938 47.3717 77.2973 47.3505C77.3007 47.3293 77.2994 47.3075 77.2935 47.2869L76.1235 43.4195C76.1235 43.4195 76.2955 41.4858 76.5335 39.1619C76.8955 35.6316 77.3775 31.1938 77.3835 31.2066C76.7015 29.1795 72.6775 28.8361 72.6775 28.8361L68.0914 29.1244L67.9314 28.8382L66.6114 29.4891C66.3235 29.6311 66.0467 29.797 65.7834 29.9853C64.9114 30.6023 62.8114 32.0208 62.4274 33.6004C61.5414 37.2579 63.0414 41.3395 63.0414 41.3395L64.0054 40.5401C64.2483 40.3418 64.5035 40.1611 64.7694 39.9995L66.7014 45.4889C66.5865 45.5658 66.4891 45.6688 66.4165 45.7906C66.3438 45.9124 66.2977 46.0498 66.2814 46.1929C66.2654 46.6381 66.4814 47.1724 67.1994 47.3251Z" fill="#037EEE"/>
<g opacity="0.3">
<path d="M71.4779 40.854C71.7939 39.0517 71.6279 37.1986 71.4579 35.3751C70.9059 36.8593 70.9259 38.5556 70.3399 40.0271C70.2681 40.1825 70.2156 40.3471 70.1839 40.5169C70.1686 40.6021 70.1726 40.69 70.1956 40.7733C70.2185 40.8566 70.2597 40.9329 70.3159 40.996C70.4759 41.1508 70.7159 41.066 70.9279 41.0406C71.1177 41.0022 71.3024 40.9395 71.4779 40.854Z" fill="black"/>
</g>
<g opacity="0.4">
<path d="M67.7998 45.0267C68.5998 45.3214 69.4518 44.7722 70.2978 44.6747C70.8578 44.6111 71.4178 44.7468 71.9738 44.8422C73.0981 45.035 74.2419 45.065 75.3738 44.9313C75.5475 44.9211 75.7175 44.8743 75.8738 44.7935C75.9546 44.7351 76.0207 44.6566 76.0664 44.565C76.112 44.4733 76.1359 44.3713 76.1358 44.2676C74.2518 44.0556 72.3698 43.9411 70.4858 43.7354C70.0169 43.6506 69.5366 43.6672 69.0738 43.7842C68.5058 43.9708 68.0738 44.4436 67.6738 44.9122" fill="black"/>
</g>
<path d="M80.987 38.3181C80.173 36.3738 77.303 30.9967 77.303 30.9967L75.0811 33.9503L75.5991 39.7493C75.5991 39.7493 76.7731 38.3605 80.055 38.3329C80.2936 38.343 80.5269 38.4096 80.738 38.5277C80.9491 38.6459 81.1326 38.8126 81.275 39.0157L80.987 38.3181Z" fill="#037EEE"/>
<path d="M67.6451 37.2897C67.4866 36.8775 67.3608 36.452 67.2691 36.0176C67.1449 35.5944 67.0539 35.1611 66.9971 34.722C67.1533 35.135 67.2783 35.5604 67.3711 35.9942C67.4953 36.4175 67.587 36.8507 67.6451 37.2897Z" fill="#263238"/>
<path d="M74.9137 33.558C74.9861 33.6122 75.0531 33.674 75.1137 33.7424C75.2904 33.9234 75.4561 34.116 75.6097 34.3192C76.1269 34.9894 76.4904 35.7775 76.6717 36.6218C76.7658 37.0885 76.7868 37.5685 76.7337 38.0424C76.6837 38.4771 76.6057 38.8587 76.5537 39.181C76.5017 39.5033 76.4697 39.7662 76.4537 39.9486C76.4533 40.0433 76.4439 40.1378 76.4257 40.2306C76.4116 40.1359 76.4075 40.0399 76.4137 39.9443C76.4225 39.6845 76.4452 39.4254 76.4817 39.1683C76.5237 38.8439 76.5937 38.458 76.6397 38.0318C76.686 37.5686 76.6624 37.1005 76.5697 36.6451C76.3906 35.8166 76.0432 35.0395 75.5517 34.3679C75.1857 33.8463 74.8977 33.5749 74.9137 33.558Z" fill="#263238"/>
<path d="M72.8773 46.8586C72.8078 46.8915 72.7345 46.9143 72.6593 46.9265C72.5739 46.9504 72.487 46.9681 72.3993 46.9795C72.2973 46.9943 72.1813 47.0177 72.0513 47.024C71.7466 47.0537 71.44 47.0537 71.1353 47.024C70.7625 46.9834 70.3942 46.9053 70.0353 46.7908C69.6783 46.6691 69.3328 46.5123 69.0033 46.3222C68.7362 46.1642 68.4826 45.9819 68.2453 45.7773C68.1413 45.6925 68.0573 45.6034 67.9813 45.5292C67.9158 45.4666 67.8537 45.4001 67.7953 45.3299C67.7397 45.2753 67.6919 45.2125 67.6533 45.1433C67.6673 45.1285 67.8813 45.3829 68.2913 45.7158C68.5308 45.909 68.7843 46.082 69.0493 46.2332C69.375 46.4146 69.715 46.5657 70.0653 46.6848C70.418 46.7974 70.7794 46.8769 71.1453 46.9223C71.4442 46.9563 71.7451 46.9663 72.0453 46.9519C72.5593 46.9223 72.8733 46.8417 72.8773 46.8586Z" fill="#263238"/>
<path d="M75.9557 45.6543C76.0028 45.7502 76.0294 45.8559 76.0337 45.9639C76.0656 46.2223 76.0472 46.485 75.9797 46.7356C75.911 46.992 75.7717 47.2209 75.5797 47.3929C75.4337 47.5223 75.3217 47.5626 75.3157 47.552C75.3097 47.5414 75.4037 47.4714 75.5297 47.3399C75.6915 47.1611 75.809 46.9425 75.8717 46.7038C76.0317 46.1441 75.9177 45.6564 75.9557 45.6543Z" fill="#263238"/>
<path d="M75.4132 46.4006C75.4566 46.6187 75.4392 46.8455 75.3632 47.0533C75.2872 47.2611 75.1559 47.441 74.9852 47.571C74.9632 47.5477 75.1492 47.3378 75.2652 47.0134C75.3812 46.689 75.3832 46.4028 75.4132 46.4006Z" fill="#263238"/>
<path d="M73.6298 39.4248C73.5239 39.6147 73.4049 39.7962 73.2738 39.9676C73.1704 40.1591 73.0534 40.342 72.9238 40.5146C72.9622 40.2909 73.053 40.0809 73.1878 39.904C73.2944 39.7071 73.4465 39.5422 73.6298 39.4248Z" fill="#263238"/>
<path d="M66.7851 34.2896C66.6327 34.1947 66.4852 34.0914 66.3431 33.98C65.6318 33.4846 64.8246 33.165 63.9811 33.045C63.8045 33.0313 63.6289 33.0065 63.4551 32.9707C63.6322 32.9448 63.8119 32.9448 63.9891 32.9707C64.8556 33.0491 65.6854 33.3768 66.3891 33.9185C66.5367 34.0221 66.67 34.147 66.7851 34.2896Z" fill="#263238"/>
<path d="M77.3039 30.9268C76.9459 31.2324 76.6116 31.5677 76.3039 31.9297C76.0206 32.3159 75.7671 32.7258 75.5459 33.1552C75.5696 33.0108 75.6162 32.8717 75.6839 32.7439C75.8287 32.4259 76.0101 32.1282 76.2239 31.8576C76.4383 31.5875 76.6843 31.3474 76.9559 31.143C77.0593 31.0502 77.177 30.9771 77.3039 30.9268Z" fill="#263238"/>
<path d="M73.1877 29.1796C73.2059 29.2101 73.2207 29.2429 73.2317 29.2771C73.2707 29.3731 73.3022 29.4724 73.3257 29.5739C73.41 29.9518 73.41 30.3453 73.3257 30.7231C73.2012 31.2872 72.9164 31.7971 72.5097 32.184C71.9964 32.645 71.3423 32.8922 70.6697 32.8795C69.9965 32.8819 69.3405 32.6536 68.7997 32.2286C68.3688 31.8798 68.0191 31.4307 67.7777 30.9161C67.615 30.5715 67.5005 30.2037 67.4377 29.8241C67.4193 29.7219 67.4073 29.6185 67.4017 29.5146C67.3961 29.4781 67.3961 29.4408 67.4017 29.4043C67.4017 29.4043 67.4237 29.5527 67.4797 29.8157C67.5575 30.1845 67.6805 30.5409 67.8457 30.8758C68.0897 31.3749 68.4362 31.8097 68.8597 32.148C69.3808 32.5571 70.0112 32.7799 70.6597 32.7841C71.308 32.7967 71.939 32.5619 72.4377 32.1225C72.8306 31.7498 73.1092 31.261 73.2377 30.7189C73.3267 30.353 73.339 29.9709 73.2737 29.5994C73.2357 29.3195 73.1757 29.1838 73.1877 29.1796Z" fill="#263238"/>
<g opacity="0.3">
<path d="M73.8878 39.8002C73.8878 39.6942 73.8718 39.5691 73.7838 39.5161C73.7559 39.5012 73.7251 39.4934 73.6938 39.4934C73.6626 39.4934 73.6317 39.5012 73.6038 39.5161C73.5479 39.5481 73.4983 39.5913 73.4578 39.6433C73.2227 39.9027 73.0409 40.211 72.9238 40.5487L73.9038 40.4575C73.8978 40.2434 73.8938 40.0186 73.8878 39.8002Z" fill="black"/>
</g>
<g opacity="0.3">
<path d="M77.1417 37.6141C77.0432 37.0196 76.7975 36.4635 76.4297 36.0027C76.8537 37.4699 76.7117 38.299 76.4737 39.304L76.5257 39.1641C76.7997 38.5767 77.2157 38.2078 77.1417 37.6141Z" fill="black"/>
</g>
<path d="M75.1833 86.9027L74.5853 96.4123L70.6853 96.3635L70.0713 86.4766L75.1833 86.9027Z" fill="#FFBE9D"/>
<path d="M74.6954 95.1612V95.4368C74.6954 95.4368 79.0954 97.3112 79.1374 98.1932L70.3994 98.1423L70.5354 95.0615C71.8374 95.7082 73.1994 95.7888 74.6954 95.1612Z" fill="#037EEE"/>
<path d="M71.4219 96.0497C71.339 96.0762 71.268 96.134 71.2224 96.2121C71.1767 96.2901 71.1595 96.3832 71.1739 96.4737C71.1953 96.5642 71.2489 96.6423 71.3235 96.6917C71.3981 96.7412 71.4878 96.758 71.5739 96.7388C71.6629 96.7106 71.7388 96.6483 71.7869 96.564C71.8349 96.4798 71.8517 96.3795 71.8339 96.2829C71.8022 96.1913 71.7381 96.1164 71.6553 96.0741C71.5724 96.0317 71.4772 96.0253 71.3899 96.056" fill="white"/>
<path d="M70.3994 98.1424L70.4314 97.4025L78.7994 97.7247C78.7994 97.7247 79.1874 97.9071 79.1414 98.1955L70.3994 98.1424Z" fill="#263238"/>
<path d="M74.7278 95.4622C74.7278 95.5067 74.5118 95.5258 74.3018 95.6742C74.0918 95.8226 73.9778 96.0071 73.9398 95.9901C73.9018 95.9732 73.9658 95.7103 74.2238 95.5406C74.4818 95.371 74.7378 95.4134 74.7278 95.4622Z" fill="#263238"/>
<path d="M75.6417 95.8693C75.6517 95.9138 75.4657 95.9881 75.3197 96.1789C75.1737 96.3697 75.1317 96.5711 75.0877 96.569C75.0437 96.5669 75.0197 96.3103 75.2057 96.0792C75.3917 95.8481 75.6397 95.8375 75.6417 95.8693Z" fill="#263238"/>
<path d="M76.1556 97.0356C76.1156 97.0356 76.0576 96.8235 76.1696 96.5712C76.2816 96.3189 76.4796 96.2277 76.4976 96.2638C76.5156 96.2998 76.3916 96.4334 76.2976 96.6391C76.2036 96.8448 76.1996 97.0313 76.1556 97.0356Z" fill="#263238"/>
<path d="M74.4712 17.3546C74.6972 16.761 74.4232 16.0422 73.9372 15.6584C73.425 15.3009 72.8004 15.1722 72.1992 15.3001C71.606 15.4319 71.0318 15.6458 70.4912 15.9362C70.2398 15.6674 69.9229 15.478 69.5758 15.3891C69.2288 15.3002 68.8653 15.3153 68.5259 15.4327C68.1865 15.5502 67.8845 15.7653 67.6538 16.0542C67.423 16.343 67.2726 16.6942 67.2192 17.0684C67.0029 17.0107 66.7759 17.0165 66.5626 17.0852C66.3492 17.1539 66.1575 17.2829 66.0081 17.4583C65.8586 17.6338 65.757 17.849 65.7142 18.081C65.6714 18.3131 65.689 18.553 65.7652 18.7752L68.4692 19.7824L71.4212 25.2952C71.8574 25.6898 72.4142 25.9026 72.9877 25.894C73.5611 25.8854 74.1119 25.6559 74.5375 25.2483C74.9631 24.8408 75.2342 24.283 75.3004 23.6791C75.3666 23.0752 75.2233 22.4664 74.8972 21.9663C75.0626 21.8104 75.203 21.627 75.3132 21.4235C75.5491 21.2756 75.7549 21.0795 75.9187 20.8465C76.0824 20.6136 76.2009 20.3484 76.2672 20.0665C76.5292 18.8388 75.6332 17.4988 74.4712 17.3546Z" fill="#263238"/>
<path d="M72.6816 28.8361C72.5136 27.9392 72.3976 27.3243 72.3996 27.3307C72.4016 27.337 73.9996 26.6734 73.8836 24.3135C73.8276 23.1388 73.4056 21.2878 73.0136 19.7866C72.6616 18.4339 71.4716 16.9433 70.2136 17.3737L66.3996 19.3456C66.0176 19.4771 65.9516 19.8587 66.0416 20.2722V20.4842L67.5236 26.9851L68.1496 29.8899C68.2831 30.4863 68.6223 31.0082 69.1006 31.3528C69.5788 31.6973 70.1614 31.8396 70.7336 31.7515C71.0461 31.7049 71.3464 31.5911 71.6159 31.417C71.8854 31.243 72.1185 31.0124 72.301 30.7394C72.4834 30.4664 72.6112 30.1567 72.6767 29.8294C72.7422 29.5021 72.7438 29.1641 72.6816 28.8361Z" fill="#FFBE9D"/>
<path d="M73 21.3557C73.0161 21.4309 73.0043 21.5098 72.9671 21.5761C72.9298 21.6424 72.87 21.691 72.8 21.7119C72.7647 21.7224 72.7277 21.7252 72.6913 21.7201C72.655 21.715 72.6199 21.7022 72.5883 21.6824C72.5568 21.6626 72.5293 21.6362 72.5076 21.6048C72.4859 21.5735 72.4704 21.5378 72.462 21.4999C72.446 21.4249 72.4579 21.3463 72.4951 21.2804C72.5324 21.2145 72.5921 21.1663 72.662 21.1458C72.6972 21.135 72.7341 21.1319 72.7705 21.1367C72.8069 21.1415 72.8419 21.1541 72.8736 21.1738C72.9052 21.1934 72.9327 21.2197 72.9544 21.251C72.9762 21.2822 72.9917 21.3179 73 21.3557Z" fill="#263238"/>
<path d="M72.8254 20.9041C72.7974 20.9507 72.5554 20.8341 72.2594 20.9041C71.9634 20.9741 71.7754 21.1776 71.7354 21.1458C71.6954 21.114 71.7354 21.0546 71.8174 20.9613C71.9274 20.8381 72.0706 20.7537 72.2274 20.7196C72.3821 20.6843 72.5434 20.7029 72.6874 20.7726C72.7994 20.8214 72.8374 20.885 72.8254 20.9041Z" fill="#263238"/>
<path d="M70.0958 22.0511C70.1118 22.1261 70.0999 22.2047 70.0627 22.2706C70.0254 22.3366 69.9657 22.3848 69.8958 22.4052C69.8612 22.4159 69.8251 22.4192 69.7893 22.4149C69.7536 22.4106 69.719 22.3989 69.6875 22.3804C69.6561 22.3618 69.6284 22.3369 69.6062 22.3069C69.5839 22.277 69.5675 22.2427 69.5578 22.2059C69.5417 22.1307 69.5535 22.0518 69.5907 21.9855C69.628 21.9192 69.6877 21.8706 69.7578 21.8497C69.7924 21.8391 69.8288 21.8359 69.8646 21.8403C69.9005 21.8447 69.9351 21.8566 69.9666 21.8754C69.998 21.8941 70.0257 21.9193 70.0478 21.9495C70.07 21.9797 70.0863 22.0142 70.0958 22.0511Z" fill="#263238"/>
<path d="M69.9494 21.6525C69.9234 21.6992 69.6794 21.5804 69.3834 21.6525C69.0874 21.7246 68.8994 21.9239 68.8594 21.8942C68.8194 21.8646 68.8594 21.8031 68.9414 21.7077C69.0519 21.5855 69.195 21.5019 69.3514 21.4681C69.506 21.4332 69.667 21.451 69.8114 21.519C69.9174 21.5698 69.9634 21.6271 69.9494 21.6525Z" fill="#263238"/>
<path d="M71.4556 23.6455C71.6022 23.5598 71.758 23.4929 71.9196 23.4462C71.9936 23.4208 72.0636 23.389 72.0656 23.3317C72.0551 23.2474 72.021 23.1684 71.9676 23.1049L71.6216 22.5409C71.1376 21.7373 70.7696 21.0715 70.7996 21.0567C70.8296 21.0418 71.2476 21.6715 71.7316 22.4751L72.0696 23.0434C72.136 23.1303 72.172 23.2389 72.1716 23.3508C72.1656 23.3813 72.1534 23.4101 72.1357 23.435C72.1181 23.4599 72.0955 23.4804 72.0696 23.495C72.0304 23.517 71.9887 23.5334 71.9456 23.5438C71.7874 23.6012 71.6225 23.6354 71.4556 23.6455Z" fill="#263238"/>
<path d="M72.3996 27.3307C71.388 27.5731 70.3328 27.5129 69.3516 27.1569C69.3516 27.1569 70.3996 28.6071 72.5136 27.9138L72.3996 27.3307Z" fill="#EB996E"/>
<path d="M69.9994 21.203C69.9794 21.2942 69.6734 21.2921 69.3254 21.3833C68.9774 21.4744 68.7014 21.6123 68.6454 21.5402C68.6214 21.5062 68.6614 21.4172 68.7674 21.3281C68.9083 21.2023 69.0757 21.1144 69.2554 21.0716C69.4336 21.0268 69.6192 21.0268 69.7974 21.0716C69.9394 21.0991 70.0134 21.1606 69.9994 21.203Z" fill="#263238"/>
<path d="M72.7112 19.9032C72.6632 19.988 72.4072 19.9668 72.1112 20.0283C71.8152 20.0898 71.5812 20.1958 71.5112 20.1343C71.4792 20.1025 71.5112 20.0219 71.5972 19.9223C71.7292 19.8045 71.8889 19.7269 72.0592 19.6975C72.2267 19.6618 72.4002 19.6749 72.5612 19.7357C72.6832 19.7951 72.7312 19.8608 72.7112 19.9032Z" fill="#263238"/>
<path d="M67.3415 17.8275C67.3858 18.0572 67.4772 18.2737 67.6093 18.4617C67.7414 18.6497 67.9109 18.8046 68.1059 18.9153C68.3008 19.026 68.5163 19.0898 68.7371 19.1023C68.9579 19.1147 69.1786 19.0755 69.3835 18.9873C69.6995 18.8516 70.0275 18.5971 70.3475 18.7201C70.6675 18.8431 70.7995 19.3265 71.1055 19.5068C71.5555 19.7739 72.1055 19.3117 72.6075 19.3583C73.0075 19.3944 73.3095 19.7188 73.6195 19.9944C73.9295 20.2701 74.3575 20.4778 74.7075 20.2785C74.6274 19.9245 74.5086 19.5815 74.3535 19.2566C74.1971 18.9294 73.9384 18.6701 73.6215 18.5229C73.4455 18.4487 73.2555 18.4233 73.0875 18.3321C72.7255 18.137 72.5635 17.696 72.3015 17.3631C72.1295 17.1534 71.9127 16.9901 71.6692 16.8868C71.4258 16.7836 71.1626 16.7433 70.9015 16.7694C70.4695 16.8161 70.0595 17.0472 69.6235 17.0281C69.3015 17.0133 68.9935 16.8606 68.6715 16.867C68.0455 16.867 67.5755 17.4607 67.2275 18.0141" fill="#263238"/>
<path d="M69.4493 18.3131C69.1613 18.2898 68.5733 18.2261 68.3793 18.0099C68.1822 17.7762 67.9307 17.6015 67.6499 17.5032C67.3691 17.405 67.0689 17.3867 66.7793 17.4501C66.4919 17.5409 66.2397 17.7272 66.0597 17.9814C65.8796 18.2356 65.7813 18.5444 65.7793 18.8622C65.4293 18.9528 65.109 19.1418 64.852 19.4094C64.595 19.677 64.411 20.0132 64.3193 20.3825C64.2262 20.7691 64.2231 21.1739 64.3102 21.5621C64.3972 21.9502 64.572 22.3102 64.8193 22.6109C64.9394 22.7702 65.049 22.9381 65.1473 23.1134C65.0117 23.2918 64.8925 23.4835 64.7913 23.6859C64.3333 24.7588 65.5753 25.1701 65.5753 25.1701C65.5753 25.891 66.2053 25.8868 66.6073 25.8847C67.0093 25.8826 67.2313 27.0212 67.5453 26.9766L67.2273 23.4633C67.2739 23.4825 67.3233 23.4926 67.3733 23.493C68.1313 23.5078 67.9333 21.9854 67.6893 21.5847C67.9151 21.2867 68.1058 20.9606 68.2573 20.6136C68.3946 20.0832 68.4042 19.5248 68.2853 18.9895C68.5393 18.9555 69.5733 18.3216 69.4493 18.3131Z" fill="#263238"/>
<path d="M67.3272 23.6498C67.3013 23.5382 67.2492 23.4353 67.1758 23.3508C67.1023 23.2662 67.0098 23.2028 66.907 23.1664C66.8042 23.13 66.6943 23.1218 66.5877 23.1425C66.481 23.1633 66.3811 23.2124 66.2971 23.2851C66.0971 23.4675 65.9911 23.7728 66.1111 24.2838C66.4351 25.6493 67.6611 25.0238 67.6531 24.9856C67.6451 24.9475 67.4672 24.2138 67.3272 23.6498Z" fill="#FFBE9D"/>
<path d="M67.1373 24.5722C67.1373 24.5722 67.1193 24.5955 67.0853 24.623C67.0381 24.6615 66.9786 24.679 66.9193 24.6718C66.7713 24.6548 66.6013 24.4598 66.5373 24.2117C66.5068 24.0958 66.5007 23.9742 66.5193 23.8555C66.5214 23.8094 66.5339 23.7645 66.5558 23.7246C66.5778 23.6847 66.6085 23.6511 66.6453 23.6265C66.6696 23.6126 66.6977 23.6082 66.7248 23.614C66.7518 23.6198 66.7761 23.6355 66.7933 23.6583C66.8193 23.6901 66.8173 23.7198 66.8253 23.7219C66.8333 23.724 66.8473 23.6901 66.8253 23.6371C66.81 23.6057 66.7854 23.5804 66.7553 23.565C66.713 23.5469 66.6657 23.5469 66.6233 23.565C66.5731 23.5903 66.5297 23.6286 66.4972 23.6764C66.4647 23.7243 66.4441 23.78 66.4373 23.8385C66.4114 23.9721 66.4162 24.1102 66.4513 24.2414C66.4737 24.3645 66.5298 24.4779 66.6127 24.5673C66.6956 24.6567 66.8016 24.7181 66.9173 24.7439C66.955 24.7455 66.9925 24.7382 67.0271 24.7224C67.0617 24.7066 67.0926 24.6828 67.1173 24.6527C67.1433 24.6061 67.1433 24.5743 67.1373 24.5722Z" fill="#EB996E"/>
<path d="M74.2338 21.7437C74.2338 21.7437 74.3518 21.6483 74.5158 21.4363C74.7421 21.1308 74.8809 20.7628 74.9158 20.3761C74.9423 20.1122 74.9178 19.8452 74.8438 19.5916C74.7583 19.3007 74.6 19.0398 74.3858 18.8368C74.1384 18.6077 73.8388 18.4512 73.5167 18.3828C73.1947 18.3144 72.8613 18.3364 72.5498 18.4467C72.4898 18.4679 72.4338 18.4997 72.3778 18.5251C72.3218 18.5506 72.2718 18.5887 72.2198 18.6205L72.1398 18.6672V18.5739C72.138 18.4096 72.0805 18.2516 71.9778 18.1286C71.8725 18.0093 71.7433 17.9166 71.5998 17.8572C71.3281 17.7372 71.0272 17.7134 70.7418 17.7894C70.1898 17.923 69.7218 18.1901 69.2798 18.2452C68.9332 18.3091 68.5765 18.2335 68.2798 18.0332C68.2014 17.9761 68.1336 17.9042 68.0798 17.8212C68.0478 17.7639 68.0318 17.7321 68.0358 17.73C68.1082 17.8347 68.1968 17.9257 68.2978 17.9993C68.5897 18.178 68.9328 18.239 69.2638 18.171C69.4941 18.1251 69.7193 18.054 69.9358 17.959C70.1899 17.8513 70.4505 17.7613 70.7158 17.6897C70.8636 17.6518 71.0157 17.6354 71.1678 17.641C71.3282 17.6499 71.4859 17.6887 71.6338 17.7554C71.7867 17.8247 71.9233 17.929 72.0338 18.0608C72.152 18.2043 72.2186 18.3876 72.2218 18.5781L72.1418 18.5315L72.3078 18.4297C72.3698 18.4043 72.4278 18.3703 72.4918 18.347C72.8201 18.2278 73.1724 18.2029 73.5128 18.2747C73.8532 18.3466 74.1696 18.5127 74.4298 18.7562C74.6547 18.9721 74.8194 19.2494 74.9058 19.5577C74.9955 19.8845 75.0076 20.2298 74.941 20.5627C74.8743 20.8957 74.731 21.206 74.5238 21.466C74.4579 21.5457 74.3834 21.6168 74.3018 21.678C74.2817 21.7028 74.2589 21.7248 74.2338 21.7437Z" fill="#455A64"/>
<path d="M73.9732 16.9496C73.8419 16.879 73.7018 16.8283 73.5572 16.7991C73.3918 16.7751 73.2235 16.7918 73.0652 16.8479C72.8601 16.9144 72.682 17.0517 72.5592 17.238L72.5092 17.3122L72.4792 17.2274C72.3747 16.9668 72.2066 16.7403 71.9922 16.5715C71.7777 16.4027 71.5247 16.2975 71.2592 16.2669C70.8421 16.2503 70.4311 16.3767 70.0872 16.6274C69.7942 16.8298 69.4826 17.0003 69.1572 17.1362C68.9328 17.2262 68.6912 17.2568 68.4532 17.2253C68.3897 17.2129 68.3275 17.1944 68.2672 17.1702C68.2272 17.1511 68.2052 17.1405 68.2072 17.1362C68.2092 17.132 68.2972 17.1638 68.4592 17.1808C68.6892 17.196 68.9196 17.1561 69.1332 17.0641C69.4494 16.9179 69.7526 16.742 70.0392 16.5383C70.2162 16.4218 70.4038 16.3245 70.5992 16.2478C70.814 16.1648 71.0435 16.1336 71.2712 16.1566C71.5548 16.1895 71.8248 16.3032 72.0523 16.4858C72.2798 16.6684 72.4564 16.913 72.5632 17.1935H72.4852C72.6227 16.9942 72.8191 16.8494 73.0432 16.7821C73.2134 16.7298 73.3929 16.7204 73.5672 16.7546C73.6775 16.7768 73.7832 16.8199 73.8792 16.8818C73.9134 16.8995 73.945 16.9224 73.9732 16.9496Z" fill="#455A64"/>
<path d="M71.3391 24.2732C71.2924 24.2317 71.2379 24.2013 71.1793 24.1837C71.1207 24.1662 71.0593 24.162 70.9991 24.1714C70.9286 24.1873 70.8622 24.2188 70.8039 24.2637C70.7457 24.3086 70.697 24.366 70.6611 24.4322C70.6611 24.4322 70.6511 24.4428 70.6491 24.4491C70.6215 24.4976 70.6089 24.5539 70.6131 24.6103C70.6218 24.6717 70.6446 24.7299 70.6794 24.7798C70.7143 24.8297 70.7602 24.8698 70.8131 24.8965C70.8976 24.942 70.9933 24.9586 71.0871 24.9442C71.1809 24.9298 71.2682 24.885 71.3371 24.816C71.4024 24.7427 71.439 24.6458 71.4394 24.545C71.4398 24.4441 71.4039 24.3469 71.3391 24.2732Z" fill="#037EEE"/>
<path d="M71.4396 24.9326C71.4236 24.9326 71.4056 24.869 71.3516 24.782C71.2866 24.6655 71.1894 24.5729 71.0732 24.5168C70.9569 24.4607 70.8272 24.4437 70.7016 24.4682C70.6036 24.4831 70.5436 24.5128 70.5376 24.4979C70.5316 24.4831 70.5776 24.4322 70.6856 24.3919C70.827 24.3437 70.9802 24.3527 71.1156 24.4173C71.2523 24.4819 71.3604 24.5995 71.4176 24.746C71.4596 24.8563 71.4536 24.9305 71.4396 24.9326Z" fill="#263238"/>
<path d="M67.3578 25.1955C67.3578 25.1955 67.4158 25.3016 67.3398 25.4627C67.2968 25.5591 67.2211 25.6348 67.1278 25.6747C67.0696 25.6968 67.0073 25.7043 66.9459 25.6966C66.8844 25.6889 66.8255 25.6661 66.7738 25.6302C66.7212 25.5963 66.6766 25.5499 66.6437 25.4948C66.6107 25.4396 66.5902 25.3771 66.5838 25.3122C66.5778 25.2074 66.6068 25.1038 66.6658 25.0196C66.7698 24.8796 66.8858 24.8754 66.8858 24.8881C66.8858 24.9008 66.7978 24.9369 66.7278 25.0641C66.6873 25.1354 66.6704 25.2189 66.6798 25.3016C66.6873 25.3499 66.7045 25.396 66.7304 25.4367C66.7563 25.4773 66.7902 25.5115 66.8298 25.5369C66.8688 25.5634 66.9127 25.5808 66.9585 25.5881C67.0044 25.5955 67.0511 25.5924 67.0958 25.5793C67.1696 25.5513 67.2333 25.4994 67.2778 25.4309C67.3558 25.2994 67.3418 25.1955 67.3578 25.1955Z" fill="#037EEE"/>
<path d="M66.6831 25.1128C66.6931 25.1128 66.6831 25.1849 66.5891 25.2315C66.5429 25.2519 66.4922 25.2578 66.443 25.2485C66.3937 25.2393 66.348 25.2153 66.3112 25.1794C66.2744 25.1435 66.248 25.0972 66.2352 25.046C66.2225 24.9947 66.2238 24.9406 66.2391 24.8902C66.2587 24.8328 66.2961 24.7842 66.3451 24.7523C66.4271 24.6993 66.4891 24.7205 66.4871 24.7333C66.4851 24.746 66.4391 24.7608 66.3891 24.8138C66.3645 24.8464 66.3495 24.886 66.346 24.9275C66.3425 24.9691 66.3507 25.0109 66.3695 25.0475C66.3883 25.0842 66.4169 25.1142 66.4517 25.1337C66.4865 25.1533 66.5259 25.1615 66.5651 25.1573C66.6331 25.1425 66.6691 25.1043 66.6831 25.1128Z" fill="#037EEE"/>
<path d="M68.8812 43.9432C68.8812 43.9432 73.8332 44.2485 76.7612 44.2761C79.0272 44.2994 80.0392 43.6612 80.4912 42.1155C80.8712 40.82 80.0552 38.3329 80.0552 38.3329C78.5212 38.3329 77.5752 38.5661 76.5892 39.0559L76.8512 40.1924L68.8672 40.9218L68.8812 43.9432Z" fill="#FFBE9D"/>
<path d="M78.5157 41.4052C78.3009 41.1092 78.05 40.8446 77.7697 40.6185C77.4689 40.4234 77.1446 40.2722 76.8057 40.169C76.9124 40.1528 77.0212 40.1629 77.1237 40.1987C77.3753 40.2618 77.6139 40.3731 77.8277 40.5274C78.0418 40.6821 78.227 40.8776 78.3737 41.1041C78.4857 41.278 78.5277 41.3988 78.5157 41.4052Z" fill="#EB996E"/>
<path d="M67.0691 39.0474C67.0691 39.0474 65.5371 39.4376 64.4111 40.2348L65.6111 43.6824C66.0111 44.8147 67.2331 45.3787 68.2111 44.785C69.7171 43.8711 70.2491 41.208 70.2491 41.208L71.9031 33.6004L69.1611 31.7791L67.0791 39.0474" fill="#FFBE9D"/>
<path d="M69.1515 31.779L69.2635 29.2771L68.6495 26.7327C68.6155 26.5928 68.5995 26.4168 68.7075 26.332C68.761 26.2884 68.8272 26.2659 68.8946 26.2682C68.9621 26.2705 69.0267 26.2976 69.0775 26.3447C69.2435 26.527 70.0435 28.7512 70.0435 28.7512C70.0435 28.7512 71.2575 27.9794 71.4735 27.9413C71.6895 27.9031 71.9595 28.5965 71.9775 28.6495C71.9854 28.8048 71.9854 28.9606 71.9775 29.1159C71.9775 29.1159 72.7275 29.1393 72.7955 29.2474C72.85 29.4683 72.8789 29.6954 72.8815 29.9238C72.8815 29.9238 73.1995 30.0319 73.2495 30.2863C73.2995 30.5408 73.4035 30.9606 73.2495 31.0539C73.0955 31.1472 72.7835 31.3295 72.7835 31.3295C72.7835 31.3295 72.6575 32.6271 72.6235 32.7459C72.5895 32.8646 71.8875 33.594 71.8875 33.594L69.1515 31.779Z" fill="#FFBE9D"/>
<path d="M66.5996 44.8359C66.5996 44.8359 66.6736 44.8825 66.8296 44.9356C67.0577 45.0114 67.2991 45.0317 67.5356 44.9949C67.9156 44.9375 68.2715 44.7635 68.5596 44.4945C68.9403 44.1284 69.2619 43.6986 69.5116 43.2224C69.6587 42.9424 69.7825 42.6494 69.8816 42.3467C69.9856 42.0136 70.0718 41.6745 70.1396 41.331C70.2956 40.6165 70.4656 39.8468 70.6456 39.0284C71.0056 37.3937 71.4096 35.5659 71.8456 33.5962V33.5813H71.8556C71.9936 33.4372 72.1316 33.2909 72.2696 33.1382C72.3376 33.0619 72.4056 32.9855 72.4696 32.9071C72.5016 32.8668 72.5356 32.8265 72.5616 32.7862C72.5818 32.7463 72.5935 32.7022 72.5956 32.6569C72.6496 32.2328 72.6916 31.7939 72.7356 31.3508V31.3232L72.7596 31.3105L73.1416 31.0836C73.1696 31.0646 73.2136 31.0433 73.2316 31.0264C73.2507 31.0081 73.2634 30.9834 73.2676 30.9564C73.2769 30.8861 73.2769 30.8147 73.2676 30.7444C73.2482 30.5889 73.2181 30.4351 73.1776 30.2843C73.1096 30.1524 72.9954 30.0541 72.8596 30.0108L72.8256 29.998V29.962C72.8256 29.839 72.8136 29.7118 72.7996 29.5867C72.7942 29.524 72.7855 29.4618 72.7736 29.4001C72.7689 29.3729 72.7609 29.3466 72.7496 29.3217C72.7496 29.3068 72.7496 29.3217 72.7376 29.3089C72.7267 29.3029 72.7153 29.2979 72.7036 29.2941C72.4631 29.2385 72.2178 29.2094 71.9716 29.2072H71.9196V29.152C71.9196 29.0206 71.9196 28.8743 71.9196 28.728C71.9113 28.6781 71.8951 28.63 71.8716 28.5859C71.8516 28.535 71.8276 28.4863 71.8036 28.4354C71.7568 28.3372 71.7019 28.2435 71.6396 28.1555C71.6113 28.1145 71.5768 28.0787 71.5376 28.0495C71.5231 28.0365 71.5053 28.0283 71.4864 28.0261C71.4676 28.0238 71.4485 28.0275 71.4316 28.0368C71.3348 28.0761 71.2406 28.1221 71.1496 28.1746C70.7776 28.3866 70.4136 28.5986 70.0576 28.8276L70.0056 28.8616L69.9836 28.8022C69.7956 28.2997 69.6076 27.8035 69.4236 27.318C69.3316 27.0741 69.2416 26.8303 69.1496 26.5907C69.1354 26.537 69.1073 26.4887 69.0683 26.4512C69.0294 26.4137 68.9814 26.3886 68.9296 26.3787C68.8818 26.3619 68.83 26.3628 68.7828 26.3813C68.7355 26.3998 68.6956 26.4347 68.6696 26.4805C68.6447 26.526 68.6342 26.5787 68.6396 26.631C68.6396 26.6777 68.6676 26.7497 68.6796 26.807C68.7116 26.93 68.7416 27.0508 68.7716 27.1717C68.8316 27.4155 68.8896 27.6551 68.9496 27.8926C69.0669 28.3704 69.1823 28.8368 69.2956 29.292V29.3068C69.2556 30.1776 69.2176 31.0115 69.1816 31.8088V31.8045L67.3596 38.0891L66.8456 39.8384C66.7856 40.0355 66.7396 40.1903 66.7076 40.2985C66.6756 40.4066 66.6556 40.4532 66.6556 40.4532C66.6556 40.4532 66.6656 40.3981 66.6936 40.2942L66.8196 39.8299C66.9356 39.4207 67.1016 38.8291 67.3116 38.0743C67.7436 36.5561 68.3576 34.3892 69.0996 31.777V31.7876C69.1343 30.9932 69.1696 30.1592 69.2056 29.2856V29.3005C69.0916 28.8446 68.9736 28.3781 68.8556 27.9032L68.6756 27.1823C68.6456 27.0614 68.6156 26.9384 68.5836 26.8176C68.5664 26.7541 68.5524 26.6897 68.5416 26.6246C68.5342 26.551 68.5489 26.4769 68.5836 26.4126C68.6206 26.3465 68.6778 26.2956 68.7456 26.2684C68.8127 26.2476 68.8838 26.2452 68.952 26.2616C69.0202 26.2779 69.0834 26.3124 69.1356 26.3617C69.1858 26.4116 69.223 26.4745 69.2436 26.5441L69.5176 27.2713C69.7036 27.759 69.8896 28.2552 70.0796 28.7555L70.0056 28.728C70.3636 28.5032 70.7236 28.2785 71.1036 28.0686C71.1997 28.0153 71.2985 27.9679 71.3996 27.9265C71.4312 27.9126 71.4656 27.9075 71.4996 27.9117C71.5338 27.9169 71.5666 27.9299 71.5956 27.9498C71.6438 27.9865 71.6863 28.0308 71.7216 28.0813C71.7885 28.1741 71.8467 28.2735 71.8956 28.3781C71.9216 28.4311 71.9456 28.482 71.9676 28.535C71.9961 28.5912 72.015 28.6522 72.0236 28.7153C72.0236 28.8658 72.0236 29.0057 72.0236 29.1393L71.9736 29.0821C72.2307 29.0839 72.4869 29.1152 72.7376 29.1754C72.7548 29.1817 72.7715 29.1895 72.7876 29.1987C72.8096 29.2114 72.8276 29.2305 72.8396 29.2538C72.8551 29.2882 72.8665 29.3246 72.8736 29.362C72.8856 29.4298 72.8936 29.4934 72.9016 29.5591C72.9136 29.6885 72.9216 29.8157 72.9276 29.9429L72.8916 29.892C72.9734 29.9175 73.0494 29.9603 73.1151 30.0179C73.1808 30.0755 73.2347 30.1466 73.2736 30.227C73.3174 30.3882 73.3495 30.5526 73.3696 30.7189C73.3835 30.8038 73.3835 30.8906 73.3696 30.9755C73.3609 31.0269 73.3354 31.0735 73.2976 31.107C73.2648 31.1302 73.2307 31.1515 73.1956 31.1706L72.8156 31.3805L72.8416 31.3402C72.7956 31.7833 72.7536 32.218 72.6976 32.6484L72.6856 32.7311C72.681 32.7646 72.6678 32.7961 72.6476 32.8223C72.6182 32.8687 72.5854 32.9126 72.5496 32.9537C72.4816 33.0343 72.4136 33.1128 72.3496 33.1891C72.2116 33.3418 72.0736 33.4881 71.9336 33.6322L71.9476 33.6068C71.5076 35.5744 71.0996 37.4021 70.7336 39.0369C70.5516 39.8532 70.3776 40.6229 70.2176 41.3353C70.1492 41.6813 70.061 42.0226 69.9536 42.3573C69.8507 42.6628 69.7236 42.9586 69.5736 43.2414C69.3181 43.7238 68.989 44.158 68.5996 44.5263C68.3029 44.7971 67.9379 44.9696 67.5496 45.0225C67.3079 45.0569 67.062 45.0307 66.8316 44.9462C66.773 44.9233 66.7162 44.8957 66.6616 44.8635L66.5996 44.8359Z" fill="#EB996E"/>
<path d="M71.9792 29.1223C71.9792 29.1371 71.9112 29.1456 71.8052 29.1499C71.6706 29.1526 71.5366 29.1696 71.4052 29.2007C71.2784 29.2338 71.1615 29.3001 71.0652 29.3937C70.9932 29.4658 70.9612 29.5273 70.9452 29.5209C70.9292 29.5146 70.9452 29.4382 71.0112 29.3407C71.1043 29.2172 71.234 29.1306 71.3792 29.0947C71.5192 29.0582 71.6646 29.051 71.8072 29.0735C71.9152 29.0884 71.9792 29.1075 71.9792 29.1223Z" fill="#EB996E"/>
<path d="M71.3992 29.1457C71.3732 29.1351 71.3712 29.0693 71.3992 28.9994C71.4272 28.9294 71.4672 28.8806 71.4932 28.8912C71.5192 28.9018 71.5232 28.9676 71.4932 29.0375C71.4632 29.1075 71.4192 29.1563 71.3992 29.1457Z" fill="#EB996E"/>
<path d="M72.9156 29.9154C72.7215 29.9791 72.5188 30.0084 72.3156 30.0023C72.2517 30 72.1882 30.0141 72.1304 30.0432C72.0726 30.0724 72.0223 30.1158 71.9836 30.1698C71.9316 30.2567 71.9496 30.3288 71.9336 30.3331C71.9176 30.3373 71.8696 30.2631 71.9196 30.1359C71.9472 30.0643 71.9974 30.005 72.0616 29.9684C72.1357 29.9253 72.2174 29.8993 72.3016 29.892C72.5059 29.8589 72.7141 29.8668 72.9156 29.9154Z" fill="#EB996E"/>
<path d="M72.7838 30.6786C72.8118 30.6786 72.8278 30.8355 72.8198 31.0285C72.8118 31.2214 72.7818 31.3741 72.7538 31.3741C72.7258 31.3741 72.7078 31.215 72.7158 31.0221C72.7238 30.8292 72.7538 30.6765 72.7838 30.6786Z" fill="#EB996E"/>
<path d="M73.6133 36.3886L73.7913 35.7398C73.7994 35.7101 73.8147 35.6831 73.8357 35.6616C73.8566 35.6401 73.8825 35.6247 73.9108 35.617C73.939 35.6093 73.9687 35.6096 73.9968 35.6177C74.025 35.6258 74.0506 35.6416 74.0713 35.6635L74.3053 35.9158L74.4493 35.303C74.4578 35.2676 74.4763 35.2358 74.5024 35.212C74.5284 35.1881 74.5608 35.1733 74.5951 35.1696C74.6294 35.1659 74.6639 35.1735 74.694 35.1913C74.724 35.2091 74.7482 35.2362 74.7633 35.2691L75.0893 35.9942L73.6133 36.3886Z" fill="white"/>
<path d="M75.0933 36.272C74.8696 36.3866 74.632 36.4679 74.3873 36.5137C74.1506 36.5956 73.9041 36.6413 73.6553 36.6494C74.1157 36.4533 74.5997 36.3263 75.0933 36.272Z" fill="white"/>
<path d="M63.1996 32.6526C63.1996 32.6526 63.1255 32.7332 63.0215 32.9049C62.8819 33.1495 62.7901 33.4213 62.7516 33.7043C62.6946 34.1255 62.6825 34.5523 62.7155 34.9764C62.7375 35.4577 62.7736 35.9836 62.8296 36.5349C62.9243 37.4763 63.0651 38.4119 63.2516 39.3379C63.3216 39.6941 63.3856 39.974 63.4296 40.186C63.4496 40.2751 63.4676 40.3493 63.4816 40.4129C63.4956 40.4765 63.4976 40.4935 63.4976 40.4935C63.4976 40.4935 63.4876 40.468 63.4736 40.4171C63.4596 40.3662 63.4375 40.2772 63.4155 40.1903C63.3655 39.9931 63.2975 39.709 63.2155 39.3527C63.0211 38.4271 62.8762 37.4906 62.7816 36.5476C62.7256 35.9963 62.6915 35.4683 62.6715 34.987C62.6412 34.5626 62.656 34.1358 62.7155 33.7149C62.7585 33.4282 62.8565 33.154 63.0035 32.9091C63.0577 32.8147 63.1236 32.7284 63.1996 32.6526Z" fill="white"/>
<path d="M67.4092 29.7648L67.3632 29.7902L67.2312 29.8581C67.1172 29.9153 66.9512 30.0002 66.7532 30.1168C66.2371 30.422 65.7358 30.7546 65.2512 31.1133C64.6792 31.5374 64.1732 31.9233 63.8032 32.2031L63.3652 32.5318L63.2432 32.6187C63.2296 32.6303 63.2148 32.6402 63.1992 32.6484C63.2106 32.6342 63.2241 32.622 63.2392 32.6124L63.3552 32.5191L63.7852 32.1777C64.1512 31.8915 64.6552 31.4928 65.2272 31.0773C65.7126 30.717 66.2175 30.3871 66.7392 30.0892C66.9392 29.9768 67.1072 29.8963 67.2252 29.8433L67.3592 29.7839C67.3992 29.769 67.3992 29.7627 67.4092 29.7648Z" fill="white"/>
<path d="M76.9473 31.1451C76.9348 31.1377 76.9233 31.1284 76.9133 31.1175L76.8233 31.0348C76.7119 30.9351 76.595 30.8423 76.4733 30.7571C76.0673 30.4826 75.6365 30.2518 75.1873 30.068C74.7395 29.8799 74.2821 29.7185 73.8173 29.5845C73.6373 29.5315 73.4933 29.4934 73.3913 29.4679L73.2773 29.4361C73.2634 29.4331 73.25 29.4281 73.2373 29.4213H73.2793L73.3953 29.4446C73.4973 29.4658 73.6433 29.4997 73.8233 29.5485C74.2925 29.6741 74.7535 29.832 75.2033 30.0213C75.6551 30.2051 76.0864 30.4412 76.4893 30.7253C76.657 30.8456 76.8107 30.9865 76.9473 31.1451Z" fill="white"/>
<path d="M67.4653 47.3293C67.4381 47.3242 67.4118 47.3149 67.3873 47.3018C67.3178 47.2694 67.2509 47.2311 67.1873 47.1873C67.0795 47.1188 66.9856 47.0285 66.9108 46.9216C66.8359 46.8146 66.7817 46.6931 66.7513 46.5639C66.6964 46.3032 66.7238 46.0305 66.8293 45.7879C66.8597 45.7125 66.8987 45.6413 66.9453 45.5758C66.9773 45.5313 66.9993 45.5101 67.0013 45.5122C66.9467 45.6027 66.8979 45.6969 66.8553 45.7942C66.7623 46.0325 66.7406 46.2952 66.7933 46.5469C66.8505 46.7955 66.9932 47.0124 67.1933 47.1555C67.3593 47.2827 67.4693 47.3208 67.4653 47.3293Z" fill="white"/>
<path d="M66.8291 45.0331C66.8716 45.1172 66.9033 45.2071 66.9231 45.3002C66.9544 45.3894 66.9733 45.483 66.9791 45.578C66.9337 45.4958 66.9012 45.4063 66.8831 45.313C66.8503 45.2236 66.832 45.1289 66.8291 45.0331Z" fill="white"/>
<path d="M69.5339 92.5723L75.6339 92.5405L75.5239 70.1819L75.4659 47.4374L67.1999 47.3251L65.7139 50.2935C65.1059 51.4869 64.7183 52.7923 64.5719 54.1397C64.4719 55.1702 65.1999 58.5203 65.4519 59.3684L67.7259 67.0142L69.5339 92.5723Z" fill="#263238"/>
<path d="M77.2556 47.4651L83.9596 66.8383C84.3568 68.0865 84.4887 69.4124 84.3459 70.721C84.2031 72.0296 83.7892 73.2886 83.1336 74.4077L75.3496 90.522L70.9736 84.7166L77.4856 70.2986L71.7456 60.4286L72.7116 47.4948L75.4156 47.4481L77.2556 47.4651Z" fill="#263238"/>
<path d="M74.9092 53.9553C74.9092 53.9553 74.9092 53.9892 74.9092 54.055C74.9092 54.1207 74.9192 54.2225 74.9272 54.3476C74.9412 54.6084 74.9592 54.9837 74.9832 55.4692C75.0292 56.4509 75.0932 57.8609 75.1832 59.6017C75.2732 61.3424 75.3492 63.4182 75.4492 65.7293C75.4972 66.8828 75.5492 68.0935 75.6012 69.3487C75.6392 69.9848 75.6232 70.6209 75.6292 71.257C75.6352 71.893 75.6292 72.5631 75.6292 73.2288C75.6292 78.5571 75.6452 83.3808 75.6512 86.8772C75.6512 88.6201 75.6512 90.0322 75.6512 91.0139C75.6512 91.4994 75.6512 91.8769 75.6512 92.1398C75.6512 92.2627 75.6512 92.3518 75.6512 92.4324C75.6512 92.5129 75.6512 92.532 75.6512 92.532C75.6512 92.532 75.6512 92.4981 75.6512 92.4324V92.1398C75.6512 91.8769 75.6512 91.5037 75.6392 91.0139C75.6392 90.0322 75.6232 88.6222 75.6112 86.8793C75.5972 83.3829 75.5792 78.5593 75.5592 73.231C75.5592 72.5652 75.5592 71.9079 75.5592 71.2591C75.5592 70.6103 75.5712 69.9699 75.5332 69.3508C75.4832 68.0977 75.4332 66.887 75.3872 65.7336C75.2952 63.4267 75.2112 61.3509 75.1432 59.6038C75.0752 57.8567 75.0252 56.453 74.9872 55.4713C74.9712 54.9879 74.9592 54.6105 74.9512 54.3476C74.9512 54.2225 74.9512 54.1355 74.9512 54.055C74.9512 53.9744 74.9092 53.9553 74.9092 53.9553Z" fill="#455A64"/>
<path d="M74.7559 47.8467C74.7793 47.9149 74.7934 47.9863 74.7979 48.0587C74.8199 48.1944 74.8439 48.3916 74.8719 48.6376C74.9239 49.1273 74.9799 49.808 75.0119 50.5607C75.0439 51.3134 75.0459 51.9961 75.0359 52.4901C75.0359 52.7361 75.0219 52.9375 75.0119 53.0753C75.0139 53.1469 75.0058 53.2184 74.9879 53.2874C74.9627 53.0225 74.954 52.7562 74.9619 52.4901C74.9619 51.9961 74.9399 51.3176 74.9079 50.5649C74.8759 49.8122 74.8319 49.1358 74.7979 48.6566C74.7694 48.3877 74.7554 48.1173 74.7559 47.8467Z" fill="#455A64"/>
<path d="M73.4111 48.2835C73.4211 48.2983 73.3071 48.3534 73.2751 48.5252C73.2661 48.5718 73.2686 48.62 73.2822 48.6653C73.2959 48.7106 73.3203 48.7514 73.3531 48.7838C73.3926 48.8229 73.442 48.849 73.4951 48.8591C73.5483 48.8693 73.6031 48.863 73.6531 48.8411C73.701 48.8149 73.741 48.775 73.7686 48.7259C73.7962 48.6768 73.8102 48.6205 73.8091 48.5633C73.8072 48.5159 73.794 48.4697 73.7705 48.4293C73.747 48.3888 73.7142 48.3554 73.6751 48.3322C73.5937 48.2904 73.503 48.2736 73.4131 48.2835C73.4131 48.2835 73.4331 48.2559 73.4851 48.2389C73.5601 48.2195 73.6391 48.2277 73.7091 48.2622C73.7649 48.2869 73.8132 48.3275 73.8485 48.3795C73.8838 48.4316 73.9048 48.493 73.9091 48.557C73.917 48.6359 73.9014 48.7155 73.8644 48.7845C73.8274 48.8536 73.771 48.9086 73.703 48.9418C73.635 48.9751 73.5588 48.9849 73.4853 48.9698C73.4118 48.9548 73.3445 48.9157 73.2931 48.8581C73.2506 48.8132 73.2204 48.757 73.206 48.6953C73.1915 48.6336 73.1933 48.5689 73.2111 48.5082C73.2312 48.4289 73.2763 48.3592 73.3391 48.311C73.3791 48.2813 73.4091 48.2771 73.4111 48.2835Z" fill="#455A64"/>
<path d="M70.2116 47.8998C70.241 47.9666 70.2593 48.0383 70.2656 48.1118C70.2978 48.3021 70.3038 48.4964 70.2836 48.6885C70.2548 48.9746 70.1769 49.2528 70.0536 49.5091C69.9046 49.8279 69.6841 50.1031 69.4115 50.3105C69.1388 50.5179 68.8222 50.6512 68.4896 50.6986C68.2234 50.7407 67.9521 50.7299 67.6896 50.6668C67.512 50.6259 67.3409 50.5581 67.1816 50.4653C67.1214 50.4351 67.066 50.3951 67.0176 50.3466C67.2387 50.452 67.4691 50.5337 67.7056 50.5904C67.99 50.6531 68.2837 50.6526 68.5679 50.589C68.8522 50.5253 69.1209 50.3999 69.3572 50.2206C69.5934 50.0412 69.792 49.812 69.9404 49.5472C70.0889 49.2824 70.1839 48.9879 70.2196 48.6822C70.2431 48.4218 70.2404 48.1595 70.2116 47.8998Z" fill="#455A64"/>
<path d="M78.0591 49.757C77.9286 49.773 77.7964 49.7563 77.6731 49.7083C77.371 49.6074 77.0997 49.423 76.8871 49.174C76.6727 48.9261 76.5254 48.6213 76.4611 48.2919C76.4296 48.1575 76.4296 48.0171 76.4611 47.8827C76.4791 47.8827 76.4811 48.0375 76.5411 48.2749C76.6222 48.5818 76.7696 48.8644 76.9716 49.1003C77.1737 49.3362 77.4248 49.519 77.7051 49.6341C77.9131 49.721 78.0611 49.7358 78.0591 49.757Z" fill="#455A64"/>
<path d="M80.4417 70.642C80.3414 70.7633 80.2215 70.8645 80.0877 70.941C79.9473 71.0354 79.7942 71.1069 79.6337 71.153C79.4317 71.2098 79.2186 71.2039 79.0197 71.1361C78.6704 70.9964 78.371 70.7443 78.1637 70.4152C78.0685 70.2915 77.9897 70.1545 77.9297 70.0081C78.0376 70.1173 78.1354 70.2373 78.2217 70.3664C78.4341 70.665 78.7208 70.8948 79.0497 71.03C79.2176 71.0775 79.3928 71.0883 79.5647 71.0617C79.7366 71.0351 79.9016 70.9717 80.0497 70.8753C80.176 70.7896 80.3069 70.7118 80.4417 70.642Z" fill="#455A64"/>
<path d="M78.9134 71.8782C78.677 71.6187 78.4659 71.3345 78.2834 71.0301C78.0731 70.7466 77.8895 70.442 77.7354 70.1205C77.9733 70.3791 78.1851 70.6633 78.3674 70.9686C78.5793 71.2504 78.7624 71.5553 78.9134 71.8782Z" fill="#455A64"/>
<path d="M68.6656 54.7037C68.6376 54.7143 68.5676 54.5934 68.5056 54.4302C68.4436 54.2669 68.4176 54.1291 68.4436 54.1164C68.4696 54.1037 68.5416 54.2266 68.6016 54.3899C68.6616 54.5532 68.6916 54.7037 68.6656 54.7037Z" fill="#FAFAFA"/>
<path d="M72.5374 55.2933C72.5074 55.2933 72.4854 55.1894 72.4854 55.0601C72.4854 54.9307 72.5074 54.8247 72.5374 54.8247C72.5674 54.8247 72.5894 54.9307 72.5894 55.0601C72.5894 55.1894 72.5654 55.2933 72.5374 55.2933Z" fill="#FAFAFA"/>
<path d="M70.9458 57.5237C70.9178 57.5237 70.8858 57.3965 70.8758 57.2333C70.8658 57.07 70.8758 56.9385 70.9078 56.9364C70.9398 56.9343 70.9698 57.0636 70.9798 57.2269C70.9898 57.3902 70.9738 57.5216 70.9458 57.5237Z" fill="#FAFAFA"/>
<path d="M68.038 59.1564C68.014 59.1755 67.932 59.0971 67.824 59.0165C67.716 58.9359 67.624 58.8744 67.624 58.8448C67.624 58.8151 67.756 58.832 67.878 58.9253C68 59.0186 68.062 59.1564 68.038 59.1564Z" fill="#FAFAFA"/>
<path d="M73.1634 61.2363C73.1394 61.2194 73.1634 61.1282 73.2314 61.0243C73.2994 60.9204 73.3614 60.861 73.3854 60.878C73.4094 60.895 73.3854 60.9882 73.3174 61.09C73.2494 61.1918 73.1874 61.2533 73.1634 61.2363Z" fill="#FAFAFA"/>
<path d="M69.9993 61.8238C69.9713 61.8238 69.9473 61.6478 69.9473 61.4336C69.9473 61.2195 69.9713 61.0414 69.9993 61.0414C70.0273 61.0414 70.0513 61.2174 70.0513 61.4336C70.0513 61.6499 70.0213 61.8238 69.9993 61.8238Z" fill="#FAFAFA"/>
<path d="M68.9633 64.2027C68.9473 64.226 68.8433 64.1772 68.7313 64.0903C68.6193 64.0034 68.5313 63.9143 68.5573 63.8889C68.5833 63.8634 68.6793 63.9143 68.7913 64.0013C68.9033 64.0882 68.9813 64.1772 68.9633 64.2027Z" fill="#FAFAFA"/>
<path d="M72.1674 65.0295C72.1794 65.0571 72.1154 65.1144 72.0234 65.1589C71.9314 65.2034 71.8474 65.214 71.8354 65.1864C71.8234 65.1589 71.8894 65.1016 71.9814 65.0571C72.0734 65.0126 72.1574 65.002 72.1674 65.0295Z" fill="#FAFAFA"/>
<path d="M69.9999 68.9098C69.9759 68.9226 69.8719 68.7593 69.7699 68.543C69.6679 68.3267 69.6059 68.1402 69.6319 68.119C69.6579 68.0978 69.7619 68.2695 69.8619 68.4858C69.9619 68.702 70.0179 68.8865 69.9999 68.9098Z" fill="#FAFAFA"/>
<path d="M73.5337 68.5494C73.5077 68.5345 73.5537 68.3925 73.6337 68.2292C73.7137 68.066 73.8037 67.9472 73.8337 67.9621C73.8637 67.9769 73.8136 68.119 73.7316 68.2822C73.6496 68.4455 73.5577 68.5642 73.5337 68.5494Z" fill="#FAFAFA"/>
<path d="M71.9837 71.8336C71.9537 71.8336 71.9577 71.6619 71.9257 71.4626C71.8937 71.2633 71.8457 71.1042 71.8737 71.0894C71.9017 71.0745 71.9977 71.2251 72.0297 71.4456C72.0617 71.6661 72.0117 71.84 71.9837 71.8336Z" fill="#FAFAFA"/>
<path d="M70.3234 73.7101C70.3034 73.7313 70.2034 73.6507 70.1014 73.5319C69.9994 73.4132 69.9334 73.3008 69.9554 73.2796C69.9774 73.2584 70.0754 73.339 70.1774 73.4577C70.2794 73.5765 70.3454 73.6889 70.3234 73.7101Z" fill="#FAFAFA"/>
<path d="M74.3519 74.4225C74.3319 74.4013 74.4059 74.2868 74.5179 74.1659C74.6299 74.0451 74.7339 73.9666 74.7559 73.9878C74.7779 74.009 74.7019 74.1256 74.5919 74.2444C74.4819 74.3631 74.3739 74.4437 74.3519 74.4225Z" fill="#FAFAFA"/>
<path d="M72.0356 77.2319C72.0076 77.2319 72.0076 77.0644 72.0356 76.8693C72.0636 76.6743 72.1077 76.5216 72.1377 76.5258C72.1677 76.5301 72.1657 76.6912 72.1377 76.8863C72.1097 77.0814 72.0636 77.2361 72.0356 77.2319Z" fill="#FAFAFA"/>
<path d="M70.4775 78.5954C70.4515 78.6102 70.3635 78.4999 70.2775 78.3494C70.1915 78.1989 70.1475 78.0653 70.1715 78.0504C70.1955 78.0356 70.2835 78.1437 70.3715 78.2943C70.4595 78.4448 70.5015 78.5784 70.4775 78.5954Z" fill="#FAFAFA"/>
<path d="M74.2319 80.3149C74.2499 80.3403 74.1479 80.4484 74.0039 80.5566C73.8599 80.6647 73.7339 80.7326 73.7159 80.7071C73.6979 80.6817 73.8019 80.5735 73.9439 80.4654C74.0859 80.3573 74.2159 80.2915 74.2319 80.3149Z" fill="#FAFAFA"/>
<path d="M71.1034 82.5476C71.0754 82.537 71.1034 82.3674 71.1294 82.1553C71.1554 81.9433 71.1394 81.7695 71.1694 81.7652C71.1994 81.761 71.2514 81.9391 71.2314 82.1659C71.2114 82.3928 71.1294 82.5603 71.1034 82.5476Z" fill="#FAFAFA"/>
<path d="M72.3532 85.7534C72.3292 85.7724 72.2452 85.7003 72.1632 85.5922C72.0812 85.4841 72.0352 85.3802 72.0572 85.3611C72.0792 85.342 72.1632 85.4141 72.2452 85.5222C72.3272 85.6304 72.3752 85.7343 72.3532 85.7534Z" fill="#FAFAFA"/>
<path d="M70.9872 87.9034C70.9632 87.9204 70.8532 87.7953 70.7412 87.6214C70.6292 87.4475 70.5592 87.2949 70.5812 87.2779C70.6032 87.2609 70.7152 87.386 70.8272 87.5599C70.9392 87.7338 71.0112 87.8864 70.9872 87.9034Z" fill="#FAFAFA"/>
<path d="M74.7492 85.2042C74.7232 85.1936 74.7252 85.1151 74.7492 85.0303C74.7732 84.9455 74.8272 84.8819 74.8552 84.8925C74.8832 84.9031 74.8792 84.9816 74.8552 85.0685C74.8312 85.1554 74.7772 85.2169 74.7492 85.2042Z" fill="#FAFAFA"/>
<path d="M73.0892 90.3248C73.0632 90.31 73.1132 90.1594 73.1532 89.9707C73.1932 89.782 73.2072 89.623 73.2372 89.6209C73.2672 89.6187 73.2972 89.7905 73.2552 89.994C73.2132 90.1976 73.1132 90.3418 73.0892 90.3248Z" fill="#FAFAFA"/>
<path d="M74.1697 57.5577C74.1437 57.5705 74.0797 57.4856 74.0277 57.3669C73.9757 57.2482 73.9537 57.1422 73.9797 57.1294C74.0057 57.1167 74.0697 57.2015 74.1217 57.3203C74.1737 57.439 74.1997 57.545 74.1697 57.5577Z" fill="#FAFAFA"/>
<path d="M71.3992 50.9551C71.4152 50.9805 71.2752 51.0993 71.1252 51.2689C70.9752 51.4385 70.8732 51.5954 70.8472 51.5806C70.8212 51.5657 70.8892 51.3686 71.0472 51.1947C71.2052 51.0208 71.3792 50.9275 71.3992 50.9551Z" fill="#FAFAFA"/>
<path d="M73.8659 50.8872C73.8359 50.8872 73.7899 50.7664 73.7199 50.6222C73.6499 50.478 73.5859 50.3593 73.6079 50.3381C73.6299 50.3169 73.7379 50.4102 73.8079 50.5713C73.8779 50.7324 73.8919 50.8703 73.8659 50.8872Z" fill="#FAFAFA"/>
<path d="M66.1653 53.0308C66.1393 53.0181 66.1653 52.8782 66.2273 52.717C66.2893 52.5559 66.3573 52.4308 66.3853 52.4435C66.4133 52.4562 66.3853 52.5941 66.3233 52.7573C66.2613 52.9206 66.1993 53.0414 66.1653 53.0308Z" fill="#FAFAFA"/>
<path d="M66.4159 56.2324C66.3959 56.2557 66.2819 56.1879 66.1599 56.0797C66.0379 55.9716 65.9599 55.8677 65.9719 55.8423C65.9839 55.8168 66.1059 55.8868 66.2279 55.9949C66.3499 56.1031 66.4339 56.2091 66.4159 56.2324Z" fill="#FAFAFA"/>
<path d="M71.4674 48.4128C71.4414 48.4128 71.3854 48.3449 71.3454 48.2368C71.3054 48.1287 71.2934 48.0248 71.3194 48.0248C71.3454 48.0248 71.4014 48.0926 71.4414 48.2008C71.4814 48.3089 71.4934 48.4022 71.4674 48.4128Z" fill="#FAFAFA"/>
<path d="M76.3054 49.9776C76.2774 49.9776 76.2794 49.844 76.3054 49.6935C76.3314 49.5429 76.3834 49.4242 76.4114 49.4305C76.4394 49.4369 76.4374 49.5662 76.4114 49.7168C76.3854 49.8673 76.3334 49.9839 76.3054 49.9776Z" fill="#FAFAFA"/>
<path d="M77.4411 52.4011C77.4151 52.3884 77.4511 52.2315 77.5231 52.047C77.5951 51.8625 77.6731 51.7247 77.6991 51.7353C77.7251 51.7459 77.6991 51.9049 77.6191 52.0894C77.5391 52.2739 77.4691 52.4117 77.4411 52.4011Z" fill="#FAFAFA"/>
<path d="M76.6317 54.356C76.6057 54.3687 76.5097 54.2224 76.4177 54.0294C76.3257 53.8365 76.2737 53.6647 76.2997 53.652C76.3257 53.6393 76.4197 53.7856 76.5117 53.9785C76.6037 54.1715 76.6577 54.3411 76.6317 54.356Z" fill="#FAFAFA"/>
<path d="M78.3639 56.3109C78.3379 56.3003 78.3639 56.1773 78.4079 56.0374C78.4519 55.8974 78.5219 55.7914 78.5499 55.802C78.5779 55.8126 78.5499 55.9356 78.5059 56.0755C78.4619 56.2155 78.3999 56.3215 78.3639 56.3109Z" fill="#FAFAFA"/>
<path d="M76.8157 58.2255C76.7917 58.2425 76.7297 58.1853 76.6797 58.1004C76.6297 58.0156 76.6057 57.9308 76.6317 57.9139C76.6577 57.8969 76.7157 57.9541 76.7677 58.0411C76.8197 58.128 76.8397 58.2107 76.8157 58.2255Z" fill="#FAFAFA"/>
<path d="M77.1454 62.1778C77.1254 62.1969 76.9994 62.093 76.8674 61.9404C76.7354 61.7877 76.6454 61.6499 76.6674 61.6287C76.6894 61.6075 76.8134 61.7135 76.9454 61.8661C77.0774 62.0188 77.1674 62.1566 77.1454 62.1778Z" fill="#FAFAFA"/>
<path d="M79.1756 59.9069C79.1536 59.926 79.0436 59.82 78.9316 59.6673C78.8196 59.5146 78.7476 59.3789 78.7696 59.3598C78.7916 59.3408 78.9016 59.4489 79.0136 59.5994C79.1256 59.75 79.1996 59.8899 79.1756 59.9069Z" fill="#FAFAFA"/>
<path d="M80.2895 63.0387C80.2635 63.026 80.3095 62.867 80.3915 62.6846C80.4735 62.5023 80.5595 62.3623 80.5915 62.3751C80.6235 62.3878 80.5735 62.5489 80.4915 62.7313C80.4095 62.9136 80.3155 63.0536 80.2895 63.0387Z" fill="#FAFAFA"/>
<path d="M77.9213 65.617C77.8953 65.6318 77.8033 65.5152 77.6753 65.3901C77.5473 65.265 77.4293 65.1781 77.4413 65.1463C77.4533 65.1145 77.6053 65.1717 77.7453 65.3095C77.8853 65.4473 77.9453 65.6021 77.9213 65.617Z" fill="#FAFAFA"/>
<path d="M78.0699 68.2738C78.0699 68.3034 77.9699 68.3289 77.8479 68.3289C77.7259 68.3289 77.6279 68.3034 77.6279 68.2738C77.6279 68.2441 77.7259 68.2186 77.8479 68.2186C77.9699 68.2186 78.0699 68.2441 78.0699 68.2738Z" fill="#FAFAFA"/>
<path d="M80.5031 67.5316C80.4771 67.5168 80.5291 67.3832 80.5671 67.2178C80.6051 67.0525 80.6211 66.9083 80.6511 66.9061C80.6811 66.904 80.7131 67.0588 80.6691 67.2433C80.6251 67.4277 80.5251 67.5486 80.5031 67.5316Z" fill="#FAFAFA"/>
<path d="M82.921 68.4243C82.895 68.4349 82.821 68.2844 82.757 68.0914C82.693 67.8985 82.663 67.7331 82.689 67.7246C82.715 67.7161 82.791 67.8624 82.855 68.0554C82.919 68.2483 82.949 68.4137 82.921 68.4243Z" fill="#FAFAFA"/>
<path d="M82.5354 72.0711C82.5114 72.0563 82.5734 71.8782 82.6734 71.6725C82.7734 71.4669 82.8734 71.3121 82.9034 71.3269C82.9334 71.3418 82.8674 71.5199 82.7654 71.7234C82.6634 71.927 82.5614 72.0902 82.5354 72.0711Z" fill="#FAFAFA"/>
<path d="M80.33 74.2106C80.304 74.2212 80.222 74.0749 80.146 73.8819C80.07 73.689 80.032 73.5236 80.06 73.5109C80.088 73.4982 80.168 73.6466 80.242 73.8395C80.316 74.0325 80.356 74.2106 80.33 74.2106Z" fill="#FAFAFA"/>
<path d="M77.8856 75.0395C77.8856 75.0692 77.8016 75.0946 77.6996 75.0946C77.5976 75.0946 77.5156 75.0692 77.5156 75.0395C77.5156 75.0098 77.5996 74.9844 77.6996 74.9844C77.7996 74.9844 77.8856 75.0098 77.8856 75.0395Z" fill="#FAFAFA"/>
<path d="M79.2855 78.4512C79.2595 78.4512 79.2035 78.3345 79.1615 78.1734C79.1195 78.0123 79.1115 77.8723 79.1395 77.866C79.1675 77.8596 79.2215 77.9826 79.2635 78.1437C79.3055 78.3049 79.3135 78.4342 79.2855 78.4512Z" fill="#FAFAFA"/>
<path d="M77.5159 77.3062C77.4919 77.2914 77.5159 77.1917 77.5819 77.0836C77.6479 76.9754 77.7139 76.9012 77.7379 76.9161C77.7619 76.9309 77.7379 77.0327 77.6719 77.1408C77.6059 77.249 77.5419 77.3232 77.5159 77.3062Z" fill="#FAFAFA"/>
<path d="M77.4797 81.0611C77.4517 81.0611 77.4117 80.9191 77.3917 80.7346C77.3717 80.5501 77.3777 80.3996 77.4057 80.3954C77.4337 80.3911 77.4737 80.5374 77.4937 80.7219C77.5137 80.9063 77.5077 81.0569 77.4797 81.0611Z" fill="#FAFAFA"/>
</svg>
