<svg width="18" height="18" viewBox="0 0 18 18" fill="none" xmlns="http://www.w3.org/2000/svg">
<g clip-path="url(#clip0_121_2168)">
<path d="M8.67832 4.47658C11.4051 1.10741 16.2786 5.90201 12.4325 8.50935C13.2173 9.75339 14.6589 12.6948 13.0142 13.7455C11.3844 14.7222 9.49503 15.5738 7.55896 15.3967C6.09372 15.227 6.03477 13.5737 5.77904 12.4289C5.6291 11.7193 5.54911 10.9953 5.38591 10.2894C1.90137 11.0186 1.44355 7.06877 4.40112 5.96963C4.43939 5.95772 4.48239 5.91454 4.49587 5.87627C5.01828 4.13846 7.21152 3.49303 8.67832 4.47658ZM5.4149 5.83628C5.85618 5.83179 7.32258 6.24251 6.87875 6.87984C6.77197 7.01057 6.59579 7.05043 6.43158 6.97847C5.29329 6.26578 3.77251 6.81692 3.38287 8.10043C2.85926 9.9504 5.84658 9.79339 6.39879 8.49924C6.63836 8.02095 7.35815 8.24423 7.23736 8.77596C7.05862 9.28082 6.64422 9.65831 6.19734 9.93411C6.04494 10.0265 6.18521 10.269 6.19597 10.4113C6.42695 11.3497 6.60342 12.3003 6.79437 13.2475C6.81442 13.3491 6.85111 13.3885 6.96211 13.3892C8.92998 13.4136 10.9154 12.8752 12.4713 11.631C12.7889 11.372 12.7946 11.3771 12.6759 10.9851C12.5444 10.551 12.4031 10.1123 12.099 9.77023C11.8938 9.53951 11.765 9.2751 11.6176 9.01558C11.5819 8.92491 11.5432 8.88585 11.4375 8.91673C10.9665 9.03311 10.4877 9.03514 10.0095 8.97748C9.43854 8.90987 9.49194 8.09822 10.0758 8.10519C11.8209 8.42304 13.669 6.90733 12.6995 5.17594C12.0378 4.14193 10.3679 3.76491 9.39423 4.87817C9.13081 5.07615 9.89639 5.53573 9.78067 6.57926C9.76181 6.82508 9.56679 7.00423 9.34115 7.00284C9.07368 7.0065 8.87784 6.73806 8.89848 6.46521C8.82702 4.73809 6.1676 4.33568 5.4149 5.83628ZM12.8415 11.9756C11.0889 13.2706 9.12905 13.8711 6.96177 13.8631C7.47009 15.5057 10.7088 13.953 11.7456 13.496C12.3503 13.2024 12.9541 12.7368 12.8415 11.9756Z" fill="#037EEE"/>
<path d="M1.86697 14.1974C1.38474 14.1983 1.28732 13.687 1.59855 13.4286C2.20247 12.952 2.72554 12.3416 3.41586 11.9907C3.75806 11.8304 4.0725 12.2397 3.86014 12.5404C3.37684 13.1002 2.74457 13.5226 2.20309 14.0268C2.08927 14.125 1.96892 14.2016 1.86697 14.1974Z" fill="#037EEE"/>
<path d="M17.0136 8.36608C17.0059 8.49572 16.9172 8.61823 16.7733 8.69833C16.1634 9.03789 15.5535 9.37738 14.94 9.71034C14.6805 9.85116 14.4693 9.81606 14.3554 9.63345C14.1378 9.31204 14.6194 8.98614 14.8962 8.83545C15.3619 8.55613 15.8275 8.27647 16.2984 8.00623C16.6026 7.80789 17.0327 7.92527 17.0136 8.36608Z" fill="#037EEE"/>
<path d="M6.74245 2.81619C6.74419 3.02093 6.65273 3.16043 6.50432 3.21354C6.35507 3.26696 6.18779 3.22333 6.0837 3.09591C5.76085 2.55354 5.52623 1.95754 5.23958 1.39421C4.96469 0.864649 5.71049 0.470955 5.97173 1.01465C6.22724 1.60893 6.54585 2.20369 6.74245 2.81619Z" fill="#037EEE"/>
<path d="M16.3314 14.5378C16.3295 14.9441 15.848 15.0361 15.5636 14.8055C15.3285 14.6761 15.0934 14.5464 14.8599 14.4139C14.6558 14.3172 14.4785 14.119 14.5781 13.8827C14.6316 13.7392 14.7712 13.644 14.9316 13.6522C15.3613 13.7154 15.7287 14.0041 16.1215 14.1783C16.2637 14.2533 16.332 14.3892 16.3314 14.5378Z" fill="#037EEE"/>
<path d="M13.7792 3.60454C12.9267 3.49808 13.6783 2.62853 13.8902 2.24468C14.1958 1.79188 14.8713 2.24216 14.5739 2.70225C14.3864 2.94227 14.0887 3.60204 13.7792 3.60454Z" fill="#037EEE"/>
<path d="M6.15089 17.235C5.81274 17.2314 5.609 16.9196 5.74812 16.6404C5.84639 16.4432 5.98089 16.2607 6.11965 16.088C6.23103 15.9495 6.41133 15.9277 6.55435 15.9992C6.70109 16.0726 6.79794 16.2398 6.7429 16.4123C6.67179 16.6352 6.57324 16.8518 6.46338 17.0589C6.39642 17.1851 6.25989 17.2349 6.15089 17.235Z" fill="#037EEE"/>
<path d="M1.79382 6.62786C1.6099 6.60557 1.37838 6.50826 1.16371 6.38158C0.990853 6.27958 0.940472 6.06064 1.01746 5.88758C1.24493 5.39619 1.79105 5.77639 2.11277 5.95453C2.46842 6.20415 2.27537 6.68286 1.79382 6.62786Z" fill="#037EEE"/>
</g>
<defs>
<clipPath id="clip0_121_2168">
<rect width="18" height="18" fill="white"/>
</clipPath>
</defs>
</svg>
