<svg width="24" height="24" viewBox="0 0 24 24" fill="none" xmlns="http://www.w3.org/2000/svg">
<path fill-rule="evenodd" clip-rule="evenodd" d="M14.9744 15.942C14.8915 16.0125 14.825 16.0993 14.7795 16.1966C14.734 16.2939 14.7104 16.3995 14.7104 16.5063C14.7104 16.6132 14.734 16.7188 14.7795 16.8161C14.825 16.9134 14.8915 17.0002 14.9744 17.0707L21.168 22.3168C21.2799 22.4115 21.4177 22.4729 21.5648 22.4939C21.7119 22.5148 21.8621 22.4943 21.9975 22.4348C22.1329 22.3752 22.2477 22.2792 22.3282 22.1582C22.4087 22.0372 22.4516 21.8964 22.4516 21.7524V11.2602C22.4516 11.1163 22.4087 10.9754 22.3282 10.8544C22.2477 10.7334 22.1329 10.6374 21.9975 10.5779C21.8621 10.5184 21.7119 10.4978 21.5648 10.5188C21.4177 10.5397 21.2799 10.6012 21.168 10.6959L14.9744 15.942Z" fill="white"/>
<path fill-rule="evenodd" clip-rule="evenodd" d="M14.9744 15.942C14.8915 16.0125 14.825 16.0993 14.7795 16.1966C14.734 16.2939 14.7104 16.3995 14.7104 16.5063C14.7104 16.6132 14.734 16.7188 14.7795 16.8161C14.825 16.9134 14.8915 17.0002 14.9744 17.0707L21.168 22.3168C21.2799 22.4115 21.4177 22.4729 21.5648 22.4939C21.7119 22.5148 21.8621 22.4943 21.9975 22.4348C22.1329 22.3752 22.2477 22.2792 22.3282 22.1582C22.4087 22.0372 22.4516 21.8964 22.4516 21.7524V11.2602C22.4516 11.1163 22.4087 10.9754 22.3282 10.8544C22.2477 10.7334 22.1329 10.6374 21.9975 10.5779C21.8621 10.5184 21.7119 10.4978 21.5648 10.5188C21.4177 10.5397 21.2799 10.6012 21.168 10.6959L14.9744 15.942Z" fill="black" fill-opacity="0.1"/>
<path fill-rule="evenodd" clip-rule="evenodd" d="M16.258 11.2595C16.258 10.6632 16.0133 10.0913 15.5778 9.66968C15.1422 9.24804 14.5514 9.01115 13.9355 9.01115H3.09675C2.48076 9.01115 1.89 9.24804 1.45444 9.66968C1.01887 10.0913 0.77417 10.6632 0.77417 11.2595V21.7517C0.77417 22.348 1.01887 22.9198 1.45444 23.3415C1.89 23.7631 2.48076 24 3.09675 24H13.9355C14.5514 24 15.1422 23.7631 15.5778 23.3415C16.0133 22.9198 16.258 22.348 16.258 21.7517V11.2595Z" fill="white"/>
<path d="M0.774146 0.768053C0.346571 0.768053 -4.68493e-05 1.10359 -4.68493e-05 1.5175C-4.68493e-05 1.9314 0.346571 2.26694 0.774146 2.26694C1.20172 2.26694 1.54834 1.9314 1.54834 1.5175C1.54834 1.10359 1.20172 0.768053 0.774146 0.768053Z" fill="white"/>
<path fill-rule="evenodd" clip-rule="evenodd" d="M11.2677 17.1299C11.3737 17.0614 11.4607 16.9687 11.5208 16.8599C11.5809 16.7512 11.6124 16.6297 11.6124 16.5063C11.6124 16.383 11.5809 16.2615 11.5208 16.1527C11.4607 16.044 11.3737 15.9512 11.2677 15.8828L6.62253 12.885C6.50595 12.8099 6.37049 12.7668 6.23061 12.7604C6.09073 12.7539 5.95167 12.7842 5.82821 12.8482C5.70475 12.9122 5.60153 13.0074 5.52954 13.1237C5.45756 13.24 5.41951 13.373 5.41943 13.5086V19.5041C5.41951 19.6397 5.45756 19.7727 5.52954 19.8889C5.60153 20.0052 5.70475 20.1004 5.82821 20.1644C5.95167 20.2284 6.09073 20.2588 6.23061 20.2523C6.37049 20.2458 6.50595 20.2027 6.62253 20.1276L11.2677 17.1299Z" fill="#037EEE"/>
<path fill-rule="evenodd" clip-rule="evenodd" d="M3.09668 0.768043V6.76358C3.09668 6.96234 3.17825 7.15297 3.32344 7.29352C3.46862 7.43406 3.66554 7.51302 3.87087 7.51302H6.19345C6.39878 7.51302 6.5957 7.43406 6.74089 7.29352C6.88608 7.15297 6.96765 6.96234 6.96765 6.76358C6.96765 6.56482 6.88608 6.37419 6.74089 6.23364C6.5957 6.0931 6.39878 6.01414 6.19345 6.01414H4.64507V0.768043C4.64507 0.569278 4.5635 0.378654 4.41831 0.238106C4.27312 0.0975588 4.0762 0.0186005 3.87087 0.0186005C3.66554 0.0186005 3.46862 0.0975588 3.32344 0.238106C3.17825 0.378654 3.09668 0.569278 3.09668 0.768043ZM8.51603 0.768043V6.76358C8.51603 6.96234 8.5976 7.15297 8.74279 7.29352C8.88798 7.43406 9.0849 7.51302 9.29023 7.51302C9.49556 7.51302 9.69248 7.43406 9.83766 7.29352C9.98285 7.15297 10.0644 6.96234 10.0644 6.76358V0.768043C10.0644 0.569278 9.98285 0.378654 9.83766 0.238106C9.69248 0.0975588 9.49556 0.0186005 9.29023 0.0186005C9.0849 0.0186005 8.88798 0.0975588 8.74279 0.238106C8.5976 0.378654 8.51603 0.569278 8.51603 0.768043ZM19.3547 0.768043V6.76358C19.3547 6.96234 19.4363 7.15297 19.5815 7.29352C19.7267 7.43406 19.9236 7.51302 20.1289 7.51302C20.3343 7.51302 20.5312 7.43406 20.6764 7.29352C20.8216 7.15297 20.9031 6.96234 20.9031 6.76358V0.768043C20.9031 0.569278 20.8216 0.378654 20.6764 0.238106C20.5312 0.0975588 20.3343 0.0186005 20.1289 0.0186005C19.9236 0.0186005 19.7267 0.0975588 19.5815 0.238106C19.4363 0.378654 19.3547 0.569278 19.3547 0.768043Z" fill="white"/>
<path fill-rule="evenodd" clip-rule="evenodd" d="M20.1291 1.51749H23.2258C23.4312 1.51749 23.6281 1.43853 23.7733 1.29798C23.9185 1.15744 24 0.966811 24 0.768047C24 0.569282 23.9185 0.378658 23.7733 0.23811C23.6281 0.0975627 23.4312 0.0186045 23.2258 0.0186045H20.1291C19.9237 0.0186045 19.7268 0.0975627 19.5816 0.23811C19.4364 0.378658 19.3549 0.569282 19.3549 0.768047C19.3549 0.966811 19.4364 1.15744 19.5816 1.29798C19.7268 1.43853 19.9237 1.51749 20.1291 1.51749ZM20.1291 7.51303H23.2258C23.4312 7.51303 23.6281 7.43407 23.7733 7.29352C23.9185 7.15297 24 6.96235 24 6.76358C24 6.56482 23.9185 6.3742 23.7733 6.23365C23.6281 6.0931 23.4312 6.01414 23.2258 6.01414H20.1291C19.9237 6.01414 19.7268 6.0931 19.5816 6.23365C19.4364 6.3742 19.3549 6.56482 19.3549 6.76358C19.3549 6.96235 19.4364 7.15297 19.5816 7.29352C19.7268 7.43407 19.9237 7.51303 20.1291 7.51303ZM20.1291 4.51526H22.7087C22.914 4.51526 23.1109 4.4363 23.2561 4.29575C23.4013 4.1552 23.4829 3.96458 23.4829 3.76582C23.4829 3.56705 23.4013 3.37643 23.2561 3.23588C23.1109 3.09533 22.914 3.01637 22.7087 3.01637H20.1291C19.9237 3.01637 19.7268 3.09533 19.5816 3.23588C19.4364 3.37643 19.3549 3.56705 19.3549 3.76582C19.3549 3.96458 19.4364 4.1552 19.5816 4.29575C19.7268 4.4363 19.9237 4.51526 20.1291 4.51526ZM11.6625 1.0311L13.985 7.02664C14.0405 7.16932 14.1395 7.29225 14.269 7.37902C14.3985 7.46579 14.5522 7.51227 14.7097 7.51227C14.8672 7.51227 15.0209 7.46579 15.1504 7.37902C15.2799 7.29225 15.3789 7.16932 15.4343 7.02664L17.7569 1.0311C17.7958 0.938346 17.8151 0.839001 17.8136 0.73892C17.8122 0.638839 17.79 0.540048 17.7485 0.448388C17.7069 0.356728 17.6469 0.27405 17.5718 0.205233C17.4967 0.136417 17.4081 0.0828636 17.3113 0.0477194C17.2145 0.0125753 17.1114 -0.00344205 17.0081 0.000616283C16.9048 0.00467462 16.8034 0.0287231 16.7098 0.0713453C16.6163 0.113968 16.5325 0.174301 16.4634 0.24878C16.3943 0.323259 16.3414 0.410377 16.3076 0.504994L14.7097 4.62917L13.1118 0.504994C13.078 0.410377 13.0251 0.323259 12.956 0.24878C12.8869 0.174301 12.8031 0.113968 12.7096 0.0713453C12.616 0.0287231 12.5146 0.00467462 12.4113 0.000616283C12.308 -0.00344205 12.2049 0.0125753 12.1081 0.0477194C12.0113 0.0828636 11.9227 0.136417 11.8476 0.205233C11.7725 0.27405 11.7125 0.356728 11.6709 0.448388C11.6294 0.540048 11.6072 0.638839 11.6058 0.73892C11.6043 0.839001 11.6236 0.938346 11.6625 1.0311Z" fill="white"/>
</svg>
