<svg width="24" height="24" viewBox="0 0 24 24" fill="none" xmlns="http://www.w3.org/2000/svg">
<path d="M2.29004 7.77998V17.51C2.29004 19.41 3.64004 20.19 5.28004 19.25L7.63004 17.91C8.14004 17.62 8.99004 17.59 9.52004 17.86L14.7701 20.49C15.3001 20.75 16.1501 20.73 16.6601 20.44L20.9901 17.96C21.5401 17.64 22.0001 16.86 22.0001 16.22V6.48998C22.0001 4.58998 20.6501 3.80998 19.0101 4.74998L16.6601 6.08998C16.1501 6.37998 15.3001 6.40998 14.7701 6.13998L9.52004 3.51998C8.99004 3.25998 8.14004 3.27998 7.63004 3.56998L3.30004 6.04998C2.74004 6.36998 2.29004 7.14998 2.29004 7.77998Z" stroke="#037EEE" stroke-width="1.5" stroke-linecap="round" stroke-linejoin="round"/>
<path d="M8.56006 4V17" stroke="#037EEE" stroke-width="1.5" stroke-linecap="round" stroke-linejoin="round"/>
<path d="M15.73 6.62012V20.0001" stroke="#037EEE" stroke-width="1.5" stroke-linecap="round" stroke-linejoin="round"/>
</svg>
