<svg width="65" height="65" viewBox="0 0 65 65" fill="none" xmlns="http://www.w3.org/2000/svg">
<rect width="65" height="65" rx="18" fill="#FF653E" fill-opacity="0.1"/>
<path d="M40.8914 35.417C41.3223 35.4168 41.7489 35.5015 42.147 35.6663C42.5451 35.831 42.9068 36.0726 43.2115 36.3771C43.5163 36.6817 43.758 37.0433 43.9229 37.4414C44.0878 37.8394 44.1727 38.266 44.1727 38.6968V39.5353C44.1727 40.8391 43.706 42.102 42.8573 43.0908C40.5677 45.7653 37.0866 47.0851 32.5002 47.0851C27.9123 47.0851 24.4327 45.7654 22.1489 43.0893C21.3037 42.0992 20.8393 40.8401 20.8394 39.5383V38.6968C20.8392 38.266 20.9239 37.8393 21.0886 37.4412C21.2533 37.0431 21.4949 36.6814 21.7995 36.3767C22.104 36.072 22.4657 35.8303 22.8637 35.6654C23.2617 35.5004 23.6883 35.4156 24.1191 35.4156H40.8914V35.417ZM40.8914 37.6045H24.1191C23.9756 37.6043 23.8334 37.6324 23.7007 37.6872C23.568 37.7421 23.4474 37.8225 23.3458 37.9239C23.2443 38.0254 23.1637 38.1459 23.1087 38.2785C23.0537 38.4111 23.0254 38.5532 23.0254 38.6968V39.5383C23.0254 40.3199 23.3054 41.0754 23.8129 41.6689C25.6402 43.8097 28.5073 44.8976 32.5002 44.8976C36.4931 44.8976 39.3631 43.8097 41.1948 41.6689C41.7037 41.0745 41.9836 40.3179 41.9837 39.5353V38.6968C41.9839 38.5532 41.9558 38.4111 41.901 38.2784C41.8462 38.1457 41.7658 38.0251 41.6643 37.9235C41.5629 37.8219 41.4424 37.7413 41.3098 37.6863C41.1772 37.6314 41.035 37.6031 40.8914 37.6031V37.6045ZM32.5002 17.9229C34.4341 17.9229 36.2887 18.6911 37.6562 20.0585C39.0236 21.426 39.7919 23.2806 39.7919 25.2145C39.7919 27.1484 39.0236 29.0031 37.6562 30.3705C36.2887 31.738 34.4341 32.5062 32.5002 32.5062C30.5663 32.5062 28.7117 31.738 27.3442 30.3705C25.9767 29.0031 25.2085 27.1484 25.2085 25.2145C25.2085 23.2806 25.9767 21.426 27.3442 20.0585C28.7117 18.6911 30.5663 17.9229 32.5002 17.9229ZM32.5002 20.1104C31.8299 20.1104 31.1662 20.2424 30.5469 20.4989C29.9276 20.7554 29.365 21.1314 28.891 21.6053C28.417 22.0793 28.0411 22.642 27.7846 23.2612C27.528 23.8805 27.396 24.5442 27.396 25.2145C27.396 25.8848 27.528 26.5485 27.7846 27.1678C28.0411 27.7871 28.417 28.3497 28.891 28.8237C29.365 29.2977 29.9276 29.6736 30.5469 29.9302C31.1662 30.1867 31.8299 30.3187 32.5002 30.3187C33.8539 30.3187 35.1522 29.7809 36.1094 28.8237C37.0666 27.8665 37.6044 26.5682 37.6044 25.2145C37.6044 23.8608 37.0666 22.5625 36.1094 21.6053C35.1522 20.6481 33.8539 20.1104 32.5002 20.1104Z" fill="#FF653E"/>
</svg>
