<svg width="430" height="449" viewBox="0 0 430 449" fill="none" xmlns="http://www.w3.org/2000/svg">
<path d="M429.225 33.8748C429.225 24 429.225 12.5 429.225 0C418.225 0 400.677 0.00686041 391.298 1.12057e-05H0V208.701C85.8996 266.75 262.085 389.344 354.506 397.387C385.458 400.067 410.023 394.001 429.294 384.118L429.225 33.8748Z" fill="#037EEE"/>
<path opacity="0.2" d="M130.41 246.149L130.172 246.089L54.5745 404.359L321.072 424.931L321.372 424.954L331.137 296.475L331.156 296.222L130.41 246.149ZM206.967 347.931L55.6233 403.557L130.396 247.015L206.967 347.931ZM207.41 348.408L319.984 424.243L56.4319 403.9L207.41 348.408ZM207.55 347.706L131.092 246.937L329.885 296.523L207.55 347.706ZM320.835 424.093L208.081 348.135L330.5 296.917L320.835 424.093Z" fill="#367CFF"/>
<path d="M365.197 299.15C364.956 305.243 363.244 311.187 360.206 316.475C357.168 321.762 352.896 326.235 347.753 329.512C342.611 332.789 336.752 334.772 330.676 335.291C324.601 335.811 318.489 334.852 312.865 332.497C310.227 331.391 307.725 329.986 305.409 328.308C300.982 325.112 297.297 320.997 294.606 316.245V316.241C291.737 311.158 290.086 305.48 289.783 299.652C289.479 293.823 290.531 288.004 292.855 282.651C295.18 277.298 298.715 272.556 303.181 268.8C307.647 265.043 312.924 262.373 318.596 261C324.269 259.626 330.182 259.587 335.872 260.885C341.562 262.183 346.874 264.782 351.39 268.479C355.906 272.176 359.503 276.87 361.898 282.192C364.294 287.514 365.423 293.318 365.197 299.15L365.197 299.15Z" fill="white"/>
<path opacity="0.09" d="M365.197 299.15C364.956 305.243 363.244 311.187 360.206 316.475C357.168 321.762 352.896 326.235 347.753 329.512C342.611 332.789 336.752 334.772 330.676 335.291C324.601 335.811 318.489 334.852 312.865 332.497C310.227 331.391 307.725 329.986 305.409 328.308C300.982 325.112 297.297 320.997 294.606 316.245V316.241C291.737 311.158 290.086 305.48 289.783 299.652C289.479 293.823 290.531 288.004 292.855 282.651C295.18 277.298 298.715 272.556 303.181 268.8C307.647 265.043 312.924 262.373 318.596 261C324.269 259.626 330.182 259.587 335.872 260.885C341.562 262.183 346.874 264.782 351.39 268.479C355.906 272.176 359.503 276.87 361.898 282.192C364.294 287.514 365.423 293.318 365.197 299.15L365.197 299.15Z" fill="#367CFF"/>
<path d="M336.403 268.94C336.403 268.94 345.428 269.051 342.316 281.487L341.469 281.529L339.749 281.613" fill="#0C0C0C"/>
<path d="M326.327 294.535C326.369 294.531 326.535 302.289 335.552 301.963C341.794 301.738 344.27 295.22 344.413 295.226C343.747 295.057 342.625 294.805 342.333 294.635C341.374 294.071 340.182 293.476 339.94 291.56C339.801 290.456 340.327 284.856 340.275 283.743L330.638 285.504C330.681 287.854 331.405 293.324 328.092 294.159C327.541 294.297 326.948 294.42 326.327 294.535Z" fill="#E98862"/>
<path opacity="0.52" d="M330.251 292.018C330.42 291.542 330.535 291.048 330.596 290.547C330.746 289.402 330.77 288.245 330.667 287.095C332.62 286.909 334.48 286.178 336.038 284.987C336.19 285.647 337.054 288.55 336.759 289.162C336.203 290.319 333.729 292.154 330.251 292.018Z" fill="#0C0C0C"/>
<path d="M332.439 290.648C336.216 290.378 340.773 288.078 340.932 282.959L341.075 278.341C341.233 273.222 338.672 268.99 333.854 268.841C329.035 268.691 325.305 272.73 325.146 277.848L325.083 279.892C325.074 280.595 325.112 281.297 325.198 281.995C325.412 283.839 325.744 286.643 326.959 288.558C328.105 290.366 330.025 290.82 332.439 290.648Z" fill="#E98862"/>
<path d="M340.584 284.51C342.049 284.555 343.284 283.025 343.33 281.56C343.375 280.096 342.213 279.252 340.748 279.206L339.963 280.164L339.325 284.471L340.584 284.51Z" fill="#E98862"/>
<path d="M325.394 283.54C325.659 283.854 325.998 284.097 326.38 284.246C326.762 284.395 327.176 284.447 327.583 284.395C328.454 284.286 329.031 284.643 329.759 284.571C330.369 284.511 330.475 284.229 331.516 284.168C335.537 283.929 338.555 283.676 338.75 278.63L341.309 276.357C341.309 276.357 342.453 290.34 334.89 292.198C330.243 293.34 325.884 292.923 325.324 288.558C324.868 285.012 325.394 283.54 325.394 283.54Z" fill="#0C0C0C"/>
<path d="M327.299 280.62C327.627 280.62 327.893 280.355 327.893 280.027C327.893 279.699 327.627 279.433 327.299 279.433C326.972 279.433 326.706 279.699 326.706 280.027C326.706 280.355 326.972 280.62 327.299 280.62Z" fill="#0C0C0C"/>
<path d="M332.604 280.51C332.932 280.51 333.198 280.244 333.198 279.916C333.198 279.588 332.932 279.322 332.604 279.322C332.276 279.322 332.011 279.588 332.011 279.916C332.011 280.244 332.276 280.51 332.604 280.51Z" fill="#0C0C0C"/>
<path d="M339.17 282.129C339.17 282.129 338.807 274.876 336.619 274.389C335.161 274.064 331.576 276.075 328.301 275.388C326.869 275.088 325.498 275.418 325.346 276.095C325.286 276.363 324.153 273.987 326.458 271.096C328.293 268.794 334.26 268.146 336.914 268.96C344.264 271.215 341.045 279.531 341.045 279.531L340.67 282.022L339.17 282.129Z" fill="#0C0C0C"/>
<path d="M342.51 276.281C344.674 276.281 346.427 274.527 346.427 272.364C346.427 270.2 344.674 268.446 342.51 268.446C340.347 268.446 338.593 270.2 338.593 272.364C338.593 274.527 340.347 276.281 342.51 276.281Z" fill="#0C0C0C"/>
<g opacity="0.52">
<path d="M329.83 284.338H329.821C329.349 284.325 328.56 284.25 328.569 283.897C328.577 283.604 329.467 280.469 329.569 280.112C329.577 280.081 329.598 280.055 329.626 280.04C329.654 280.024 329.687 280.021 329.717 280.029C329.748 280.038 329.774 280.059 329.789 280.086C329.805 280.114 329.809 280.147 329.8 280.178C329.405 281.566 328.815 283.704 328.809 283.902C328.853 283.987 329.339 284.083 329.828 284.097C329.86 284.096 329.89 284.109 329.913 284.131C329.936 284.153 329.949 284.184 329.949 284.215C329.95 284.247 329.937 284.278 329.915 284.301C329.893 284.324 329.862 284.337 329.83 284.337V284.338Z" fill="#0C0C0C"/>
</g>
<path d="M328.394 278.009C327.906 277.865 327.389 277.854 326.896 277.979C326.653 278.039 326.421 278.134 326.207 278.263C325.995 278.389 325.8 278.542 325.626 278.717C325.596 278.744 325.577 278.782 325.575 278.822C325.573 278.863 325.587 278.902 325.614 278.932C325.641 278.963 325.679 278.981 325.719 278.983C325.76 278.985 325.799 278.971 325.829 278.944L325.839 278.936C326.001 278.79 326.181 278.665 326.374 278.564C326.564 278.463 326.769 278.391 326.98 278.352C327.398 278.27 327.83 278.3 328.233 278.439L328.248 278.445C328.276 278.456 328.307 278.461 328.337 278.46C328.367 278.459 328.397 278.452 328.425 278.44C328.453 278.427 328.478 278.409 328.499 278.387C328.519 278.365 328.536 278.339 328.546 278.31C328.557 278.281 328.561 278.251 328.56 278.221C328.559 278.19 328.551 278.16 328.538 278.133C328.525 278.105 328.507 278.08 328.484 278.06C328.461 278.04 328.435 278.024 328.406 278.014L328.394 278.009Z" fill="#0C0C0C"/>
<path d="M331.892 278.44C332.279 278.262 332.706 278.19 333.13 278.231C333.345 278.25 333.555 278.301 333.755 278.383C333.957 278.465 334.148 278.572 334.323 278.702L334.333 278.709C334.365 278.73 334.405 278.738 334.443 278.731C334.482 278.724 334.516 278.702 334.539 278.671C334.562 278.639 334.572 278.6 334.567 278.562C334.563 278.523 334.543 278.488 334.513 278.463C334.323 278.305 334.114 278.173 333.89 278.068C333.665 277.96 333.424 277.887 333.177 277.852C332.674 277.776 332.16 277.837 331.689 278.028C331.634 278.052 331.59 278.097 331.567 278.152C331.545 278.208 331.545 278.271 331.568 278.327C331.591 278.382 331.635 278.427 331.691 278.45C331.746 278.473 331.809 278.474 331.865 278.452L331.876 278.447L331.892 278.44Z" fill="#0C0C0C"/>
<path d="M355.949 313.905C355.613 316.441 355.286 319.924 354.993 323.526C353.849 324.743 352.626 325.884 351.331 326.94C350.509 327.608 349.659 328.243 348.784 328.846C344.049 332.078 338.641 334.191 332.97 335.026C327.298 335.861 321.511 335.396 316.046 333.665C315.971 330.32 315.87 325.807 315.769 321.673C315.653 316.904 315.536 312.634 315.474 311.231C315.215 305.663 313.739 301.948 314.855 298.91C315.188 298.011 315.725 297.201 316.422 296.542C319.022 293.998 325.479 294.056 328.069 294.157C328.114 294.159 327.314 300.136 335.836 300.064C342.099 300.013 342.569 294.719 342.569 294.719C342.569 294.719 345.655 295.04 347.705 295.396C351.058 295.984 353.238 297.213 354.934 299.05C356.516 300.762 357.45 302.58 355.949 313.905Z" fill="#BED3FA"/>
<path d="M305.851 294.746L306.109 288.368C306.115 288.227 306.091 288.087 306.04 287.957C305.989 287.826 305.911 287.707 305.811 287.609C305.712 287.51 305.592 287.433 305.461 287.382C305.33 287.332 305.19 287.31 305.05 287.316C304.792 287.337 304.55 287.453 304.373 287.642C304.195 287.831 304.094 288.079 304.089 288.338L304.034 289.706L302.232 285.325C302.041 284.835 301.492 284.355 300.955 284.607C300.743 284.69 300.565 284.843 300.45 285.04C300.336 285.238 300.291 285.468 300.325 285.694C300.32 285.695 300.315 285.696 300.31 285.697C300.306 285.699 300.303 285.702 300.3 285.704L300.005 284.948C299.95 284.808 299.864 284.682 299.755 284.579C299.645 284.476 299.514 284.399 299.37 284.353C299.227 284.307 299.075 284.294 298.926 284.314C298.777 284.335 298.635 284.388 298.509 284.471C298.313 284.604 298.17 284.801 298.102 285.028C298.034 285.255 298.046 285.499 298.137 285.718L298.262 286.04C298.255 286.048 298.249 286.057 298.244 286.067C298.109 285.869 297.907 285.726 297.676 285.664C297.445 285.601 297.199 285.622 296.983 285.724C296.749 285.842 296.568 286.045 296.476 286.29C296.385 286.536 296.39 286.808 296.489 287.05L296.802 287.85C296.789 287.842 296.775 287.837 296.761 287.835C296.746 287.833 296.731 287.835 296.717 287.84C296.701 287.847 296.687 287.859 296.677 287.874C296.508 287.731 296.296 287.648 296.075 287.638C295.854 287.627 295.635 287.69 295.453 287.815C295.264 287.951 295.126 288.147 295.063 288.371C294.999 288.595 295.013 288.834 295.102 289.049L297.738 295.795C298.107 296.738 298.749 297.551 299.582 298.127C300.416 298.703 301.402 299.018 302.415 299.03C303.289 299.04 304.132 298.709 304.766 298.108C305.4 297.506 305.774 296.682 305.809 295.809L305.851 294.746Z" fill="#E98862"/>
<g opacity="0.2">
<path d="M302.085 290.039C302.063 290.048 302.037 290.047 302.015 290.038C301.992 290.028 301.975 290.01 301.965 289.987L300.258 285.819C300.253 285.808 300.25 285.795 300.249 285.783C300.249 285.77 300.251 285.757 300.256 285.746C300.26 285.734 300.267 285.723 300.276 285.714C300.285 285.705 300.296 285.698 300.308 285.693C300.319 285.688 300.332 285.686 300.344 285.686C300.357 285.686 300.37 285.689 300.381 285.694C300.393 285.699 300.403 285.707 300.412 285.716C300.42 285.726 300.427 285.737 300.431 285.749L302.138 289.917C302.143 289.928 302.145 289.94 302.145 289.952C302.145 289.965 302.142 289.977 302.138 289.988C302.133 289.999 302.126 290.01 302.117 290.018C302.109 290.027 302.098 290.034 302.087 290.038L302.085 290.039Z" fill="#0C0C0C"/>
</g>
<g opacity="0.2">
<path d="M300.268 290.843C300.245 290.852 300.22 290.851 300.197 290.842C300.175 290.832 300.157 290.814 300.148 290.791L298.243 286.139C298.234 286.116 298.234 286.091 298.244 286.069C298.253 286.046 298.271 286.028 298.294 286.019C298.317 286.011 298.342 286.012 298.364 286.021C298.386 286.03 298.404 286.048 298.414 286.07L300.319 290.721C300.328 290.744 300.328 290.77 300.319 290.793C300.309 290.816 300.291 290.834 300.268 290.843V290.843Z" fill="#0C0C0C"/>
</g>
<g opacity="0.2">
<path d="M298.304 291.724C298.282 291.733 298.256 291.733 298.234 291.723C298.211 291.713 298.194 291.695 298.184 291.672L296.665 287.962C296.655 287.939 296.656 287.914 296.665 287.891C296.675 287.868 296.693 287.85 296.716 287.841C296.739 287.831 296.764 287.831 296.787 287.841C296.81 287.85 296.828 287.869 296.837 287.891L298.358 291.601C298.367 291.624 298.367 291.65 298.357 291.672C298.348 291.695 298.329 291.713 298.307 291.723L298.304 291.724Z" fill="#0C0C0C"/>
</g>
<path d="M326.964 304.746L311.442 328.611C310.877 329.479 310.121 330.205 309.231 330.735C307.908 330.005 306.632 329.195 305.409 328.308C302.801 326.427 300.446 324.22 298.398 321.741L295.138 296.462L308.186 294.371L309.674 306.539L315.636 297.374L326.964 304.746Z" fill="#BED3FA"/>
<path d="M328.784 285.64C330.208 285.735 331.623 285.352 332.805 284.553C332.846 284.525 332.894 284.51 332.943 284.509C332.993 284.507 333.041 284.52 333.084 284.546C333.126 284.571 333.16 284.608 333.182 284.652C333.204 284.696 333.214 284.746 333.209 284.795C333.113 285.636 332.698 287.183 330.933 287.38C329.794 287.507 328.968 286.632 328.552 286.05C328.524 286.01 328.507 285.962 328.504 285.913C328.502 285.864 328.513 285.814 328.538 285.771C328.562 285.728 328.598 285.693 328.642 285.67C328.686 285.647 328.735 285.636 328.784 285.64Z" fill="white"/>
<path d="M360.158 316.587C357.864 320.542 354.874 324.049 351.331 326.94C350.509 327.608 349.659 328.243 348.784 328.846L342.721 305.781L356.375 302.189L360.158 316.587Z" fill="#BED3FA"/>
<path d="M348.917 328.755C348.873 328.784 348.826 328.816 348.784 328.846C348.741 328.876 348.697 328.906 348.654 328.934L344.033 311.362L344.325 311.286L348.917 328.755Z" fill="#0C0C0C"/>
<path d="M315.806 322.759C315.768 322.758 315.732 322.742 315.706 322.716C315.679 322.689 315.663 322.654 315.662 322.616L315.364 316.068C315.362 316.029 315.376 315.99 315.403 315.96C315.43 315.931 315.467 315.913 315.507 315.911C315.547 315.91 315.586 315.924 315.615 315.951C315.645 315.978 315.662 316.015 315.664 316.055L315.962 322.603C315.964 322.642 315.95 322.681 315.923 322.711C315.896 322.74 315.859 322.758 315.819 322.759H315.806Z" fill="#0C0C0C"/>
<path d="M203.51 383.351C224.762 383.351 241.99 366.122 241.99 344.87C241.99 323.618 224.762 306.389 203.51 306.389C182.257 306.389 165.029 323.618 165.029 344.87C165.029 366.122 182.257 383.351 203.51 383.351Z" fill="white"/>
<path opacity="0.09" d="M241.991 344.869C241.991 352.48 239.734 359.919 235.506 366.247C231.278 372.575 225.268 377.508 218.237 380.42C211.205 383.332 203.468 384.095 196.004 382.61C188.539 381.125 181.683 377.46 176.301 372.079C170.92 366.697 167.255 359.84 165.77 352.376C164.285 344.912 165.047 337.175 167.96 330.143C170.872 323.112 175.805 317.102 182.133 312.874C188.461 308.646 195.9 306.389 203.511 306.389C208.569 306.37 213.582 307.353 218.259 309.28C222.936 311.207 227.185 314.041 230.762 317.618C234.339 321.195 237.173 325.444 239.1 330.121C241.027 334.798 242.01 339.81 241.991 344.869Z" fill="#367CFF"/>
<path d="M186.476 322.173C186.476 322.173 186.089 327.982 184.782 330.09C181.02 336.157 179.93 342.983 183.698 346.55C187.465 350.116 211.497 350.165 213.318 341.963C214.85 335.058 211.561 334.315 210.761 328.619C210.399 326.042 209.403 320.637 209.403 320.637" fill="#0A0A0A"/>
<path d="M207.097 340.76C207.056 340.754 206.596 348.393 197.722 347.728C191.579 347.268 189.389 340.75 189.248 340.75C189.91 340.609 191.025 340.404 191.32 340.248C192.288 339.728 193.484 339.187 193.796 337.308C193.976 336.227 193.671 330.687 193.766 329.591L203.196 331.696C203.064 334.009 202.142 339.373 205.374 340.322C205.91 340.478 206.49 340.623 207.097 340.76Z" fill="#E98862"/>
<path opacity="0.5" d="M203.326 338.129C203.179 337.653 203.083 337.162 203.043 336.665C202.939 335.532 202.96 334.391 203.104 333.262C201.188 333.003 199.382 332.212 197.893 330.979C197.717 331.625 196.754 334.451 197.022 335.066C197.526 336.227 199.893 338.129 203.326 338.129Z" fill="#0C0C0C"/>
<path d="M202.107 335.749C198.389 336.11 193.579 334.622 192.582 329.671L191.683 325.204C190.687 320.253 192.479 315.716 197.141 314.778C201.802 313.84 206.095 317.151 207.091 322.103L207.489 324.08C207.871 325.98 208.74 335.108 202.107 335.749Z" fill="#E98862"/>
<path opacity="0.1" d="M199.743 329.263C200.355 329.19 200.808 328.767 200.754 328.318C200.701 327.869 200.161 327.565 199.549 327.637C198.938 327.71 198.485 328.134 198.539 328.582C198.592 329.031 199.132 329.336 199.743 329.263Z" fill="#0C0C0C"/>
<path opacity="0.1" d="M206.208 327.468C206.263 327.915 206.802 328.219 207.414 328.148C207.52 328.135 207.624 328.111 207.725 328.077C207.753 327.543 207.755 327.029 207.74 326.553C207.57 326.511 207.393 326.5 207.22 326.523C206.608 326.595 206.156 327.018 206.208 327.468Z" fill="#0C0C0C"/>
<path opacity="0.5" d="M203.505 328.853H203.514C203.703 328.813 203.889 328.763 204.073 328.702C204.346 328.612 204.704 328.461 204.655 328.213C204.598 327.931 203.213 325.043 203.055 324.714C203.04 324.687 203.016 324.667 202.986 324.658C202.957 324.648 202.925 324.65 202.898 324.664C202.87 324.677 202.848 324.7 202.837 324.729C202.826 324.758 202.827 324.79 202.839 324.818C203.429 326.05 204.381 328.07 204.419 328.26C204.389 328.349 203.936 328.522 203.467 328.616C203.437 328.623 203.411 328.641 203.394 328.667C203.377 328.692 203.37 328.723 203.375 328.753C203.38 328.783 203.396 328.81 203.42 328.829C203.444 328.847 203.475 328.856 203.505 328.853V328.853Z" fill="#0C0C0C"/>
<path d="M187.964 326.807L192.143 325.991C195.3 324.669 196.196 319.169 196.196 319.169C196.196 319.169 200.092 322.88 209.403 320.636C209.403 320.636 207.38 307.637 193.631 311.583C189.198 312.855 186.058 317.374 186.525 323.359C186.852 327.554 187.964 326.807 187.964 326.807Z" fill="#0A0A0A"/>
<path d="M193.175 331.121C191.759 331.406 190.305 330.122 190.022 328.705C189.738 327.288 190.727 326.276 192.144 325.991L193.065 326.793L194.395 330.876L193.175 331.121Z" fill="#E98862"/>
<path d="M204.06 322.411C204.414 322.16 204.828 322.008 205.261 321.969C205.478 321.949 205.697 321.961 205.911 322.005C206.126 322.049 206.335 322.12 206.533 322.215L206.539 322.218C206.561 322.227 206.585 322.227 206.607 322.218C206.629 322.21 206.647 322.193 206.657 322.172C206.667 322.151 206.668 322.126 206.661 322.104C206.654 322.082 206.638 322.063 206.617 322.052C206.408 321.941 206.185 321.858 205.955 321.803C205.722 321.746 205.483 321.725 205.245 321.74C204.762 321.766 204.295 321.922 203.893 322.19C203.878 322.2 203.864 322.213 203.854 322.228C203.843 322.243 203.836 322.261 203.832 322.279C203.828 322.297 203.828 322.315 203.832 322.334C203.836 322.352 203.843 322.369 203.853 322.384C203.864 322.399 203.877 322.412 203.893 322.422C203.908 322.432 203.926 322.439 203.944 322.442C203.962 322.446 203.981 322.445 203.999 322.441C204.017 322.437 204.034 322.429 204.048 322.418L204.051 322.416L204.06 322.411Z" fill="#0C0C0C"/>
<path d="M200.242 322.938C199.767 322.844 199.276 322.879 198.82 323.039C198.594 323.117 198.381 323.228 198.189 323.369C197.997 323.509 197.823 323.671 197.672 323.854C197.657 323.872 197.649 323.895 197.651 323.919C197.652 323.943 197.663 323.965 197.68 323.981C197.698 323.997 197.721 324.006 197.745 324.005C197.769 324.004 197.791 323.994 197.808 323.977L197.813 323.972C197.958 323.808 198.125 323.662 198.307 323.54C198.487 323.416 198.685 323.321 198.893 323.257C199.308 323.128 199.749 323.11 200.172 323.206L200.183 323.208C200.201 323.213 200.219 323.214 200.237 323.211C200.255 323.209 200.273 323.203 200.289 323.193C200.304 323.184 200.318 323.171 200.329 323.157C200.34 323.142 200.348 323.125 200.352 323.107C200.357 323.089 200.357 323.071 200.354 323.053C200.351 323.034 200.345 323.017 200.335 323.002C200.325 322.986 200.313 322.973 200.298 322.962C200.283 322.951 200.266 322.944 200.248 322.94L200.242 322.938Z" fill="#0C0C0C"/>
<path d="M192.146 325.923C194.955 324.877 195.887 322.937 196.175 321.493C196.36 320.53 196.343 319.539 196.123 318.583L196.036 318.608C196.253 319.551 196.269 320.529 196.085 321.479C195.802 322.899 194.884 324.808 192.114 325.838L192.146 325.923Z" fill="#0C0C0C"/>
<path d="M227.664 339.238L229.346 333.531C229.383 333.406 229.446 333.29 229.53 333.19C229.614 333.09 229.719 333.009 229.836 332.951C229.954 332.894 230.082 332.862 230.212 332.857C230.343 332.851 230.473 332.874 230.595 332.922C230.816 333.017 230.995 333.192 231.095 333.411C231.196 333.631 231.211 333.88 231.138 334.11L230.778 335.333L233.677 332.006C233.993 331.63 234.621 331.371 235.019 331.754C235.181 331.891 235.293 332.079 235.335 332.287C235.377 332.496 235.347 332.713 235.25 332.902C235.255 332.904 235.259 332.907 235.262 332.91C235.265 332.912 235.267 332.915 235.269 332.918L235.756 332.339C235.846 332.232 235.96 332.146 236.087 332.088C236.215 332.03 236.354 332.001 236.494 332.004C236.634 332.006 236.772 332.04 236.897 332.103C237.023 332.165 237.133 332.255 237.219 332.365C237.351 332.542 237.419 332.759 237.411 332.979C237.403 333.2 237.319 333.411 237.174 333.577L236.967 333.824C236.971 333.833 236.974 333.843 236.975 333.854C237.153 333.72 237.374 333.654 237.597 333.668C237.82 333.681 238.031 333.774 238.191 333.929C238.363 334.103 238.462 334.336 238.469 334.58C238.476 334.825 238.391 335.063 238.23 335.247L237.715 335.859C237.728 335.855 237.742 335.855 237.756 335.858C237.77 335.861 237.782 335.867 237.793 335.876C237.805 335.887 237.814 335.902 237.818 335.918C238.01 335.843 238.222 335.833 238.421 335.89C238.619 335.948 238.793 336.069 238.916 336.235C239.042 336.411 239.105 336.625 239.094 336.842C239.083 337.058 238.999 337.265 238.856 337.428L234.512 342.594C233.904 343.317 233.094 343.841 232.186 344.1C231.278 344.36 230.314 344.342 229.416 344.05C228.642 343.798 227.997 343.253 227.617 342.533C227.238 341.813 227.155 340.973 227.385 340.192L227.664 339.238Z" fill="#E98862"/>
<g opacity="0.2">
<path d="M232.395 336.211C232.413 336.225 232.435 336.232 232.457 336.23C232.48 336.228 232.501 336.218 232.516 336.201L235.269 333.033C235.284 333.016 235.291 332.993 235.29 332.97C235.288 332.947 235.277 332.926 235.26 332.911C235.243 332.896 235.22 332.888 235.197 332.89C235.174 332.891 235.152 332.902 235.137 332.919L232.384 336.087C232.377 336.096 232.371 336.106 232.367 336.117C232.364 336.127 232.362 336.139 232.363 336.15C232.364 336.162 232.367 336.173 232.372 336.183C232.377 336.193 232.384 336.202 232.393 336.21L232.395 336.211Z" fill="#0C0C0C"/>
</g>
<g opacity="0.2">
<path d="M233.759 337.464C233.776 337.478 233.799 337.485 233.821 337.483C233.843 337.481 233.864 337.471 233.879 337.454L236.952 333.918C236.959 333.91 236.965 333.9 236.968 333.889C236.972 333.878 236.973 333.867 236.973 333.855C236.972 333.844 236.969 333.833 236.964 333.823C236.959 333.812 236.951 333.803 236.943 333.796C236.925 333.782 236.903 333.774 236.88 333.776C236.857 333.778 236.836 333.788 236.82 333.805L233.75 337.34C233.742 337.348 233.737 337.358 233.733 337.369C233.73 337.38 233.728 337.392 233.729 337.403C233.73 337.414 233.733 337.425 233.738 337.436C233.743 337.446 233.75 337.455 233.759 337.462L233.759 337.464Z" fill="#0C0C0C"/>
</g>
<g opacity="0.2">
<path d="M235.228 338.829C235.245 338.843 235.268 338.85 235.29 338.848C235.313 338.847 235.333 338.836 235.348 338.819L237.799 335.999C237.813 335.982 237.819 335.96 237.817 335.938C237.815 335.915 237.804 335.895 237.788 335.88C237.771 335.866 237.749 335.858 237.727 335.859C237.704 335.86 237.683 335.869 237.668 335.885L235.217 338.705C235.209 338.714 235.204 338.724 235.2 338.735C235.197 338.746 235.195 338.757 235.196 338.768C235.197 338.78 235.2 338.791 235.205 338.801C235.21 338.811 235.217 338.82 235.226 338.828L235.228 338.829Z" fill="#0C0C0C"/>
</g>
<path d="M237.901 341.729L231.398 371.231C231.383 371.297 231.368 371.366 231.35 371.432C229.889 372.96 228.307 374.367 226.619 375.64C226.28 375.892 225.94 376.142 225.592 376.382C225.376 376.406 225.16 376.418 224.943 376.418C223.784 376.418 222.646 376.112 221.642 375.533C220.638 374.954 219.804 374.12 219.224 373.117L206.831 351.673L218.275 345.062L222.153 351.773L224.994 338.884L237.901 341.729Z" fill="#0CBC8B"/>
<path d="M217.888 355.179C217.849 355.648 217.77 356.483 217.662 357.582C217.122 363.202 215.857 375.727 215.271 381.515C207.872 383.881 199.932 383.961 192.486 381.746H192.483C186.984 380.1 181.924 377.243 177.675 373.384C177.699 368.209 177.624 362.388 177.276 358.646C176.234 347.463 177.219 345.712 178.838 344.093C178.97 343.961 179.108 343.832 179.246 343.706C180.919 342.186 183.019 341.195 186.079 340.78C188.104 340.507 191.149 340.309 191.149 340.309C191.149 340.309 191.408 345.529 197.556 345.817C205.927 346.211 205.369 340.309 205.411 340.309C207.516 340.309 212.202 340.441 215.157 341.946C215.16 341.946 215.16 341.946 215.163 341.949C215.759 342.238 216.3 342.627 216.764 343.099C220.149 346.685 218.479 348.219 217.888 355.179Z" fill="#0CBC8B"/>
<path d="M204.751 329.828C203.543 330.443 202.165 330.637 200.835 330.38C200.789 330.372 200.741 330.376 200.697 330.394C200.654 330.411 200.616 330.44 200.589 330.478C200.561 330.516 200.545 330.561 200.542 330.608C200.539 330.655 200.55 330.702 200.573 330.743C200.97 331.442 201.911 332.637 203.525 332.15C204.567 331.835 204.961 330.763 205.107 330.1C205.117 330.054 205.114 330.006 205.098 329.962C205.082 329.918 205.053 329.879 205.016 329.851C204.978 329.822 204.934 329.805 204.887 329.801C204.84 329.797 204.793 329.807 204.751 329.828Z" fill="white"/>
<path d="M204.827 324.456C205.149 324.456 205.411 324.195 205.411 323.873C205.411 323.55 205.149 323.289 204.827 323.289C204.505 323.289 204.243 323.55 204.243 323.873C204.243 324.195 204.505 324.456 204.827 324.456Z" fill="#0C0C0C"/>
<path d="M199.218 325.438C199.54 325.438 199.802 325.177 199.802 324.854C199.802 324.532 199.54 324.271 199.218 324.271C198.896 324.271 198.635 324.532 198.635 324.854C198.635 325.177 198.896 325.438 199.218 325.438Z" fill="#0C0C0C"/>
<path d="M216.597 367.778C216.593 367.779 216.589 367.779 216.586 367.778C216.562 367.775 216.541 367.762 216.526 367.743C216.512 367.724 216.505 367.7 216.509 367.677L217.54 357.282C217.542 357.27 217.546 357.258 217.552 357.248C217.557 357.238 217.565 357.229 217.575 357.221C217.584 357.214 217.595 357.209 217.607 357.206C217.618 357.203 217.63 357.203 217.642 357.205C217.666 357.208 217.687 357.22 217.702 357.239C217.716 357.259 217.722 357.282 217.719 357.306L216.687 367.701C216.684 367.723 216.673 367.743 216.657 367.757C216.64 367.771 216.619 367.779 216.597 367.778Z" fill="#0C0C0C"/>
<path d="M210.352 367.278L215.991 364.759C216.115 364.704 216.249 364.675 216.384 364.675C216.52 364.674 216.654 364.702 216.778 364.756C216.903 364.81 217.014 364.889 217.106 364.989C217.198 365.088 217.269 365.206 217.313 365.334C217.387 365.573 217.37 365.832 217.264 366.059C217.159 366.286 216.973 366.466 216.742 366.564L215.533 367.105L220.115 367.152C220.626 367.148 221.252 367.47 221.219 368.042C221.22 368.263 221.147 368.477 221.01 368.651C220.874 368.825 220.683 368.947 220.468 368.999C220.469 369.003 220.47 369.008 220.47 369.013C220.469 369.017 220.469 369.02 220.468 369.024L221.253 369.019C221.399 369.018 221.543 369.049 221.674 369.111C221.806 369.172 221.922 369.263 222.015 369.375C222.107 369.487 222.173 369.618 222.209 369.759C222.244 369.9 222.247 370.048 222.219 370.19C222.168 370.414 222.043 370.613 221.863 370.755C221.683 370.898 221.46 370.974 221.231 370.971L220.897 370.973C220.892 370.983 220.886 370.992 220.879 371C221.105 371.05 221.306 371.18 221.445 371.365C221.585 371.551 221.654 371.779 221.64 372.011C221.617 372.264 221.5 372.499 221.312 372.669C221.124 372.839 220.879 372.933 220.625 372.93L219.794 372.936C219.806 372.944 219.816 372.955 219.823 372.967C219.829 372.98 219.833 372.994 219.833 373.009C219.832 373.026 219.827 373.042 219.817 373.056C220.006 373.158 220.157 373.318 220.246 373.514C220.335 373.709 220.357 373.928 220.309 374.137C220.254 374.356 220.128 374.55 219.949 374.687C219.771 374.825 219.552 374.898 219.326 374.895L212.319 374.945C211.339 374.952 210.379 374.666 209.562 374.124C208.745 373.582 208.109 372.808 207.735 371.902C207.412 371.121 207.407 370.244 207.72 369.459C208.033 368.674 208.64 368.042 209.412 367.697L210.352 367.278Z" fill="#E98862"/>
<g opacity="0.2">
<path d="M215.932 368.974C215.932 368.998 215.941 369.021 215.958 369.038C215.975 369.055 215.998 369.064 216.022 369.064L220.38 369.103C220.404 369.104 220.427 369.094 220.444 369.077C220.461 369.061 220.47 369.038 220.471 369.014C220.471 368.99 220.461 368.967 220.445 368.95C220.428 368.933 220.405 368.923 220.381 368.923L216.023 368.884C215.999 368.884 215.976 368.893 215.959 368.91C215.942 368.927 215.933 368.95 215.933 368.974H215.932Z" fill="#0C0C0C"/>
</g>
<g opacity="0.2">
<path d="M215.862 370.896C215.862 370.92 215.871 370.943 215.888 370.96C215.905 370.977 215.928 370.986 215.952 370.986L220.815 371.03C220.839 371.03 220.861 371.021 220.878 371.004C220.895 370.987 220.905 370.964 220.905 370.94C220.904 370.916 220.894 370.894 220.878 370.877C220.861 370.86 220.838 370.851 220.815 370.85L215.952 370.806C215.928 370.806 215.905 370.816 215.888 370.832C215.871 370.849 215.862 370.872 215.862 370.896Z" fill="#0C0C0C"/>
</g>
<g opacity="0.2">
<path d="M215.773 372.976C215.773 373 215.783 373.023 215.8 373.039C215.817 373.056 215.84 373.066 215.863 373.066L219.743 373.101C219.767 373.101 219.789 373.091 219.806 373.075C219.823 373.058 219.833 373.035 219.833 373.011C219.833 372.987 219.823 372.964 219.806 372.947C219.789 372.93 219.767 372.921 219.743 372.921L215.863 372.886C215.84 372.886 215.817 372.895 215.8 372.912C215.783 372.929 215.773 372.952 215.773 372.976V372.976Z" fill="#0C0C0C"/>
</g>
<path d="M211.968 377.319L192.486 381.746H192.483C186.984 380.101 181.924 377.243 177.675 373.384C177.219 372.97 176.772 372.545 176.336 372.111C175.575 371.351 174.847 370.561 174.152 369.741L176.879 347.803C177.177 346.034 178.165 344.456 179.626 343.416C181.087 342.376 182.901 341.959 184.669 342.256C186.438 342.554 188.016 343.542 189.056 345.003C190.096 346.464 190.513 348.278 190.215 350.046L188.491 370.645L210.213 365.728L211.968 377.319Z" fill="#0CBC8B"/>
<path d="M184.097 371.454C184.085 371.455 184.074 371.454 184.062 371.45C184.051 371.446 184.041 371.44 184.032 371.433C184.023 371.425 184.015 371.416 184.01 371.405C184.005 371.394 184.001 371.383 184 371.371C184 371.359 184.001 371.347 184.005 371.336C184.008 371.325 184.014 371.314 184.022 371.305C184.03 371.296 184.039 371.289 184.05 371.284C184.06 371.278 184.072 371.275 184.084 371.274L188.439 370.343C188.451 370.341 188.463 370.342 188.474 370.345C188.486 370.347 188.497 370.352 188.506 370.359C188.516 370.367 188.524 370.375 188.53 370.386C188.536 370.396 188.54 370.407 188.542 370.419C188.543 370.43 188.543 370.442 188.54 370.454C188.537 370.465 188.532 370.476 188.525 370.486C188.518 370.495 188.509 370.503 188.499 370.509C188.489 370.515 188.477 370.519 188.466 370.521L184.109 371.452C184.105 371.453 184.101 371.454 184.097 371.454Z" fill="#0C0C0C"/>
<path d="M211.968 377.319C211.972 377.342 211.968 377.366 211.956 377.386C211.944 377.407 211.924 377.421 211.901 377.427L192.976 381.888C192.856 381.854 192.738 381.822 192.621 381.785L211.769 377.277L210.063 365.863L188.47 370.522C188.456 370.524 188.442 370.523 188.428 370.519C188.415 370.515 188.403 370.508 188.392 370.498C188.383 370.487 188.376 370.475 188.372 370.461C188.368 370.448 188.367 370.434 188.368 370.42L189.579 358.649C189.581 358.637 189.585 358.626 189.592 358.616C189.598 358.606 189.606 358.597 189.616 358.591C189.626 358.584 189.637 358.579 189.649 358.577C189.66 358.574 189.672 358.574 189.684 358.576C189.707 358.58 189.728 358.593 189.742 358.612C189.756 358.631 189.762 358.655 189.759 358.679L188.566 370.33L210.102 365.662C210.114 365.659 210.126 365.658 210.138 365.66C210.15 365.662 210.161 365.667 210.171 365.674C210.182 365.68 210.191 365.687 210.198 365.697C210.205 365.706 210.211 365.717 210.213 365.728L211.968 377.319Z" fill="#0C0C0C"/>
<path d="M65.51 427.688C84.9972 427.688 100.795 411.89 100.795 392.403C100.795 372.916 84.9972 357.118 65.51 357.118C46.0229 357.118 30.2254 372.916 30.2254 392.403C30.2254 411.89 46.0229 427.688 65.51 427.688Z" fill="white"/>
<path opacity="0.09" d="M65.51 427.688C84.9972 427.688 100.795 411.89 100.795 392.403C100.795 372.916 84.9972 357.118 65.51 357.118C46.0229 357.118 30.2254 372.916 30.2254 392.403C30.2254 411.89 46.0229 427.688 65.51 427.688Z" fill="#367CFF"/>
<path d="M55.793 372.39C55.793 372.39 56.1754 383.017 63.2684 383.505L64.4698 369.491L55.793 372.39Z" fill="#0A0A0A"/>
<path d="M57.159 385.676C59.4797 385.676 61.3611 383.794 61.3611 381.474C61.3611 379.153 59.4797 377.272 57.159 377.272C54.8383 377.272 52.957 379.153 52.957 381.474C52.957 383.794 54.8383 385.676 57.159 385.676Z" fill="#0A0A0A"/>
<path d="M73.6005 388.437C73.5629 388.432 73.1478 395.323 65.1426 394.722C59.6006 394.308 57.6249 388.428 57.4981 388.428C58.1314 388.323 58.7561 388.172 59.3673 387.975C60.2398 387.506 61.3196 387.018 61.6007 385.324C61.7629 384.347 61.4881 379.35 61.5725 378.362L70.0793 380.261C69.9592 382.347 69.1284 387.186 72.0443 388.043C72.5291 388.184 73.0517 388.314 73.6005 388.437Z" fill="#E98862"/>
<path opacity="0.5" d="M70.1983 386.064C70.0649 385.635 69.9791 385.191 69.9424 384.743C69.849 383.72 69.8676 382.691 69.9979 381.672C68.269 381.439 66.6401 380.725 65.2964 379.612C65.1384 380.196 64.2698 382.745 64.5103 383.299C64.9651 384.349 67.1016 386.064 70.1983 386.064Z" fill="#0C0C0C"/>
<path d="M68.8656 384.208C65.4964 384.251 61.2845 382.551 60.7624 378.025L60.2915 373.94C59.7692 369.414 61.723 365.47 65.9845 364.979C70.2457 364.488 73.854 367.789 74.3763 372.315L74.5848 374.123C74.7851 375.861 74.877 384.132 68.8656 384.208Z" fill="#E98862"/>
<path d="M73.3635 374.002C73.6553 374.002 73.8918 373.765 73.8918 373.474C73.8918 373.182 73.6553 372.945 73.3635 372.945C73.0717 372.945 72.8352 373.182 72.8352 373.474C72.8352 373.765 73.0717 374.002 73.3635 374.002Z" fill="#0C0C0C"/>
<path d="M67.9633 374.62C68.2551 374.62 68.4916 374.383 68.4916 374.091C68.4916 373.799 68.2551 373.563 67.9633 373.563C67.6715 373.563 67.435 373.799 67.435 374.091C67.435 374.383 67.6715 374.62 67.9633 374.62Z" fill="#0C0C0C"/>
<path opacity="0.5" d="M70.6431 378.114H70.6516C70.8242 378.092 70.9956 378.062 71.1649 378.022C71.4178 377.96 71.7512 377.852 71.725 377.625C71.695 377.368 70.6681 374.667 70.5509 374.36C70.5459 374.346 70.5382 374.334 70.5285 374.324C70.5187 374.314 70.507 374.305 70.494 374.299C70.4811 374.294 70.4671 374.29 70.4529 374.29C70.4387 374.29 70.4245 374.292 70.4113 374.297C70.398 374.302 70.3858 374.31 70.3755 374.32C70.3652 374.329 70.3569 374.341 70.3511 374.354C70.3453 374.367 70.3421 374.381 70.3417 374.395C70.3413 374.409 70.3437 374.424 70.3488 374.437C70.787 375.587 71.4902 377.477 71.51 377.651C71.2396 377.803 70.9367 377.888 70.6266 377.899C70.598 377.901 70.5715 377.914 70.5528 377.936C70.5341 377.958 70.5249 377.986 70.5271 378.015C70.5293 378.043 70.5427 378.07 70.5645 378.089C70.5863 378.107 70.6145 378.117 70.6431 378.114V378.114Z" fill="#0C0C0C"/>
<path opacity="0.5" d="M69.8814 379.997C70.5735 379.958 71.2467 379.756 71.8467 379.409C71.8703 379.394 71.8874 379.371 71.8944 379.344C71.9014 379.317 71.8978 379.288 71.8844 379.264C71.8709 379.24 71.8486 379.222 71.8221 379.213C71.7955 379.205 71.7668 379.207 71.7418 379.219C70.4461 379.936 69.2068 379.978 68.1585 379.339C68.1374 379.326 68.1155 379.313 68.0931 379.302C68.0671 379.292 68.0382 379.292 68.0124 379.303C67.9867 379.313 67.966 379.334 67.9546 379.359C67.9433 379.385 67.9422 379.413 67.9516 379.44C67.961 379.466 67.9801 379.487 68.005 379.5C68.0132 379.504 68.027 379.513 68.0459 379.524C68.597 379.861 69.2361 380.026 69.8814 379.997Z" fill="#0C0C0C"/>
<path d="M56.8269 375.101L60.6453 374.683C63.5826 373.734 64.8029 368.856 64.8029 368.856C64.8029 368.856 67.435 371.849 75.2348 370.482C75.2348 370.482 74.9326 360.427 63.0702 361.842C58.9399 362.336 55.8255 366.478 55.7933 371.894C55.7711 375.689 56.8269 375.101 56.8269 375.101Z" fill="#0A0A0A"/>
<path d="M61.1863 379.373C59.8911 379.523 58.6816 378.258 58.5323 376.963C58.383 375.668 59.3502 374.833 60.6453 374.684L61.4127 375.474L62.2997 379.245L61.1863 379.373Z" fill="#E98862"/>
<path d="M71.4949 372.155C71.8769 371.944 72.3086 371.839 72.745 371.851C72.9605 371.856 73.1741 371.893 73.3785 371.962C73.5816 372.028 73.7755 372.12 73.9555 372.236C73.9735 372.247 73.9864 372.265 73.9915 372.286C73.9966 372.307 73.9935 372.329 73.9829 372.347C73.9722 372.366 73.9549 372.379 73.9344 372.385C73.9139 372.391 73.8919 372.389 73.8729 372.379L73.8675 372.376C73.6969 372.275 73.5143 372.196 73.3238 372.14C73.1352 372.084 72.9392 372.056 72.7423 372.059C72.3507 372.061 71.9665 372.166 71.6289 372.365L71.6208 372.37C71.6068 372.379 71.5912 372.385 71.5748 372.388C71.5583 372.391 71.5415 372.391 71.5252 372.387C71.5089 372.383 71.4935 372.377 71.48 372.367C71.4664 372.357 71.4549 372.345 71.4463 372.33C71.4376 372.316 71.4319 372.3 71.4295 372.284C71.4271 372.267 71.428 372.25 71.4322 372.234C71.4365 372.218 71.4439 372.203 71.4541 372.19C71.4643 372.177 71.4771 372.166 71.4916 372.157L71.4949 372.155Z" fill="#0C0C0C"/>
<path d="M68.0726 372.785C67.6992 372.666 67.3011 372.649 66.9189 372.735C66.7264 372.777 66.5414 372.848 66.3702 372.946C66.1971 373.042 66.0368 373.161 65.8932 373.297L65.8887 373.302C65.8724 373.314 65.8521 373.319 65.8319 373.317C65.8117 373.316 65.7928 373.306 65.7789 373.292C65.765 373.277 65.757 373.257 65.7565 373.237C65.756 373.217 65.7629 373.197 65.7761 373.181C65.9258 373.029 66.0941 372.896 66.2771 372.785C66.4611 372.673 66.661 372.589 66.87 372.536C67.2926 372.427 67.7369 372.433 68.1564 372.553C68.1726 372.557 68.1878 372.565 68.2011 372.575C68.2144 372.585 68.2255 372.598 68.2338 372.612C68.242 372.627 68.2473 372.643 68.2492 372.66C68.2511 372.676 68.2496 372.693 68.2448 372.709C68.24 372.725 68.2321 372.74 68.2214 372.753C68.2107 372.766 68.1975 372.777 68.1827 372.784C68.1678 372.792 68.1515 372.797 68.1348 372.798C68.1181 372.799 68.1014 372.797 68.0855 372.792H68.0822L68.0726 372.785Z" fill="#0C0C0C"/>
<path opacity="0.52" d="M69.9538 381.02C70.079 381.015 70.2036 380.999 70.3262 380.973C70.3535 380.967 70.3771 380.949 70.392 380.926C70.4069 380.902 70.412 380.873 70.4062 380.846C70.4004 380.818 70.3842 380.794 70.3609 380.778C70.3376 380.763 70.3092 380.756 70.2815 380.761C70.0901 380.817 69.8889 380.832 69.6915 380.804C69.494 380.776 69.3048 380.706 69.1365 380.599C69.1143 380.581 69.0858 380.572 69.0572 380.575C69.0286 380.578 69.0024 380.592 68.9842 380.614C68.9661 380.636 68.9575 380.665 68.9604 380.693C68.9632 380.722 68.9773 380.748 68.9995 380.766C69.2787 380.959 69.6159 381.049 69.9538 381.02Z" fill="#0C0C0C"/>
<path opacity="0.1" d="M67.2315 378.197C67.7871 378.178 68.2259 377.832 68.2116 377.424C68.1973 377.017 67.7354 376.702 67.1799 376.722C66.6243 376.741 66.1855 377.087 66.1998 377.495C66.2141 377.902 66.676 378.217 67.2315 378.197Z" fill="#0C0C0C"/>
<path opacity="0.1" d="M73.177 377.073C73.1926 377.48 73.6542 377.793 74.2099 377.775C74.3059 377.772 74.4014 377.758 74.4946 377.735C74.5604 377.257 74.6007 376.795 74.6226 376.366C74.473 376.315 74.3152 376.292 74.1573 376.299C73.6029 376.318 73.1643 376.663 73.177 377.073Z" fill="#0C0C0C"/>
<path d="M85.5564 395.695C85.5324 398.101 84.7064 400.97 84.412 404.436C84.3339 405.361 82.3482 408.037 82.0599 411.014C81.6965 414.804 82.5047 420.715 82.6129 423.271C77.0316 426.36 70.7181 427.879 64.3428 427.667C57.9676 427.456 51.7686 425.521 46.4043 422.07C46.2602 415.504 46.089 407.397 45.8697 405.454C45.1578 399.038 45.3501 394.98 46.3773 393.082C48.0563 389.982 51.0449 389.036 54.1717 388.61C56.082 388.351 58.9504 388.168 58.9504 388.168C58.9504 388.168 59.1937 393.085 64.9907 393.358C72.8812 393.731 72.3555 388.168 72.3946 388.168C75.257 388.168 80.6815 388.853 82.76 390.271C84.9647 391.77 85.5834 393.548 85.5564 395.695Z" fill="#FFC239"/>
<path d="M58.2957 399.438L47.5908 422.799C43.4806 420.372 39.9045 417.138 37.0782 413.292L46.0079 393.805L58.2957 399.438Z" fill="#FFC239"/>
<path d="M94.2038 412.939C92.1067 415.865 89.5756 418.454 86.6978 420.616C85.7506 421.331 84.7671 421.997 83.7512 422.611L72.764 398.456L85.0668 392.857L94.2038 412.939Z" fill="#FFC239"/>
<path d="M138.943 289.474C159.232 289.474 175.68 273.026 175.68 252.737C175.68 232.448 159.232 216 138.943 216C118.654 216 102.206 232.448 102.206 252.737C102.206 273.026 118.654 289.474 138.943 289.474Z" fill="white"/>
<path opacity="0.09" d="M138.943 289.474C159.232 289.474 175.68 273.026 175.68 252.737C175.68 232.448 159.232 216 138.943 216C118.654 216 102.206 232.448 102.206 252.737C102.206 273.026 118.654 289.474 138.943 289.474Z" fill="#367CFF"/>
<path d="M146.046 230.738C146.046 230.738 148.373 228.217 148.193 223.415C148.054 219.697 145.135 222.65 145.135 222.65C145.135 222.65 145.009 219.974 143.153 220.578C141.297 221.181 140.726 224.12 140.726 224.12" fill="#0C0C0C"/>
<path d="M133.366 222.665C133.366 222.665 124.101 225.388 129.834 237.572L130.68 237.477L132.397 237.283" fill="#0C0C0C"/>
<path d="M146.495 250.211C146.453 250.206 145.985 257.978 136.955 257.3C130.704 256.831 128.475 250.199 128.331 250.199C129.005 250.056 129.838 249.839 130.169 249.764C130.891 249.596 131.544 249.213 132.043 248.665C132.541 248.118 132.861 247.431 132.959 246.697C133.142 245.595 132.832 239.959 132.928 238.844L142.523 240.986C142.389 243.34 141.451 248.798 144.74 249.764C145.287 249.924 145.877 250.071 146.495 250.211Z" fill="#E98862"/>
<path opacity="0.52" d="M142.658 247.534C142.508 247.049 142.411 246.55 142.369 246.044C142.264 244.891 142.285 243.73 142.432 242.581C140.482 242.317 138.644 241.512 137.129 240.257C136.95 240.915 135.971 243.791 136.242 244.416C136.755 245.598 139.165 247.534 142.658 247.534Z" fill="#0C0C0C"/>
<path d="M141.091 245.059C137.307 245.399 132.421 243.853 131.442 238.808L130.558 234.256C129.579 229.21 131.434 224.607 136.184 223.685C140.934 222.762 145.278 226.163 146.258 231.208L146.649 233.223C146.771 233.917 146.846 234.619 146.873 235.323C146.957 237.185 147.079 240.016 146.184 242.108C145.339 244.084 143.51 244.842 141.091 245.059Z" fill="#E98862"/>
<path opacity="0.5" d="M141.664 240.072C142.357 240.059 143.037 239.883 143.65 239.559C143.663 239.553 143.675 239.544 143.685 239.533C143.695 239.522 143.703 239.51 143.707 239.496C143.712 239.482 143.714 239.467 143.713 239.453C143.712 239.438 143.709 239.424 143.702 239.411C143.695 239.398 143.686 239.386 143.675 239.377C143.664 239.368 143.651 239.36 143.637 239.356C143.623 239.352 143.608 239.35 143.594 239.352C143.579 239.354 143.565 239.358 143.552 239.365C142.231 240.032 140.99 240.026 139.967 239.349C139.947 239.335 139.925 239.321 139.903 239.309C139.89 239.303 139.877 239.299 139.862 239.298C139.848 239.298 139.834 239.299 139.82 239.304C139.807 239.309 139.795 239.316 139.784 239.325C139.773 239.335 139.765 239.346 139.758 239.359C139.752 239.371 139.748 239.385 139.747 239.4C139.746 239.414 139.748 239.428 139.753 239.441C139.758 239.455 139.765 239.467 139.774 239.478C139.783 239.489 139.795 239.497 139.808 239.504C139.816 239.508 139.829 239.517 139.848 239.529C140.385 239.887 141.018 240.076 141.664 240.072Z" fill="#0C0C0C"/>
<path opacity="0.52" d="M141.697 241.098C141.822 241.098 141.947 241.086 142.071 241.065C142.085 241.062 142.098 241.057 142.11 241.05C142.122 241.042 142.133 241.032 142.141 241.021C142.149 241.009 142.155 240.996 142.158 240.982C142.161 240.968 142.162 240.954 142.159 240.94C142.157 240.926 142.152 240.913 142.144 240.901C142.137 240.889 142.127 240.878 142.115 240.87C142.104 240.862 142.091 240.856 142.077 240.853C142.063 240.85 142.049 240.849 142.035 240.852C141.841 240.9 141.64 240.907 141.443 240.871C141.247 240.836 141.061 240.759 140.896 240.646C140.875 240.627 140.847 240.618 140.819 240.62C140.791 240.622 140.764 240.635 140.746 240.657C140.727 240.678 140.717 240.706 140.719 240.734C140.72 240.762 140.733 240.789 140.753 240.808C141.025 241.011 141.358 241.113 141.697 241.098Z" fill="#0C0C0C"/>
<path d="M145.121 234.494C145.45 234.494 145.717 234.227 145.717 233.898C145.717 233.569 145.45 233.302 145.121 233.302C144.792 233.302 144.525 233.569 144.525 233.898C144.525 234.227 144.792 234.494 145.121 234.494Z" fill="#0C0C0C"/>
<path d="M139.327 235.171C139.656 235.171 139.923 234.904 139.923 234.575C139.923 234.246 139.656 233.979 139.327 233.979C138.998 233.979 138.731 234.246 138.731 234.575C138.731 234.904 138.998 235.171 139.327 235.171Z" fill="#0C0C0C"/>
<path d="M132.035 240.287C130.592 240.568 129.122 239.251 128.841 237.807C128.561 236.364 129.577 235.341 131.02 235.06L131.951 235.883L133.276 240.047L132.035 240.287Z" fill="#E98862"/>
<path d="M133.054 237.702C133.054 237.702 132.248 230.459 134.337 229.624C135.729 229.068 139.604 230.484 142.737 229.278C144.108 228.75 145.52 228.857 145.778 229.503C145.881 229.759 146.075 225.782 143.327 223.288C141.139 221.303 135.228 221.7 132.729 222.934C125.809 226.348 130.779 235.429 130.779 235.429L131.551 237.836L133.054 237.702Z" fill="#0C0C0C"/>
<g opacity="0.52">
<path d="M142.552 238.278H142.561C143.027 238.188 143.798 237.987 143.733 237.639C143.677 237.351 142.291 234.388 142.134 234.051C142.127 234.037 142.117 234.024 142.106 234.013C142.094 234.003 142.08 233.994 142.066 233.989C142.051 233.983 142.035 233.981 142.019 233.982C142.003 233.983 141.988 233.986 141.973 233.993C141.959 234 141.946 234.009 141.935 234.021C141.925 234.033 141.916 234.046 141.911 234.061C141.906 234.076 141.903 234.092 141.904 234.108C141.905 234.124 141.909 234.139 141.915 234.153C142.53 235.465 143.458 237.488 143.496 237.684C143.466 237.774 143 237.948 142.518 238.04C142.486 238.045 142.457 238.062 142.438 238.088C142.419 238.114 142.411 238.147 142.416 238.178C142.42 238.21 142.438 238.239 142.463 238.258C142.489 238.277 142.522 238.285 142.554 238.281L142.552 238.278Z" fill="#0C0C0C"/>
</g>
<path d="M142.881 231.018C143.347 230.795 143.864 230.701 144.379 230.748C144.631 230.769 144.879 230.828 145.114 230.923C145.346 231.015 145.565 231.136 145.767 231.283C145.804 231.309 145.83 231.348 145.839 231.393C145.848 231.438 145.839 231.484 145.815 231.522C145.79 231.561 145.752 231.588 145.708 231.598C145.663 231.609 145.617 231.602 145.578 231.579L145.564 231.574C145.381 231.457 145.184 231.364 144.978 231.296C144.776 231.229 144.564 231.192 144.35 231.188C143.929 231.176 143.512 231.276 143.142 231.477L143.127 231.486C143.097 231.503 143.064 231.514 143.029 231.518C142.995 231.523 142.96 231.52 142.926 231.511C142.893 231.502 142.862 231.486 142.834 231.465C142.807 231.444 142.784 231.418 142.767 231.387C142.749 231.357 142.738 231.324 142.734 231.29C142.73 231.255 142.732 231.22 142.741 231.187C142.75 231.153 142.766 231.122 142.787 231.095C142.809 231.067 142.835 231.044 142.865 231.027L142.881 231.018Z" fill="#0C0C0C"/>
<path d="M139.465 231.941C139.059 231.828 138.631 231.823 138.223 231.928C138.015 231.98 137.817 232.063 137.635 232.174C137.448 232.286 137.277 232.42 137.124 232.575L137.114 232.584C137.081 232.616 137.037 232.634 136.992 232.634C136.946 232.634 136.902 232.616 136.869 232.584C136.836 232.552 136.818 232.508 136.816 232.462C136.815 232.416 136.832 232.372 136.864 232.338C137.027 232.15 137.214 231.983 137.42 231.841C137.628 231.696 137.856 231.584 138.097 231.506C138.339 231.427 138.59 231.381 138.844 231.37C139.103 231.355 139.364 231.378 139.618 231.437C139.686 231.453 139.745 231.495 139.782 231.555C139.819 231.614 139.831 231.686 139.815 231.754C139.799 231.822 139.756 231.881 139.697 231.918C139.637 231.955 139.566 231.967 139.497 231.951L139.482 231.947L139.465 231.941Z" fill="#0C0C0C"/>
<path d="M141.292 226.219C142.323 225.802 142.66 224.234 142.045 222.717C141.43 221.2 140.097 220.309 139.066 220.727C138.036 221.145 137.699 222.713 138.314 224.229C138.928 225.746 140.262 226.637 141.292 226.219Z" fill="#0C0C0C"/>
<path d="M158.975 258.243C159.011 260.733 158.038 263.532 157.714 267.323C157.648 268.092 157.491 269.786 157.284 271.994C156.945 275.649 156.464 280.704 156.044 285.261C150.03 288.417 143.26 289.847 136.484 289.392C129.707 288.937 123.189 286.615 117.652 282.683C117.519 282.584 117.387 282.488 117.255 282.395C116.904 277.244 116.489 271.837 116.111 268.422C115.399 262.046 114.429 258.871 114.972 256.726C115.016 256.544 115.074 256.365 115.147 256.192C116.711 252.395 121.694 250.701 125.07 250.244C127.131 249.965 130.231 249.764 130.231 249.764C130.231 249.764 130.492 255.074 136.748 255.369C145.267 255.771 144.699 249.764 144.741 249.764C146.12 249.764 153.632 250.767 155.509 251.993C155.824 252.197 156.125 252.422 156.41 252.665C157.226 253.346 157.879 254.199 158.323 255.164C158.767 256.129 158.99 257.181 158.975 258.243Z" fill="#383838"/>
<path d="M127.612 262.094L117.652 282.683C117.519 282.584 117.387 282.488 117.255 282.395C113.394 279.564 110.12 276.01 107.613 271.931L114.972 256.726L115.264 256.123L127.612 262.094Z" fill="#383838"/>
<path d="M126.65 264.464L117.591 282.638C117.531 282.593 117.474 282.551 117.414 282.512L126.461 264.371C126.474 264.345 126.496 264.326 126.523 264.317C126.55 264.308 126.58 264.31 126.605 264.322C126.63 264.335 126.649 264.357 126.657 264.384C126.665 264.41 126.663 264.439 126.65 264.464Z" fill="white"/>
<path d="M172.582 267.527C170.776 271.619 168.241 275.348 165.1 278.532L157.284 271.994L147.357 263.686L156.41 252.665L156.437 252.632L172.582 267.527Z" fill="#383838"/>
<path d="M157.405 272.074C157.43 272.073 157.454 272.062 157.473 272.044C157.491 272.027 157.502 272.003 157.505 271.977L158.02 265.931C158.023 265.903 158.014 265.875 157.996 265.854C157.978 265.833 157.952 265.819 157.924 265.817C157.896 265.815 157.869 265.824 157.848 265.842C157.826 265.859 157.813 265.885 157.81 265.913L157.294 271.959C157.292 271.987 157.301 272.015 157.319 272.036C157.337 272.058 157.363 272.071 157.39 272.074L157.405 272.074Z" fill="white"/>
<path d="M311.927 448.555C331.279 448.555 346.966 432.867 346.966 413.515C346.966 394.164 331.279 378.476 311.927 378.476C292.576 378.476 276.888 394.164 276.888 413.515C276.888 432.867 292.576 448.555 311.927 448.555Z" fill="white"/>
<path opacity="0.09" d="M276.888 413.514C276.888 420.444 278.942 427.219 282.793 432.981C286.643 438.743 292.115 443.234 298.517 445.886C304.92 448.538 311.965 449.232 318.762 447.88C325.559 446.528 331.802 443.191 336.702 438.291C341.602 433.391 344.94 427.147 346.292 420.35C347.644 413.554 346.95 406.509 344.298 400.106C341.646 393.704 337.155 388.231 331.393 384.381C325.631 380.531 318.856 378.476 311.926 378.476C307.32 378.459 302.756 379.354 298.498 381.109C294.239 382.864 290.369 385.444 287.112 388.701C283.855 391.958 281.275 395.827 279.52 400.086C277.765 404.344 276.871 408.908 276.888 413.514Z" fill="#367CFF"/>
<path d="M327.826 394.179C327.267 400.667 327.786 402.867 330.479 406.584C332.752 409.718 319.823 407.054 314.103 406.036L319.151 391.282C319.151 391.282 328.023 391.901 327.826 394.179Z" fill="#0A0A0A"/>
<path d="M308.091 391.48C306.403 397.769 306.593 399.715 303.29 403.018C300.553 405.755 311.221 406.312 316.946 407.307L317.235 391.718C317.235 391.718 308.684 389.272 308.091 391.48Z" fill="#0A0A0A"/>
<path d="M308.66 409.773C308.698 409.768 309.117 416.723 317.197 416.117C322.791 415.698 324.785 409.763 324.913 409.763C324.274 409.657 323.644 409.504 323.027 409.305C322.146 408.832 321.056 408.34 320.772 406.629C320.608 405.643 320.886 400.6 320.801 399.601L312.214 401.517C312.334 403.624 313.175 408.508 310.232 409.372C309.741 409.516 309.214 409.648 308.66 409.773Z" fill="#E98862"/>
<path opacity="0.5" d="M312.094 407.377C312.228 406.944 312.315 406.497 312.352 406.045C312.447 405.013 312.428 403.973 312.296 402.945C314.041 402.71 315.686 401.989 317.042 400.866C317.201 401.455 318.078 404.028 317.835 404.587C317.376 405.645 315.22 407.377 312.094 407.377Z" fill="#0C0C0C"/>
<path d="M313.204 405.211C316.59 405.538 320.969 404.184 321.877 399.676L322.696 395.608C323.603 391.1 321.971 386.969 317.726 386.114C313.481 385.26 309.573 388.277 308.666 392.784L308.304 394.586C307.955 396.315 307.164 404.627 313.204 405.211Z" fill="#E98862"/>
<path d="M326.793 396.892L322.974 396.474C315.502 395.1 313.673 389.071 313.673 389.071C313.673 389.071 310.538 393.255 307.877 392.294C307.877 392.294 308.735 382.205 320.549 383.978C325.19 384.674 327.826 388.522 327.826 393.684C327.826 397.478 326.793 396.892 326.793 396.892Z" fill="#0A0A0A"/>
<path opacity="0.1" d="M316.451 398.682C316.5 398.273 316.088 397.888 315.531 397.822C314.974 397.755 314.483 398.033 314.434 398.441C314.385 398.85 314.797 399.235 315.354 399.302C315.911 399.368 316.402 399.091 316.451 398.682Z" fill="#0C0C0C"/>
<path opacity="0.1" d="M309.471 397.669C309.421 398.077 308.93 398.354 308.373 398.289C308.277 398.277 308.182 398.255 308.09 398.224C308.064 397.738 308.063 397.27 308.077 396.836C308.232 396.798 308.392 396.788 308.55 396.809C309.106 396.875 309.518 397.26 309.471 397.669Z" fill="#0C0C0C"/>
<path opacity="0.5" d="M311.931 398.931H311.923C311.751 398.895 311.581 398.85 311.414 398.795C311.165 398.711 310.839 398.575 310.884 398.349C310.936 398.092 312.197 395.462 312.341 395.164C312.347 395.15 312.356 395.138 312.366 395.128C312.377 395.118 312.389 395.11 312.403 395.105C312.417 395.1 312.432 395.098 312.446 395.099C312.461 395.1 312.475 395.103 312.488 395.11C312.501 395.116 312.513 395.125 312.523 395.136C312.533 395.147 312.54 395.159 312.545 395.173C312.549 395.187 312.551 395.202 312.55 395.216C312.549 395.231 312.545 395.245 312.538 395.258C312 396.378 311.133 398.219 311.098 398.392C311.358 398.568 311.655 398.679 311.966 398.717C311.993 398.722 312.018 398.738 312.034 398.762C312.049 398.785 312.056 398.813 312.051 398.841C312.047 398.869 312.032 398.894 312.01 398.911C311.987 398.928 311.959 398.935 311.931 398.932V398.931Z" fill="#0C0C0C"/>
<path d="M321.337 400.996C322.627 401.256 323.95 400.086 324.21 398.796C324.47 397.506 323.567 396.584 322.277 396.325L321.438 397.055L320.228 400.773L321.337 400.996Z" fill="#E98862"/>
<path d="M311.426 393.065C311.267 392.952 311.094 392.861 310.91 392.794C310.724 392.725 310.53 392.681 310.332 392.664C310.134 392.646 309.935 392.657 309.74 392.697C309.544 392.737 309.354 392.802 309.174 392.889L309.168 392.891C309.149 392.898 309.127 392.898 309.108 392.89C309.089 392.882 309.074 392.867 309.065 392.849C309.056 392.83 309.054 392.809 309.06 392.789C309.066 392.769 309.079 392.752 309.097 392.741C309.288 392.641 309.491 392.564 309.701 392.514C309.912 392.463 310.13 392.443 310.347 392.457C310.787 392.481 311.212 392.623 311.579 392.868C311.605 392.887 311.623 392.916 311.629 392.948C311.635 392.98 311.628 393.013 311.609 393.041C311.591 393.068 311.562 393.086 311.53 393.093C311.498 393.099 311.465 393.093 311.438 393.076L311.435 393.074L311.426 393.065Z" fill="#0C0C0C"/>
<path d="M314.902 393.545C315.335 393.459 315.782 393.491 316.197 393.637C316.403 393.708 316.597 393.809 316.773 393.937C316.948 394.064 317.106 394.212 317.243 394.378C317.258 394.394 317.266 394.416 317.265 394.438C317.264 394.46 317.254 394.481 317.238 394.496C317.222 394.511 317.2 394.519 317.178 394.518C317.156 394.517 317.135 394.507 317.12 394.491L317.116 394.486C316.982 394.336 316.831 394.204 316.665 394.092C316.501 393.98 316.321 393.894 316.131 393.835C315.753 393.717 315.352 393.701 314.966 393.788L314.957 393.79C314.924 393.798 314.89 393.793 314.862 393.776C314.833 393.759 314.813 393.731 314.805 393.698C314.797 393.666 314.802 393.632 314.819 393.603C314.837 393.575 314.864 393.554 314.897 393.546L314.902 393.545Z" fill="#0C0C0C"/>
<path d="M295.647 444.548C294.269 443.947 293.239 443.304 290.887 441.532C289.189 440.258 287.612 438.832 286.174 437.271L298.252 414.289L298.777 413.291L309.67 419.018L300.221 437L300.177 437.08L300.259 437.399" fill="#EA394A"/>
<path d="M335.813 426.06C335.496 429.468 335.427 434.768 335.449 439.481C330.895 443.611 325.334 446.47 319.324 447.77C313.315 449.07 307.069 448.764 301.215 446.884C300.499 439.778 299.434 429.334 298.833 422.904C298.225 416.243 296.435 414.043 301.319 410.853C304.011 409.483 308.277 409.363 310.194 409.363C309.543 415.677 322.849 416.454 323.18 409.363C333.132 410.294 337.739 410.525 335.813 426.06Z" fill="#EA394A"/>
<path d="M310.796 399.819C311.896 400.379 313.151 400.555 314.363 400.322C314.405 400.314 314.448 400.318 314.488 400.334C314.528 400.35 314.562 400.376 314.587 400.411C314.612 400.446 314.627 400.487 314.629 400.529C314.632 400.572 314.622 400.615 314.601 400.652C314.241 401.289 313.383 402.377 311.913 401.933C310.964 401.647 310.606 400.672 310.472 400.067C310.462 400.025 310.465 399.981 310.48 399.941C310.494 399.9 310.52 399.865 310.555 399.839C310.589 399.813 310.63 399.797 310.673 399.794C310.715 399.79 310.758 399.799 310.796 399.819Z" fill="white"/>
<path d="M310.728 394.927C311.021 394.927 311.259 394.69 311.259 394.396C311.259 394.103 311.021 393.865 310.728 393.865C310.434 393.865 310.196 394.103 310.196 394.396C310.196 394.69 310.434 394.927 310.728 394.927Z" fill="#0C0C0C"/>
<path d="M315.835 395.821C316.128 395.821 316.366 395.583 316.366 395.29C316.366 394.996 316.128 394.759 315.835 394.759C315.541 394.759 315.303 394.996 315.303 395.29C315.303 395.583 315.541 395.821 315.835 395.821Z" fill="#0C0C0C"/>
<path d="M300.01 434.375H300.02C300.042 434.372 300.061 434.36 300.074 434.343C300.087 434.325 300.093 434.303 300.09 434.282L299.15 424.817C299.149 424.806 299.146 424.795 299.14 424.786C299.135 424.777 299.128 424.768 299.119 424.762C299.11 424.755 299.101 424.751 299.09 424.748C299.08 424.745 299.069 424.745 299.058 424.747C299.047 424.748 299.037 424.752 299.028 424.757C299.018 424.762 299.01 424.77 299.004 424.778C298.997 424.787 298.992 424.797 298.99 424.807C298.987 424.818 298.986 424.828 298.988 424.839L299.927 434.305C299.93 434.324 299.94 434.342 299.955 434.355C299.971 434.368 299.99 434.375 300.01 434.375Z" fill="#0C0C0C"/>
<path d="M298.782 427.166H289.191V438.928H298.782V427.166Z" fill="white"/>
<path d="M294.854 433.047C294.854 432.27 295.085 431.511 295.517 430.865C295.948 430.22 296.562 429.716 297.279 429.419C297.997 429.122 298.787 429.045 299.549 429.196C300.31 429.348 301.01 429.722 301.559 430.271C302.109 430.821 302.483 431.521 302.634 432.282C302.785 433.044 302.708 433.834 302.41 434.552C302.113 435.269 301.609 435.882 300.964 436.314C300.318 436.745 299.558 436.976 298.782 436.976C297.74 436.974 296.742 436.56 296.005 435.824C295.269 435.087 294.855 434.089 294.854 433.047ZM296.463 433.047C296.463 433.506 296.599 433.954 296.854 434.335C297.108 434.717 297.47 435.014 297.894 435.19C298.318 435.365 298.784 435.411 299.234 435.321C299.684 435.232 300.097 435.011 300.421 434.687C300.745 434.363 300.966 433.949 301.056 433.5C301.145 433.05 301.099 432.584 300.924 432.16C300.748 431.736 300.451 431.374 300.07 431.119C299.688 430.864 299.24 430.728 298.782 430.728C298.167 430.729 297.577 430.974 297.143 431.408C296.708 431.843 296.463 432.432 296.463 433.047Z" fill="white"/>
<path d="M298.705 434.503C298.737 434.304 298.839 434.122 298.991 433.991C299.144 433.859 299.338 433.785 299.539 433.782C299.534 433.774 299.53 433.765 299.528 433.755L299.242 433.693C299.043 433.654 298.864 433.547 298.734 433.39C298.605 433.234 298.534 433.038 298.533 432.835C298.534 432.707 298.564 432.582 298.621 432.468C298.677 432.354 298.758 432.253 298.857 432.174C298.957 432.095 299.073 432.039 299.197 432.01C299.321 431.981 299.449 431.98 299.574 432.007L300.248 432.152C300.248 432.15 300.248 432.147 300.248 432.145C300.249 432.139 300.251 432.134 300.254 432.129C300.078 432.046 299.936 431.907 299.85 431.733C299.763 431.559 299.739 431.361 299.78 431.172C299.853 430.673 300.451 430.509 300.889 430.604L302.634 430.916L302.045 430.526C301.859 430.397 301.729 430.203 301.681 429.982C301.633 429.761 301.671 429.53 301.787 429.336C301.85 429.238 301.932 429.153 302.029 429.088C302.126 429.023 302.235 428.978 302.35 428.956C302.464 428.935 302.582 428.937 302.696 428.962C302.81 428.988 302.918 429.036 303.012 429.104L310.047 437.154L308.485 436.445C308 437.158 307.313 437.71 306.513 438.03C305.712 438.351 304.835 438.424 303.992 438.242L300.177 437.411C299.978 437.371 299.799 437.264 299.669 437.108C299.54 436.952 299.469 436.755 299.468 436.552C299.47 436.369 299.532 436.192 299.642 436.046C299.753 435.9 299.907 435.793 300.083 435.741C300.077 435.728 300.076 435.714 300.077 435.7C300.079 435.687 300.085 435.675 300.093 435.665C300.101 435.654 300.111 435.646 300.124 435.64L299.42 435.488C299.198 435.445 299.001 435.319 298.868 435.136C298.735 434.953 298.677 434.727 298.705 434.503Z" fill="#E98862"/>
<path opacity="0.2" d="M301.522 432.436C301.54 432.432 301.557 432.422 301.568 432.407C301.58 432.392 301.586 432.374 301.586 432.355C301.585 432.336 301.578 432.318 301.566 432.304C301.554 432.29 301.537 432.28 301.519 432.277L300.34 432.078C300.33 432.075 300.319 432.075 300.308 432.077C300.297 432.08 300.287 432.084 300.278 432.09C300.269 432.096 300.262 432.104 300.256 432.113C300.25 432.122 300.246 432.132 300.244 432.143C300.242 432.154 300.243 432.165 300.245 432.175C300.248 432.186 300.252 432.196 300.259 432.205C300.265 432.214 300.273 432.221 300.283 432.226C300.292 432.232 300.303 432.235 300.313 432.237L301.492 432.436C301.502 432.438 301.512 432.438 301.522 432.436Z" fill="#0C0C0C"/>
<path opacity="0.2" d="M301.237 434.102C301.256 434.099 301.272 434.088 301.284 434.074C301.296 434.059 301.302 434.041 301.301 434.022C301.301 434.003 301.294 433.985 301.282 433.971C301.27 433.957 301.253 433.947 301.235 433.944L299.621 433.658C299.61 433.655 299.599 433.655 299.588 433.657C299.577 433.659 299.567 433.663 299.558 433.669C299.549 433.675 299.541 433.683 299.535 433.692C299.529 433.701 299.525 433.711 299.523 433.722C299.521 433.733 299.521 433.744 299.524 433.755C299.526 433.765 299.531 433.775 299.538 433.784C299.544 433.793 299.552 433.8 299.562 433.806C299.571 433.812 299.582 433.815 299.593 433.816L301.207 434.103C301.217 434.105 301.227 434.105 301.237 434.102Z" fill="#0C0C0C"/>
<path opacity="0.2" d="M300.941 435.909C300.959 435.905 300.976 435.895 300.988 435.88C300.999 435.865 301.005 435.847 301.005 435.828C301.004 435.809 300.997 435.791 300.985 435.777C300.972 435.763 300.955 435.753 300.936 435.75L300.171 435.633C300.15 435.631 300.13 435.637 300.113 435.65C300.097 435.663 300.086 435.681 300.083 435.701C300.08 435.722 300.085 435.743 300.097 435.76C300.108 435.777 300.126 435.788 300.146 435.793L300.912 435.91C300.922 435.912 300.931 435.911 300.941 435.909Z" fill="#0C0C0C"/>
<path d="M340.699 433.507C336.383 439.713 330.182 444.362 323.014 446.764L323.012 446.761C321.42 446.45 306.234 440.454 304.225 440.06L306.423 429.806C312.067 430.929 322.36 435.258 328.036 436.386L324.032 418.23C323.887 417.428 323.902 416.605 324.078 415.809C324.253 415.013 324.584 414.26 325.053 413.593C325.522 412.926 326.118 412.359 326.807 411.925C327.497 411.49 328.266 411.197 329.069 411.061C329.873 410.926 330.696 410.952 331.489 411.137C332.283 411.322 333.032 411.663 333.693 412.14C334.354 412.617 334.914 413.22 335.34 413.915C335.766 414.609 336.05 415.382 336.175 416.187L340.699 433.507Z" fill="#EA394A"/>
<path d="M332.338 437.722C332.359 437.722 332.378 437.714 332.393 437.7C332.408 437.686 332.417 437.667 332.419 437.646C332.42 437.626 332.414 437.606 332.401 437.589C332.389 437.573 332.371 437.562 332.351 437.559L328.083 436.111C328.072 436.109 328.061 436.11 328.051 436.112C328.04 436.115 328.03 436.12 328.022 436.126C328.013 436.132 328.006 436.141 328 436.15C327.995 436.159 327.991 436.17 327.99 436.18C327.986 436.202 327.992 436.224 328.005 436.241C328.018 436.259 328.037 436.27 328.059 436.273L332.326 437.721C332.33 437.722 332.334 437.722 332.338 437.722Z" fill="#0C0C0C"/>
<path d="M328.148 436.181C328.151 436.206 328.143 436.232 328.126 436.252C328.117 436.261 328.106 436.267 328.093 436.271C328.081 436.275 328.068 436.276 328.055 436.274L306.56 429.929L304.405 440.021L322.916 446.794C322.858 446.813 322.798 446.832 322.741 446.851C322.7 446.865 322.659 446.879 322.615 446.89L304.285 440.16C304.264 440.154 304.247 440.141 304.235 440.122C304.224 440.104 304.22 440.082 304.225 440.061L306.423 429.807C306.426 429.797 306.43 429.787 306.437 429.778C306.444 429.77 306.452 429.763 306.461 429.758C306.47 429.751 306.481 429.747 306.491 429.745C306.502 429.743 306.514 429.744 306.524 429.747L327.968 436.1L325.54 426.09C325.537 426.069 325.543 426.047 325.556 426.03C325.569 426.013 325.588 426.001 325.609 425.998C325.619 425.995 325.63 425.995 325.641 425.998C325.652 426 325.662 426.004 325.671 426.01C325.679 426.016 325.687 426.024 325.693 426.033C325.699 426.042 325.703 426.052 325.705 426.063L328.148 436.181Z" fill="#0C0C0C"/>
<path d="M47.8467 423.101C47.8267 423.101 47.8069 423.097 47.7884 423.089C47.7702 423.082 47.7537 423.07 47.7398 423.056C47.7259 423.042 47.715 423.026 47.7075 423.007C47.7001 422.989 47.6963 422.97 47.6964 422.95C47.6965 422.93 47.7005 422.911 47.7082 422.892L53.5935 408.904C53.609 408.867 53.6384 408.838 53.6753 408.823C53.7122 408.808 53.7536 408.808 53.7903 408.824C53.8271 408.839 53.8561 408.869 53.8711 408.906C53.8862 408.942 53.8859 408.984 53.8704 409.021L47.9851 423.009C47.9737 423.036 47.9545 423.059 47.9298 423.076C47.9052 423.092 47.8763 423.101 47.8467 423.101Z" fill="#0C0C0C"/>
<path d="M82.4777 423.26H82.4711C82.4514 423.261 82.4317 423.258 82.4132 423.251C82.3946 423.244 82.3776 423.234 82.363 423.221C82.3485 423.207 82.3367 423.191 82.3283 423.174C82.3199 423.156 82.3152 423.136 82.3143 423.117L81.6583 408.809C81.6578 408.77 81.6723 408.732 81.6988 408.703C81.7254 408.673 81.762 408.655 81.8013 408.652C81.821 408.651 81.8407 408.654 81.8593 408.661C81.8779 408.668 81.895 408.678 81.9095 408.691C81.9241 408.705 81.936 408.721 81.9443 408.738C81.9527 408.756 81.9575 408.776 81.9584 408.795L82.6144 423.103C82.6163 423.142 82.6031 423.18 82.5777 423.209C82.5522 423.238 82.5164 423.256 82.4777 423.26Z" fill="#0C0C0C"/>
</svg>
