<svg width="65" height="65" viewBox="0 0 65 65" fill="none" xmlns="http://www.w3.org/2000/svg">
<rect width="65" height="65" rx="18" fill="#FF653E" fill-opacity="0.1"/>
<path fill-rule="evenodd" clip-rule="evenodd" d="M32.5 21.5623H18.2812C17.6775 21.5623 17.1875 22.0523 17.1875 22.656V46.7185C17.1875 47.3223 17.6775 47.8123 18.2812 47.8123H42.3437C42.9475 47.8123 43.4375 47.3223 43.4375 46.7185V32.4998C43.4375 31.896 42.9475 31.406 42.3437 31.406C41.74 31.406 41.25 31.896 41.25 32.4998V45.6248H19.375V23.7498H32.5C33.1037 23.7498 33.5937 23.2598 33.5937 22.656C33.5937 22.0523 33.1037 21.5623 32.5 21.5623ZM22.6562 42.3435H37.9687C38.5725 42.3435 39.0625 41.8535 39.0625 41.2498C39.0625 40.646 38.5725 40.156 37.9687 40.156H22.6562C22.0525 40.156 21.5625 40.646 21.5625 41.2498C21.5625 41.8535 22.0525 42.3435 22.6562 42.3435ZM22.6562 37.9685H27.0312C27.635 37.9685 28.125 37.4785 28.125 36.8748C28.125 36.271 27.635 35.781 27.0312 35.781H22.6562C22.0525 35.781 21.5625 36.271 21.5625 36.8748C21.5625 37.4785 22.0525 37.9685 22.6562 37.9685ZM47.492 23.4293C47.9197 23.0028 47.9197 22.3093 47.492 21.8828L43.117 17.5078C42.6905 17.0801 41.997 17.0801 41.5705 17.5078L30.633 28.4453C30.4798 28.5973 30.3759 28.792 30.3333 29.0042L29.2395 34.4729C29.1684 34.8317 29.28 35.2024 29.5392 35.4606C29.7973 35.7198 30.1681 35.8313 30.5269 35.7603L35.9956 34.6665C36.2078 34.6238 36.4025 34.5199 36.5545 34.3668L47.492 23.4293ZM22.6562 33.5935H27.0312C27.635 33.5935 28.125 33.1035 28.125 32.4998C28.125 31.896 27.635 31.406 27.0312 31.406H22.6562C22.0525 31.406 21.5625 31.896 21.5625 32.4998C21.5625 33.1035 22.0525 33.5935 22.6562 33.5935ZM22.6562 29.2185H28.125C28.7287 29.2185 29.2187 28.7285 29.2187 28.1248C29.2187 27.521 28.7287 27.031 28.125 27.031H22.6562C22.0525 27.031 21.5625 27.521 21.5625 28.1248C21.5625 28.7285 22.0525 29.2185 22.6562 29.2185Z" fill="#FF653E"/>
</svg>
