<svg width="60" height="60" viewBox="0 0 60 60" fill="none" xmlns="http://www.w3.org/2000/svg">
<path fill-rule="evenodd" clip-rule="evenodd" d="M30 11.25H5.625C4.59 11.25 3.75 12.09 3.75 13.125V54.375C3.75 55.41 4.59 56.25 5.625 56.25H46.875C47.91 56.25 48.75 55.41 48.75 54.375V30C48.75 28.965 47.91 28.125 46.875 28.125C45.84 28.125 45 28.965 45 30V52.5H7.5V15H30C31.035 15 31.875 14.16 31.875 13.125C31.875 12.09 31.035 11.25 30 11.25ZM13.125 46.875H39.375C40.41 46.875 41.25 46.035 41.25 45C41.25 43.965 40.41 43.125 39.375 43.125H13.125C12.09 43.125 11.25 43.965 11.25 45C11.25 46.035 12.09 46.875 13.125 46.875ZM13.125 39.375H20.625C21.66 39.375 22.5 38.535 22.5 37.5C22.5 36.465 21.66 35.625 20.625 35.625H13.125C12.09 35.625 11.25 36.465 11.25 37.5C11.25 38.535 12.09 39.375 13.125 39.375ZM55.7006 14.4506C56.4337 13.7194 56.4337 12.5306 55.7006 11.7994L48.2006 4.29936C47.4694 3.56623 46.2806 3.56623 45.5494 4.29936L26.7994 23.0494C26.5369 23.31 26.3587 23.6437 26.2856 24.0075L24.4106 33.3825C24.2887 33.9975 24.48 34.6331 24.9244 35.0756C25.3669 35.52 26.0025 35.7112 26.6175 35.5894L35.9925 33.7144C36.3562 33.6412 36.69 33.4631 36.9506 33.2006L55.7006 14.4506ZM13.125 31.875H20.625C21.66 31.875 22.5 31.035 22.5 30C22.5 28.965 21.66 28.125 20.625 28.125H13.125C12.09 28.125 11.25 28.965 11.25 30C11.25 31.035 12.09 31.875 13.125 31.875ZM13.125 24.375H22.5C23.535 24.375 24.375 23.535 24.375 22.5C24.375 21.465 23.535 20.625 22.5 20.625H13.125C12.09 20.625 11.25 21.465 11.25 22.5C11.25 23.535 12.09 24.375 13.125 24.375Z" fill="#037EEE"/>
</svg>
