<svg width="220" height="220" viewBox="0 0 220 220" fill="none" xmlns="http://www.w3.org/2000/svg">
<rect x="12.2223" y="12.2223" width="195.556" height="195.556" rx="97.7778" fill="#EEF0FD"/>
<path fill-rule="evenodd" clip-rule="evenodd" d="M79.2997 124.115C83.1199 120.294 88.3012 118.148 93.7038 118.148H126.296C131.699 118.148 136.88 120.294 140.7 124.115C144.521 127.935 146.667 133.116 146.667 138.519V146.667C146.667 148.917 144.843 150.741 142.593 150.741C140.343 150.741 138.519 148.917 138.519 146.667V138.519C138.519 135.277 137.231 132.168 134.939 129.876C132.647 127.584 129.538 126.296 126.296 126.296H93.7038C90.4622 126.296 87.3534 127.584 85.0613 129.876C82.7692 132.168 81.4815 135.277 81.4815 138.519V146.667C81.4815 148.917 79.6575 150.741 77.4074 150.741C75.1574 150.741 73.3334 148.917 73.3334 146.667V138.519C73.3334 133.116 75.4795 127.935 79.2997 124.115Z" fill="#037EEE"/>
<path fill-rule="evenodd" clip-rule="evenodd" d="M110 77.4074C103.25 77.4074 97.7778 82.8795 97.7778 89.6297C97.7778 96.3798 103.25 101.852 110 101.852C116.75 101.852 122.222 96.3798 122.222 89.6297C122.222 82.8795 116.75 77.4074 110 77.4074ZM89.6297 89.6297C89.6297 78.3794 98.7498 69.2593 110 69.2593C121.25 69.2593 130.37 78.3794 130.37 89.6297C130.37 100.88 121.25 110 110 110C98.7498 110 89.6297 100.88 89.6297 89.6297Z" fill="#037EEE"/>
<rect x="12.2223" y="12.2223" width="195.556" height="195.556" rx="97.7778" stroke="white"/>
<circle cx="110" cy="110" r="109.5" stroke="#FAFAFA" stroke-dasharray="7 7"/>
</svg>
