<svg width="215" height="194" viewBox="0 0 215 194" fill="none" xmlns="http://www.w3.org/2000/svg">
<rect x="2" y="2" width="211" height="190.314" rx="10" fill="#D9D9D9" fill-opacity="0.3" stroke="#C6C6C6" stroke-width="3" stroke-dasharray="7 7"/>
<path d="M109.521 82.816H102.313C101.272 82.816 100.273 83.2296 99.537 83.966L97.9106 85.5923C97.1743 86.3287 96.1756 86.7423 95.1343 86.7423H91.8526C89.6842 86.7423 87.9263 88.5002 87.9263 90.6687V110.301C87.9263 112.469 89.6842 114.227 91.8526 114.227H119.337C121.506 114.227 123.264 112.469 123.264 110.301V96.5583M117.374 82.816H129.153M123.264 88.7055V76.9264M105.595 108.337C109.932 108.337 113.448 104.822 113.448 100.485C113.448 96.1478 109.932 92.6319 105.595 92.6319C101.258 92.6319 97.7422 96.1478 97.7422 100.485C97.7422 104.822 101.258 108.337 105.595 108.337Z" stroke="#7C7C7C" stroke-width="2" stroke-linecap="round" stroke-linejoin="round"/>
</svg>
