<svg width="60" height="60" viewBox="0 0 60 60" fill="none" xmlns="http://www.w3.org/2000/svg">
<path d="M30 30C35.5228 30 40 25.5228 40 20C40 14.4772 35.5228 10 30 10C24.4772 10 20 14.4772 20 20C20 25.5228 24.4772 30 30 30Z" fill="#037EEE"/>
<path d="M13.3447 43.3015C14.9974 36.3173 21.9293 32.5 29.1065 32.5H30.8935C38.0708 32.5 45.0025 36.3173 46.6553 43.3015C46.975 44.6528 47.2293 46.067 47.3723 47.504C47.509 48.878 46.3808 50 45 50H15C13.6193 50 12.4911 48.878 12.6278 47.504C12.7708 46.067 13.0249 44.6528 13.3447 43.3015Z" fill="#037EEE"/>
</svg>
